SplineFontDB: 1.0
FontName: DBThaiTextBoldItalic
FullName: DBThaiTextBoldItalic
FamilyName: DBThaiText
Weight: Bold
Copyright: Typeface (c) The Monotype Corporation plc. Data (c) The Monotype Corporation plc/Type Solutions Inc. 1990-1992. All Rights Reserved
Version: 001.000
ItalicAngle: -17.9
UnderlinePosition: -477
UnderlineWidth: 205
Ascent: 1638
Descent: 410
FSType: 0
PfmFamily: 17
TTFWeight: 700
TTFWidth: 5
Panose: 2 0 8 3 0 0 0 0 0 0
LineGap: 184
VLineGap: 0

LangName: 1033 "" "" "" "PfaEdit : DBThaiTextBoldItalic : 13-0-2003" 
Encoding: compacted
DisplaySize: -36
AntiAlias: 1
BeginChars: 258 258
StartChar: .notdef
Encoding: 0 -1
OldEncoding: 0
Width: 1024
Flags: W
Fore
127 0 m 1
 127 1720 l 1
 897 1720 l 1
 897 0 l 1
 127 0 l 1
256 127 m 1
 768 127 l 1
 768 1593 l 1
 256 1593 l 1
 256 127 l 1
EndSplineSet
EndChar
StartChar: exclam
Encoding: 3 33
OldEncoding: 33
Width: 387
Flags: W
Fore
117 242 m 1
 190 604 l 1
 270 850 l 1
 442 850 l 1
 362 604 l 1
 197 242 l 1
 117 242 l 1
49 170 m 1
 221 170 l 1
 168 0 l 1
 -6 0 l 1
 49 170 l 1
EndSplineSet
EndChar
StartChar: quotedbl
Encoding: 4 34
OldEncoding: 34
Width: 552
Flags: W
Fore
508 743 m 1
 488.667 687 454.667 641.333 406 606 c 0
 353.333 569.333 308 549 270 545 c 1
 266 573 l 1
 308.667 593.667 334 606.667 342 612 c 0
 361.333 626 377.667 646 391 672 c 1
 369 672 350 678 334 690 c 1
 322.667 696.667 317 708.333 317 725 c 0
 317 737 319.333 748.667 324 760 c 0
 332 784.667 346.333 805.667 367 823 c 0
 386.333 839.667 408.667 848 434 848 c 0
 470.667 848 494 838.333 504 819 c 0
 510.667 807.667 514 794.667 514 780 c 0
 514 770.667 512 758.333 508 743 c 1
283 743 m 1
 263.667 687.667 229.333 642 180 606 c 0
 128 569.333 83 549 45 545 c 1
 41 573 l 1
 81.6667 592.333 107 605.333 117 612 c 0
 136.333 626 152.667 646 166 672 c 1
 144 672 125 678 109 690 c 1
 97.6667 696 92 707.667 92 725 c 0
 92 736.333 94 748 98 760 c 0
 106 783.333 120.333 804.333 141 823 c 1
 161.667 839.667 184.333 848 209 848 c 0
 244.333 848 267.667 838.333 279 819 c 0
 285.667 807.667 289 794.667 289 780 c 0
 289 770.667 287 758.333 283 743 c 1
EndSplineSet
EndChar
StartChar: numbersign
Encoding: 5 35
OldEncoding: 35
Width: 647
Flags: W
Fore
369 811 m 1
 492 811 l 1
 369 573 l 1
 487 575 l 1
 608 811 l 1
 731 811 l 1
 608 573 l 1
 700 573 l 1
 659 442 l 1
 547 442 l 1
 471 299 l 1
 582 299 l 1
 539 166 l 1
 399 166 l 1
 299 -35 l 1
 172 -35 l 1
 276 166 l 1
 160 166 l 1
 57 -35 l 1
 -68 -35 l 1
 35 166 l 1
 -70 166 l 1
 -27 299 l 1
 104 299 l 1
 180 442 l 1
 68 442 l 1
 109 573 l 1
 246 573 l 1
 369 811 l 1
303 442 m 1
 227 299 l 1
 346 299 l 1
 424 442 l 1
 303 442 l 1
EndSplineSet
EndChar
StartChar: dollar
Encoding: 6 36
OldEncoding: 36
Width: 647
Flags: W
Fore
672 582 m 1
 520 582 l 1
 526.667 602 530 618.333 530 631 c 0
 530 645 526.667 658 520 670 c 0
 506.667 689.333 490.333 701.667 471 707 c 1
 395 475 l 1
 467 455 519.667 426.333 553 389 c 0
 572.333 365.667 582 339 582 309 c 0
 582 288.333 577.667 265.333 569 240 c 0
 551 186 528 143 500 111 c 0
 472 77.6667 442 52.3333 410 35 c 0
 376.667 15 344.333 2 313 -4 c 1
 233 -23 l 1
 195 -145 l 1
 117 -145 l 1
 156 -25 l 1
 117 -18 l 1
 73 -4 l 1
 72 -4 l 2
 52 2 37 9.33333 27 18 c 0
 12.3333 30.6667 0 44.3333 -10 59 c 0
 -25.3333 82.3333 -33 110.333 -33 143 c 0
 -33 175 -26.6667 208 -14 242 c 1
 137 242 l 1
 131.667 221.333 129 201.333 129 182 c 2
 129 168 l 1
 131 150.667 135.667 137 143 127 c 0
 149.667 119.667 158.667 113.667 170 109 c 1
 176.667 104.333 185.667 100.667 197 98 c 1
 281 358 l 1
 219 371.333 171.667 396 139 432 c 0
 117 457.333 106 487.333 106 522 c 0
 106 536.667 109.667 558 117 586 c 1
 139.667 656.667 178.333 713.333 233 756 c 0
 286.333 797.333 352.667 821 432 827 c 1
 453 891 l 1
 530 891 l 1
 510 827 l 1
 626 817 684 764 684 668 c 0
 684 640.667 680 612 672 582 c 1
326 500 m 1
 395 711 l 1
 332.333 700.333 289.333 662.667 266 598 c 1
 262 569 l 1
 262 555 l 1
 264 543 271 532.667 283 524 c 1
 293 514 307.333 506 326 500 c 1
348 330 m 1
 274 102 l 1
 303 113 l 1
 342 129 l 1
 357.333 138.333 369 147.333 377 156 c 0
 389.667 171.333 398.333 186.333 403 201 c 0
 409 216.333 412 233.333 412 252 c 0
 412 289.333 390.667 315.333 348 330 c 1
EndSplineSet
EndChar
StartChar: percent
Encoding: 7 37
OldEncoding: 37
Width: 1036
Flags: W
Fore
195 -20 m 1
 102 -20 l 1
 844 825 l 1
 934 825 l 1
 195 -20 l 1
512 199 m 0
 529.333 253.667 567 303.333 625 348 c 0
 679.667 390.667 737 412 797 412 c 0
 854.333 412 897.333 390.667 926 348 c 0
 942 324 950 296 950 264 c 0
 950 242.667 946 221 938 199 c 1
 920 138.333 883 87.6667 827 47 c 0
 772.333 6.33333 715.667 -14 657 -14 c 0
 596.333 -14 552.667 6.33333 526 47 c 1
 510 74.3333 502 102.333 502 131 c 0
 502 157 505.333 179.667 512 199 c 0
90 606 m 0
 110.667 665.333 148.333 716 203 758 c 0
 257 800 315 821 377 821 c 0
 435 821 478 800 506 758 c 0
 522 732.667 530 704.667 530 674 c 0
 530 651.333 526 628.667 518 606 c 0
 500 546.667 463.333 496.333 408 455 c 0
 351.333 413.667 294.667 393 238 393 c 0
 178 393 133.333 413.667 104 455 c 0
 86.6667 478.333 78 506.333 78 539 c 0
 78 559.667 82 582 90 606 c 0
629 199 m 1
 625 168 l 1
 625 154 629 141 637 129 c 0
 647.667 109.667 666.667 100 694 100 c 0
 720 100 746 109.667 772 129 c 0
 798.667 149.667 815 173 821 199 c 1
 825 209 827 219 827 229 c 0
 827 242.333 823.667 254.667 817 266 c 0
 805 285.333 785.333 295 758 295 c 0
 732.667 295 707.333 285.333 682 266 c 1
 657.333 250 639.667 227.667 629 199 c 1
207 606 m 0
 203 596 201 586.667 201 578 c 0
 201 564 205 551 213 539 c 0
 227 519.667 247.333 510 274 510 c 0
 301.333 510 327.333 519.667 352 539 c 0
 376 556.333 392.333 578.667 401 606 c 0
 405.667 617.333 408 629 408 641 c 0
 408 653.667 404.333 666 397 678 c 0
 385 696 365.333 705 338 705 c 0
 311.333 705 284.667 696 258 678 c 1
 234.667 658 217.667 634 207 606 c 0
EndSplineSet
EndChar
StartChar: ampersand
Encoding: 8 38
OldEncoding: 38
Width: 839
Flags: W
Fore
618 436 m 1
 754 436 l 1
 736.667 386 714.667 341.667 688 303 c 0
 656.667 254.333 623.333 216 588 188 c 1
 676 0 l 1
 487 0 l 1
 453 72 l 1
 397.667 35.3333 358 12 334 2 c 0
 294.667 -14.6667 251.667 -23 205 -23 c 0
 129 -25 69.6667 -3.66667 27 41 c 0
 1 67 -12 100.333 -12 141 c 0
 -12 167.667 -7.33333 195 2 223 c 1
 25 274 l 1
 43 310.667 66.6667 342.333 96 369 c 1
 129.333 396.333 158.667 416 184 428 c 0
 202.667 436.667 229.333 450.333 264 469 c 1
 238 520 l 1
 228.667 536 223 554.333 221 575 c 1
 219 592 l 1
 219 607.333 222.333 625 229 645 c 0
 239 675 254 702.333 274 727 c 0
 305.333 766.333 342.333 797 385 819 c 0
 427 839.667 471.333 850 518 850 c 0
 568 850 608.333 837.667 639 813 c 0
 662.333 793 674 765.667 674 731 c 1
 672 709 l 1
 664 664 l 1
 650 618.667 625.333 580.333 590 549 c 0
 558.667 521 515.667 491 461 459 c 1
 535 301 l 1
 548.333 311 564 327.333 582 350 c 1
 598.667 374 610 395.333 616 414 c 1
 618 436 l 1
395 596 m 1
 418 551 l 1
 459 571 l 1
 487 594 l 2
 499 604.667 508.667 619 516 637 c 0
 521.333 653 524 668.667 524 684 c 2
 524 696 l 1
 522 711.333 505.667 719 475 719 c 0
 437.667 719 410.333 705.333 393 678 c 1
 389 664 387 651 387 639 c 0
 387 623 389.667 608.667 395 596 c 1
401 178 m 1
 309 371 l 1
 213 319 l 1
 187.667 302.333 170 278 160 246 c 0
 156 231.333 154 218.333 154 207 c 0
 154 182.333 162 159.667 178 139 c 0
 193.333 120.333 215.333 111 244 111 c 0
 282 111 334.333 133.333 401 178 c 1
EndSplineSet
EndChar
StartChar: quotesingle
Encoding: 9 39
OldEncoding: 39
Width: 278
Flags: W
Fore
262 743 m 0
 244 687.667 210 642 160 606 c 0
 108 569.333 63 549 25 545 c 1
 20 573 l 1
 62.6667 593.667 88 606.667 96 612 c 0
 114.667 624.667 131 644.667 145 672 c 1
 123 672 104 678 88 690 c 0
 77.3333 696.667 72 708.333 72 725 c 0
 72 736.333 74 748 78 760 c 0
 86 784.667 100.333 805.667 121 823 c 0
 140.333 839.667 162.667 848 188 848 c 0
 224.667 848 248 838.333 258 819 c 0
 264.667 807.667 268 794.667 268 780 c 0
 268 770.667 266 758.333 262 743 c 0
EndSplineSet
EndChar
StartChar: parenleft
Encoding: 10 40
OldEncoding: 40
Width: 387
Flags: W
Fore
412 850 m 1
 528 850 l 1
 447.333 757.333 382.667 674.667 334 602 c 0
 277.333 519.333 236.333 438 211 358 c 0
 205.667 342.667 201 325.667 197 307 c 1
 171 217 156 120 152 16 c 1
 150 -31 l 1
 150 -113.667 158.667 -182 176 -236 c 1
 59 -236 l 1
 27 -90 l 1
 19 -58 14 -22.6667 12 16 c 1
 12 59 l 2
 12 99 13.3333 129.333 16 150 c 0
 20 192.667 30.3333 245 47 307 c 0
 60.3333 353 84.3333 407.667 119 471 c 0
 146.333 522.333 177 571.333 211 618 c 0
 245 665.333 275.667 703.667 303 733 c 2
 412 850 l 1
EndSplineSet
EndChar
StartChar: parenright
Encoding: 11 41
OldEncoding: 41
Width: 387
Flags: W
Fore
203 850 m 1
 317 850 l 1
 346.333 756.667 365 670.667 373 592 c 1
 375 545 l 1
 375 470.333 360.667 391 332 307 c 0
 298 207.667 251.667 117 193 35 c 0
 137.667 -41 61 -131.333 -37 -236 c 1
 -150 -236 l 1
 -83.3333 -167.333 -19.6667 -83.3333 41 16 c 0
 106.333 126 154 223 184 307 c 2
 201 354 l 1
 213 390.667 222.333 433 229 481 c 0
 235 513 238 551.333 238 596 c 2
 238 610 l 1
 236 662 232.333 703 227 733 c 0
 221 768.333 213 807.333 203 850 c 1
EndSplineSet
EndChar
StartChar: asterisk
Encoding: 12 42
OldEncoding: 42
Width: 452
Flags: W
Fore
74 449 m 1
 18 512 l 1
 145 625 l 1
 35 670 l 1
 90 752 l 1
 195 707 l 1
 242 850 l 1
 332 850 l 1
 287 707 l 1
 418 752 l 1
 424 670 l 1
 283 625 l 1
 336 512 l 1
 240 449 l 1
 188 561 l 1
 74 449 l 1
EndSplineSet
EndChar
StartChar: plus
Encoding: 13 43
OldEncoding: 43
Width: 679
Flags: W
Fore
362 553 m 1
 502 553 l 1
 432 340 l 1
 645 340 l 1
 600 201 l 1
 387 201 l 1
 317 -12 l 1
 178 -12 l 1
 248 201 l 1
 35 201 l 1
 80 340 l 1
 293 340 l 1
 362 553 l 1
EndSplineSet
EndChar
StartChar: comma
Encoding: 14 44
OldEncoding: 44
Width: 399
Flags: W
Fore
324 88 m 0
 304.667 32.6667 270.333 -13 221 -49 c 0
 169.667 -85.6667 124.667 -106.333 86 -111 c 1
 82 -82 l 1
 115.333 -66.6667 140.667 -53.6667 158 -43 c 0
 176 -31 192.333 -11.3333 207 16 c 1
 185.667 16 166.667 22.3333 150 35 c 1
 138.667 41 133 52.6667 133 70 c 0
 133 80.6667 135 92 139 104 c 0
 146.333 128 160.667 149.333 182 168 c 1
 204 184.667 226.667 193 250 193 c 0
 285.333 193 308.333 183.333 319 164 c 0
 326.333 153.333 330 140.333 330 125 c 0
 330 114.333 328 102 324 88 c 0
EndSplineSet
EndChar
StartChar: hyphen
Encoding: 15 45
OldEncoding: 45
Width: 387
Flags: W
Fore
57 401 m 1
 373 401 l 1
 324 242 l 1
 6 242 l 1
 57 401 l 1
EndSplineSet
EndChar
StartChar: period
Encoding: 16 46
OldEncoding: 46
Width: 290
Flags: W
Fore
113 0 m 0
 86.3333 0 67.6667 8.33333 57 25 c 0
 51.6667 33.6667 49 43.6667 49 55 c 1
 53 86 l 1
 61 108.667 75.3333 128.333 96 145 c 0
 116.667 161.667 140.667 170 168 170 c 0
 193.333 170 211 161.667 221 145 c 0
 226.333 137.667 229 128.333 229 117 c 0
 229 106.333 227 96 223 86 c 1
 217 62 203.333 41.6667 182 25 c 0
 162.667 8.33333 139.667 8.67362e-19 113 0 c 0
EndSplineSet
EndChar
StartChar: slash
Encoding: 17 47
OldEncoding: 47
Width: 323
Flags: W
Fore
385 834 m 1
 457 834 l 1
 -61 -16 l 1
 -135 -16 l 1
 385 834 l 1
EndSplineSet
EndChar
StartChar: zero
Encoding: 18 48
OldEncoding: 48
Width: 647
Flags: W
Fore
174 -27 m 0
 134.667 -27 100 -20 70 -6 c 0
 37.3333 8.66667 15.3333 28.3333 4 53 c 0
 -8 80.3333 -14 114 -14 154 c 0
 -14 222.667 3 308 37 410 c 0
 91 576 156.333 694 233 764 c 0
 261 788.667 296.667 808.333 340 823 c 0
 376.667 837 416.333 844 459 844 c 0
 547.667 844 605.667 817.333 633 764 c 0
 646.333 738 653 704.667 653 664 c 0
 653 596 636 511.333 602 410 c 0
 546.667 240.667 479.667 121.667 401 53 c 1
 337.667 -0.333333 262 -27 174 -27 c 0
223 123 m 0
 275.667 123 315.333 141.333 342 178 c 1
 368.667 218.667 400.667 296 438 410 c 0
 474 521.333 492 597.667 492 639 c 2
 492 641 l 2
 492 677.667 464.667 696 410 696 c 0
 387.333 696 365.333 691.333 344 682 c 0
 321.333 670.667 305.667 657 297 641 c 1
 271 607 238.333 530 199 410 c 0
 164.333 300 147 226 147 188 c 2
 147 178 l 1
 147 176 l 2
 147 140.667 172.333 123 223 123 c 0
EndSplineSet
EndChar
StartChar: one
Encoding: 19 49
OldEncoding: 49
Width: 647
Flags: W
Fore
575 825 m 1
 307 0 l 1
 143 0 l 1
 330 571 l 1
 133 571 l 1
 168 680 l 1
 198.667 680 233.333 684 272 692 c 0
 308.667 698 338.667 708.333 362 723 c 1
 418 754.333 453 788.333 467 825 c 1
 575 825 l 1
EndSplineSet
EndChar
StartChar: two
Encoding: 20 50
OldEncoding: 50
Width: 647
Flags: W
Fore
508 147 m 1
 459 0 l 1
 -102 0 l 1
 -83.3333 49.3333 -57.6667 99.3333 -25 150 c 0
 6.33333 196.667 53 238.667 115 276 c 2
 276 375 l 1
 334 409 374.333 435.667 397 455 c 0
 441 495 469.667 534.333 483 573 c 1
 489 597 492.667 613.667 494 623 c 1
 496 641 l 1
 496 662.333 489 678 475 688 c 1
 457.667 703.333 436.667 711 412 711 c 1
 383 707 l 1
 322.333 693.667 276 638.333 244 541 c 1
 86 541 l 1
 116.667 639 165 714.667 231 768 c 0
 301 824 381.667 850 473 846 c 0
 577 842.667 638.333 802.333 657 725 c 0
 659.667 713 661.333 696.667 662 676 c 0
 662 644.667 654.333 601 639 545 c 1
 603.667 465 509.333 381 356 293 c 0
 249.333 230.333 184 181.667 160 147 c 1
 508 147 l 1
EndSplineSet
EndChar
StartChar: three
Encoding: 21 51
OldEncoding: 51
Width: 647
Flags: W
Fore
-18 242 m 1
 137 242 l 1
 127 180 l 1
 127 176 l 2
 127 162.667 129.667 151 135 141 c 0
 141.667 129.667 153.333 121 170 115 c 0
 189.333 106.333 214 102 244 102 c 1
 271.333 114 289 123 297 129 c 0
 339 159 367 196 381 240 c 0
 385 252 387 264 387 276 c 0
 387 298.667 380.333 318 367 334 c 1
 342.333 357.333 300.667 369 242 369 c 1
 279 479 l 1
 321.667 479 361 486.667 397 502 c 0
 430.333 516 454.333 539.667 469 573 c 2
 485 608 l 1
 489.667 625.333 492 639 492 649 c 2
 492 662 l 1
 489.333 677.333 481 690 467 700 c 0
 451.667 710 432 715 408 715 c 0
 364 717 329 703.333 303 674 c 1
 280.333 646 262 609.667 248 565 c 1
 98 565 l 1
 116.667 624.333 140.667 673.667 170 713 c 0
 198.667 751.667 244.333 786.333 307 817 c 0
 347.667 837 407 846 485 844 c 0
 546.333 844 591.667 827.667 621 795 c 1
 643 768.333 655 739 657 707 c 1
 654.333 663.667 647 625.333 635 592 c 0
 625 562.667 608 536 584 512 c 0
 567.333 496 537.333 472.667 494 442 c 1
 530.667 414 551.667 384.667 557 354 c 1
 559 324 l 1
 559 292 552.333 255.667 539 215 c 1
 515.667 155 474 99 414 47 c 1
 352.667 -3.66667 271.333 -29 170 -29 c 0
 135.333 -29 98.3333 -22.6667 59 -10 c 0
 24.3333 2.66667 -1.33333 27 -18 63 c 0
 -29.3333 87 -35 111 -35 135 c 2
 -35 147 l 1
 -32.3333 181.667 -26.6667 213.333 -18 242 c 1
EndSplineSet
EndChar
StartChar: four
Encoding: 22 52
OldEncoding: 52
Width: 647
Flags: W
Fore
467 825 m 1
 657 825 l 1
 492 315 l 1
 578 315 l 1
 535 182 l 1
 449 182 l 1
 389 0 l 1
 225 0 l 1
 285 182 l 1
 -45 182 l 1
 0 322 l 1
 467 825 l 1
438 659 m 1
 115 315 l 1
 328 315 l 1
 438 659 l 1
EndSplineSet
EndChar
StartChar: five
Encoding: 23 53
OldEncoding: 53
Width: 647
Flags: W
Fore
-29 215 m 1
 133 215 l 1
 129 172 l 1
 129 164 l 2
 129 149.333 136.667 137 152 127 c 0
 166.667 116.333 189.667 111 221 111 c 0
 263 113 299.333 129.333 330 160 c 0
 360.667 190.667 381.667 226.667 393 268 c 0
 403 298.667 408 324 408 344 c 0
 408 356.667 405.667 367.667 401 377 c 0
 386.333 411.667 354.333 428 305 426 c 0
 260.333 426 223.667 406.333 195 367 c 1
 45 367 l 1
 270 825 l 1
 709 825 l 1
 662 680 l 1
 322 680 l 1
 240 510 l 1
 284.667 530.667 314 543 328 547 c 0
 354.667 553.667 377.667 557 397 557 c 0
 429 557 457 552.333 481 543 c 0
 532.333 523.667 563 489.333 573 440 c 0
 577.667 423.333 580 405 580 385 c 0
 580 353.667 573.667 317.333 561 276 c 0
 543 215.333 509 157.333 459 102 c 1
 416.333 60.6667 377.333 31.3333 342 14 c 0
 301.333 -6 246.667 -19.6667 178 -27 c 1
 127.333 -27 89 -21.3333 63 -10 c 0
 38.3333 1.33333 17.3333 17 0 37 c 0
 -20 59 -33 80.6667 -39 102 c 1
 -43 141 l 1
 -41 162 l 1
 -39 180 -35 197.667 -29 215 c 1
EndSplineSet
EndChar
StartChar: six
Encoding: 24 54
OldEncoding: 54
Width: 647
Flags: W
Fore
666 641 m 1
 512 641 l 1
 512 689.667 488.667 715 442 717 c 0
 407.333 717 376.667 708.667 350 692 c 1
 323.333 677.333 303.667 659.667 291 639 c 1
 268.333 609 250 572 236 528 c 0
 228.667 507.333 225 492.333 225 483 c 1
 254.333 503.667 283 518.667 311 528 c 0
 343 539.333 380.667 545 424 545 c 0
 498.667 545 547 512 569 446 c 0
 576.333 421.333 580 399 580 379 c 0
 580 350.333 573.667 317 561 279 c 0
 542.333 221.667 518.333 174.333 489 137 c 0
 445 81 400 40.6667 354 16 c 0
 303.333 -10.6667 247.333 -25 186 -27 c 0
 124 -29 74.3333 -10.3333 37 29 c 0
 3 65 -14 110.667 -14 166 c 2
 -14 172 l 1
 -7.33333 245.333 10.3333 325.333 39 412 c 0
 70.3333 507.333 101.667 579 133 627 c 0
 172.333 689 223 741.333 285 784 c 0
 342.333 825.333 407 846 479 846 c 1
 524 844 l 1
 599.333 834 644.333 808 659 766 c 0
 667.667 744 672 720.667 672 696 c 0
 672 677.333 670 659 666 641 c 1
193 346 m 0
 173.667 321.333 158.333 293.333 147 262 c 0
 139 240 135 219 135 199 c 0
 135 181 137.667 166.667 143 156 c 0
 153.667 132 177 117 213 111 c 1
 255 111 291.333 123 322 147 c 1
 363.333 183 392 225.333 408 274 c 0
 416 296.667 420 318 420 338 c 0
 420 348.667 418 359.667 414 371 c 0
 398.667 403.667 368 420 322 420 c 1
 299.333 418 277.333 411 256 399 c 1
 232 388.333 211 370.667 193 346 c 0
EndSplineSet
EndChar
StartChar: seven
Encoding: 25 55
OldEncoding: 55
Width: 647
Flags: W
Fore
170 825 m 1
 748 825 l 1
 707 698 l 1
 652.333 651.333 597 599 541 541 c 0
 483 481 435 425.667 397 375 c 0
 346.333 307 307 247.667 279 197 c 0
 239 126.333 207.333 60.6667 184 0 c 1
 20 0 l 1
 56.6667 81.3333 93 152.333 129 213 c 0
 165.667 275 202.667 330.333 240 379 c 0
 281.333 431 324.333 479.333 369 524 c 0
 416.333 573.333 469.333 625.333 528 680 c 1
 123 680 l 1
 170 825 l 1
EndSplineSet
EndChar
StartChar: eight
Encoding: 26 56
OldEncoding: 56
Width: 647
Flags: W
Fore
473 117 m 1
 435 71 388 35.3333 332 10 c 0
 270 -16.6667 214.667 -29 166 -27 c 1
 115.333 -27 69.6667 -13.3333 29 14 c 0
 -11.6667 40 -35 75 -41 119 c 1
 -43 152 l 1
 -43 175.333 -37.6667 204.667 -27 240 c 0
 3.66667 335.333 69.3333 405.667 170 451 c 1
 149.333 472.333 133.667 495 123 519 c 2
 121 524 l 1
 117 537.333 115 550.333 115 563 c 0
 115 582.333 117.667 600 123 616 c 0
 134.333 650 154 685 182 721 c 1
 218 761 257.667 791.667 301 813 c 0
 345.667 835 392.667 846 442 846 c 0
 558 846 627 815.333 649 754 c 0
 660.333 726 666 700.667 666 678 c 0
 666 657.333 662.333 636 655 614 c 0
 644.333 578.667 622.667 544.667 590 512 c 1
 557.333 481.333 523.667 461 489 451 c 1
 530.333 437 555.667 412.333 565 377 c 0
 570.333 361.667 573 344 573 324 c 0
 573 302.667 569 278.667 561 252 c 0
 545 200.667 515.667 155.667 473 117 c 1
430 522 m 1
 450.667 532 468.333 546.333 483 565 c 0
 500.333 586.333 511.333 605 516 621 c 1
 520 651 l 1
 520 664.333 517.333 675.333 512 684 c 0
 500 706.667 473.333 719 432 721 c 1
 389.333 721 353.333 710.667 324 690 c 1
 296 672.667 276.667 647.333 266 614 c 0
 262 602 260 590 260 578 c 0
 260 559.333 264 542.667 272 528 c 0
 285.333 506.667 308 496 340 496 c 0
 376.667 494 406.667 502.667 430 522 c 1
317 147 m 1
 329.667 155.667 342 170 354 190 c 1
 368.667 210.667 379 231.333 385 252 c 0
 391.667 272 395 288.333 395 301 c 0
 395 311.667 393 322 389 332 c 0
 379 365.333 353 383 311 385 c 0
 272.333 385 237 372 205 346 c 0
 179 324.667 158.333 292 143 248 c 0
 135 222.667 131 201.333 131 184 c 1
 135 156 l 1
 151 124.667 176.333 109 211 109 c 1
 249 106.333 284.333 119 317 147 c 1
EndSplineSet
EndChar
StartChar: nine
Encoding: 27 57
OldEncoding: 57
Width: 647
Flags: W
Fore
-27 195 m 1
 133 195 l 1
 129 170 l 1
 129 159.333 132.333 146.333 139 131 c 1
 151 111.667 168 102 190 102 c 0
 253.333 102 304 128 342 180 c 0
 372 222 393.333 260.333 406 295 c 0
 410 309 412 321.333 412 332 c 2
 412 340 l 1
 381.333 313.333 346.333 293 307 279 c 0
 288.333 271.667 269.333 268 250 268 c 0
 230 268 208.667 269.333 186 272 c 1
 111.333 288.667 69.6667 334.667 61 410 c 1
 61 438 l 2
 61 466.667 68 505 82 553 c 0
 102.667 617.667 131.333 670.333 168 711 c 0
 203.333 750.333 245.667 783.667 295 811 c 0
 342.333 837 392 850 444 850 c 1
 483 846 l 1
 503.667 846 527 839.667 553 827 c 0
 580.333 813 603 794 621 770 c 0
 638.333 748.667 647 723.333 647 694 c 2
 647 686 l 1
 649 643 l 1
 649 582.333 636.667 514.667 612 440 c 0
 590.667 376.667 564 314.667 532 254 c 0
 501.333 193.333 470.667 146.333 440 113 c 0
 389.333 55 339.667 17.3333 291 0 c 0
 239.667 -18 192.667 -27 150 -27 c 0
 67.3333 -27 14 -2.33333 -10 47 c 1
 -26.6667 77.6667 -35 108.333 -35 139 c 0
 -35 159.667 -32.3333 178.333 -27 195 c 1
487 674 m 1
 472.333 698.667 444.333 711 403 711 c 0
 368.333 711 331 694.667 291 662 c 1
 262.333 635.333 240.333 599 225 553 c 0
 218.333 529.667 215 511.333 215 498 c 0
 215 477.333 219.667 460 229 446 c 0
 245.667 420.667 272.333 408 309 408 c 0
 345.667 408 380.667 421.667 414 449 c 0
 447.333 476.333 471 511 485 553 c 0
 493.667 579 498 604.333 498 629 c 0
 498 650.333 494.333 665.333 487 674 c 1
EndSplineSet
EndChar
StartChar: colon
Encoding: 28 58
OldEncoding: 58
Width: 354
Flags: W
Fore
82 0 m 0
 56 0 39 8.33333 31 25 c 1
 25.6667 32.3333 23 41.6667 23 53 c 0
 23 62.3333 25 72 29 82 c 0
 35 104.667 48 123.667 68 139 c 1
 85.3333 155.667 107.667 164 135 164 c 0
 160.333 164 178 155.667 188 139 c 1
 195.333 130.333 199 120.333 199 109 c 0
 199 101 197 92 193 82 c 0
 186.333 60.6667 172.667 41.6667 152 25 c 0
 133.333 8.33333 110 8.67362e-19 82 0 c 0
244 496 m 0
 218.667 496 200.667 504 190 520 c 0
 186 528 184 538.333 184 551 c 1
 188 578 l 1
 194 596 207 614.333 227 633 c 1
 246.333 649 269 657 295 657 c 0
 321 657 339.333 649.667 350 635 c 0
 355.333 626.333 358 615.333 358 602 c 1
 354 578 l 1
 346.667 557.333 333 538 313 520 c 1
 293 504 270 496 244 496 c 0
EndSplineSet
EndChar
StartChar: semicolon
Encoding: 29 59
OldEncoding: 59
Width: 399
Flags: W
Fore
264 440 m 0
 235.333 440 217 449 209 467 c 1
 203.667 475.667 201 486.667 201 500 c 1
 205 530 l 1
 213 554 228 575.333 250 594 c 0
 270 612 294.667 621 324 621 c 0
 352 621 371 612 381 594 c 0
 386.333 585.333 389 574.333 389 561 c 0
 389 551 387 540.667 383 530 c 0
 375 506.667 360.667 485.667 340 467 c 1
 317.333 449 292 440 264 440 c 0
252 88 m 0
 232.667 32 198.667 -13.6667 150 -49 c 0
 97.3333 -85.6667 52 -106.333 14 -111 c 1
 10 -82 l 1
 39.3333 -68.6667 64.6667 -55.6667 86 -43 c 0
 105.333 -30.3333 121 -10.6667 133 16 c 1
 113 16 94.6667 22.3333 78 35 c 1
 66.6667 41.6667 61 53.3333 61 70 c 0
 61 81.3333 63.3333 92.6667 68 104 c 0
 76 128.667 90.3333 150 111 168 c 0
 131.667 184.667 154 193 178 193 c 0
 214 193 237.333 183.333 248 164 c 0
 254.667 152.667 258 139.667 258 125 c 0
 258 114.333 256 102 252 88 c 0
EndSplineSet
EndChar
StartChar: less
Encoding: 30 60
OldEncoding: 60
Width: 679
Flags: W
Fore
25 201 m 1
 70 340 l 1
 709 553 l 1
 659 401 l 1
 252 270 l 1
 573 139 l 1
 524 -12 l 1
 25 201 l 1
EndSplineSet
EndChar
StartChar: equal
Encoding: 31 61
OldEncoding: 61
Width: 679
Flags: W
Fore
127 479 m 1
 692 479 l 1
 647 340 l 1
 82 340 l 1
 127 479 l 1
37 201 m 1
 600 201 l 1
 555 57 l 1
 -10 57 l 1
 37 201 l 1
EndSplineSet
EndChar
StartChar: greater
Encoding: 32 62
OldEncoding: 62
Width: 679
Flags: W
Fore
139 553 m 1
 637 340 l 1
 592 201 l 1
 -45 -12 l 1
 2 139 l 1
 412 270 l 1
 88 401 l 1
 139 553 l 1
EndSplineSet
EndChar
StartChar: question
Encoding: 33 63
OldEncoding: 63
Width: 712
Flags: W
Fore
362 233 m 1
 221 233 l 1
 243.667 298.333 270.333 347 301 379 c 1
 331.667 413.667 377.333 449 438 485 c 0
 484.667 511.667 516 552 532 606 c 1
 536.667 617.333 539 628.333 539 639 c 0
 539 657 533.333 672.667 522 686 c 0
 506 705.333 482.333 715 451 715 c 0
 417 715 383.333 702 350 676 c 0
 316 650 290.667 611.667 274 561 c 1
 117 561 l 1
 149.667 661.667 205.667 743.667 285 807 c 1
 347.667 847.667 416.667 868 492 868 c 0
 537.333 868 576.667 861.333 610 848 c 0
 644.667 834 669.333 815.667 684 793 c 1
 706 763.667 717 728.667 717 688 c 0
 717 660 712 632.667 702 606 c 1
 688 558.667 665 517 633 481 c 1
 628.333 474.333 618 464.333 602 451 c 0
 592 441.667 579.667 432.667 565 424 c 1
 553.667 414.667 541.333 407 528 401 c 1
 487 375 l 2
 442.333 345.667 416 327 408 319 c 0
 406 317 404.333 315 403 313 c 0
 386.333 292.333 372.667 265.667 362 233 c 1
137 0 m 1
 193 170 l 1
 367 170 l 1
 311 0 l 1
 137 0 l 1
EndSplineSet
EndChar
StartChar: at
Encoding: 34 64
OldEncoding: 64
Width: 1134
Flags: W
Fore
827 594 m 1
 932 594 l 1
 721 242 l 1
 709 195 l 1
 709 190 l 2
 709 178.667 713 170 721 164 c 0
 726.333 161.333 734.333 160 745 160 c 0
 765.667 160 785 164.667 803 174 c 1
 831 185.333 857.667 201.667 883 223 c 0
 914.333 251 934 272.333 942 287 c 1
 979.333 327.667 1006.67 376 1024 432 c 0
 1033.33 459.333 1038 486.667 1038 514 c 1
 1040 530 l 1
 1040 557.333 1032 586 1016 616 c 0
 998.667 652 975.333 682.333 946 707 c 0
 892.667 750.333 817.667 772 721 772 c 0
 693.667 772 659.333 768.667 618 762 c 0
 574 754 523.667 732 467 696 c 1
 415 665.333 363 626 311 578 c 0
 223.667 498.667 163 405.667 129 299 c 0
 118.333 265.667 113 236.333 113 211 c 2
 113 203 l 2
 113 174.333 115.667 149.667 121 129 c 0
 125 115 131.667 96.6667 141 74 c 1
 179.667 16.6667 241.333 -23 326 -45 c 0
 356 -53 390.667 -57 430 -57 c 0
 510.667 -57 595.333 -42.6667 684 -14 c 1
 688 -106 l 1
 603.333 -142 504.333 -160 391 -160 c 0
 354.333 -160 323.667 -158 299 -154 c 0
 251 -144.667 217.667 -137 199 -131 c 0
 168.333 -121 138.333 -103.333 109 -78 c 0
 74.3333 -50 47 -16.3333 27 23 c 0
 8.33333 58.3333 -2 100.667 -4 150 c 1
 -6 182 l 1
 -6 219.333 -1.33333 252.333 8 281 c 0
 22 325 39.6667 366.667 61 406 c 0
 80.3333 443.333 104.333 480 133 516 c 1
 163 557.333 193.667 591.333 225 618 c 1
 273.667 666 333 712.667 403 758 c 0
 464.333 796.667 533.333 826.667 610 848 c 0
 659.333 861.333 712 868 768 868 c 0
 866.667 868 946.667 845.667 1008 801 c 0
 1102 733 1149 649 1149 549 c 1
 1147 516 l 1
 1143 484.667 1135.33 452.667 1124 420 c 1
 1106.67 361.333 1078 308 1038 260 c 1
 974.667 180 907.333 124 836 92 c 0
 797.333 76 759.667 68 723 68 c 0
 699.667 68 676.333 71.3333 653 78 c 0
 625 86 606 108.333 596 145 c 1
 539.333 109.667 499.667 88 477 80 c 0
 445 68.6667 418.333 63 397 63 c 0
 378.333 63 354.667 70.6667 326 86 c 0
 298 99.3333 279.333 119.667 270 147 c 0
 263.333 168.333 260 187.667 260 205 c 0
 260 223.667 263.333 244 270 266 c 1
 289 307 l 1
 334.333 400.333 399 474 483 528 c 0
 560.333 578.667 626 604 680 604 c 0
 696 604 709 602 719 598 c 0
 761.667 586 784 561.333 786 524 c 1
 827 594 l 1
434 158 m 1
 473.333 158 509.667 168.667 543 190 c 0
 583.667 217.333 617.667 251 645 291 c 0
 674.333 333.667 697 374.667 713 414 c 1
 717 449 l 1
 717 483 700.667 506 668 518 c 1
 649 522 l 1
 630.333 522 609.333 516.667 586 506 c 0
 566 498 542 483 514 461 c 1
 486 437 462.667 412.333 444 387 c 0
 424 358.333 407 327.667 393 295 c 1
 387.667 276.333 385 257.333 385 238 c 1
 389 205 l 1
 395 179.667 410 164 434 158 c 1
EndSplineSet
EndChar
StartChar: A
Encoding: 35 65
OldEncoding: 65
Width: 839
Flags: W
Fore
668 850 m 1
 682 0 l 1
 504 0 l 1
 500 170 l 1
 186 170 l 1
 72 0 l 1
 -106 0 l 1
 465 850 l 1
 668 850 l 1
502 645 m 1
 289 315 l 1
 506 315 l 1
 502 645 l 1
EndSplineSet
EndChar
StartChar: B
Encoding: 36 66
OldEncoding: 66
Width: 839
Flags: W
Fore
-41 0 m 1
 236 850 l 1
 612 850 l 2
 640.667 850 675.667 844.667 717 834 c 1
 752.333 822.667 778.333 806 795 784 c 1
 809 768.667 819.667 749.667 827 727 c 1
 829 711 l 1
 827 680 l 1
 821 627 l 1
 811 595.667 794 565.667 770 537 c 1
 748 506.333 718.667 478.333 682 453 c 1
 702.667 433.667 717 408.333 725 377 c 0
 729 357.667 731 339.333 731 322 c 0
 731 307.333 729 291.333 725 274 c 0
 712.333 228.667 692.667 187.333 666 150 c 0
 640.667 115.333 607.667 84.3333 567 57 c 0
 509.667 19 434.667 0 342 0 c 2
 -41 0 l 1
362 705 m 1
 299 510 l 1
 498 510 l 2
 536.667 510 568.667 519 594 537 c 0
 620 554.333 637 577.333 645 606 c 0
 649 620.667 651 632.333 651 641 c 0
 651 683.667 623.667 705 569 705 c 2
 362 705 l 1
252 365 m 1
 180 145 l 1
 385 145 l 2
 420.333 145 453 152 483 166 c 0
 515 180.667 539 213.333 555 264 c 0
 560.333 279.333 563 293.667 563 307 c 0
 563 325 557.667 337.333 547 344 c 0
 527.667 358 499 365 461 365 c 2
 252 365 l 1
EndSplineSet
EndChar
StartChar: C
Encoding: 37 67
OldEncoding: 67
Width: 839
Flags: W
Fore
590 291 m 1
 758 291 l 1
 743.333 249.667 718 206.667 682 162 c 0
 648.667 119.333 610.333 83.6667 567 55 c 0
 528.333 31 486 12.6667 440 0 c 0
 382.667 -18 333 -27 291 -27 c 0
 197.667 -29 127.333 -3 80 51 c 0
 38.6667 98.3333 18 160 18 236 c 2
 18 268 l 1
 19.3333 300 30.3333 350 51 418 c 1
 73 483.333 97.6667 537.333 125 580 c 0
 241.667 768 395.333 862 586 862 c 0
 678 862 747.667 840.333 795 797 c 0
 837 759 858 709.667 858 649 c 0
 858 621.667 854 592.333 846 561 c 1
 678 561 l 1
 682 594 l 1
 678 627 l 1
 674 651 659 672 633 690 c 1
 607 710 568 719 516 717 c 0
 482.667 717 443.667 703.333 399 676 c 1
 361 649.333 328.333 618 301 582 c 0
 279 551.333 253.667 502 225 434 c 1
 215 399.333 207 367.333 201 338 c 0
 197 315.333 195 294.667 195 276 c 2
 195 256 l 1
 205 199.333 229.333 159.667 268 137 c 1
 287.333 127.667 308.667 123 332 123 c 0
 348 123 373.333 126.333 408 133 c 1
 463.333 146.333 504 167.667 530 197 c 0
 551.333 221 571.333 252.333 590 291 c 1
EndSplineSet
EndChar
StartChar: D
Encoding: 38 68
OldEncoding: 68
Width: 839
Flags: W
Fore
-47 0 m 1
 229 850 l 1
 625 850 l 2
 657 850 687 843.667 715 831 c 0
 743 818.333 767.333 797.333 788 768 c 0
 808.667 739.333 823 700.333 831 651 c 0
 833 643 834 630 834 612 c 0
 834 569.333 825 519.667 807 463 c 0
 785 396.333 757.667 335 725 279 c 0
 692.333 225.667 659.667 182.667 627 150 c 1
 587.667 108 539 71.6667 481 41 c 0
 429.667 13.6667 381.333 -8.67362e-19 336 0 c 2
 -47 0 l 1
356 705 m 1
 174 145 l 1
 313 145 l 2
 400.333 145 474.333 183.333 535 260 c 1
 567 303.333 596.333 363.333 623 440 c 1
 639 494 647 538.333 647 573 c 0
 647 593.667 645 611.667 641 627 c 0
 631 656.333 616 676.667 596 688 c 1
 570 699.333 542.667 705 514 705 c 2
 356 705 l 1
EndSplineSet
EndChar
StartChar: E
Encoding: 39 69
OldEncoding: 69
Width: 776
Flags: W
Fore
231 850 m 1
 846 850 l 1
 799 705 l 1
 358 705 l 1
 295 510 l 1
 702 510 l 1
 655 365 l 1
 248 365 l 1
 176 145 l 1
 637 145 l 1
 590 0 l 1
 -45 0 l 1
 231 850 l 1
EndSplineSet
EndChar
StartChar: F
Encoding: 40 70
OldEncoding: 70
Width: 712
Flags: W
Fore
225 850 m 1
 821 850 l 1
 774 705 l 1
 352 705 l 1
 289 510 l 1
 662 510 l 1
 614 365 l 1
 242 365 l 1
 123 0 l 1
 -51 0 l 1
 225 850 l 1
EndSplineSet
EndChar
StartChar: G
Encoding: 41 71
OldEncoding: 71
Width: 905
Flags: W
Fore
455 311 m 1
 500 457 l 1
 840 457 l 1
 690 -4 l 1
 588 -4 l 1
 600 102 l 1
 559.333 68 532 47 518 39 c 1
 496.667 22.3333 464.667 7.33333 422 -6 c 0
 373.333 -22 326.333 -29 281 -27 c 0
 251.667 -27 220.667 -21.3333 188 -10 c 1
 162.667 -3.33333 143.667 4.66667 131 14 c 0
 116.333 26 103.333 38.3333 92 51 c 1
 82.6667 65 74.6667 75.3333 68 82 c 1
 40 124.667 25 174.333 23 231 c 1
 23 252 l 2
 23 302.667 32.3333 358 51 418 c 0
 81 510.667 129 594 195 668 c 1
 263 746.667 340 802 426 834 c 0
 475.333 852.667 532.667 862 598 862 c 0
 651.333 862 699.667 856 743 844 c 0
 785 831.333 819.333 806.667 846 770 c 1
 873.333 728.667 887 685 887 639 c 0
 887 619.667 885 600 881 580 c 1
 721 580 l 1
 721 592 l 2
 721 633.333 707.333 664 680 684 c 0
 648.667 707.333 608.333 719 559 719 c 0
 509 719 453.667 703.333 393 672 c 1
 353.667 644.667 319 607.667 289 561 c 0
 263 523 239 474.667 217 416 c 1
 203.667 373.333 197 335 197 301 c 1
 199 268 l 1
 215 176 262.667 125 342 115 c 1
 430 115 503 141.667 561 195 c 1
 600.333 227 629 265.667 647 311 c 1
 455 311 l 1
EndSplineSet
EndChar
StartChar: H
Encoding: 42 72
OldEncoding: 72
Width: 839
Flags: W
Fore
-55 0 m 1
 219 850 l 1
 393 850 l 1
 291 530 l 1
 627 530 l 1
 729 850 l 1
 905 850 l 1
 629 0 l 1
 455 0 l 1
 580 385 l 1
 244 385 l 1
 117 0 l 1
 -55 0 l 1
EndSplineSet
EndChar
StartChar: I
Encoding: 43 73
OldEncoding: 73
Width: 323
Flags: W
Fore
387 850 m 1
 111 0 l 1
 -61 0 l 1
 213 850 l 1
 387 850 l 1
EndSplineSet
EndChar
StartChar: J
Encoding: 44 74
OldEncoding: 74
Width: 647
Flags: W
Fore
535 850 m 1
 709 850 l 1
 498 203 l 2
 480 147 443.667 97 389 53 c 0
 327 1.66667 255.333 -25 174 -27 c 0
 104 -29 49.3333 -18.6667 10 4 c 0
 -12 18 -27 36.3333 -35 59 c 0
 -43 78.3333 -47 99.6667 -47 123 c 2
 -47 133 l 1
 -44.3333 168.333 -39.6667 196.333 -33 217 c 2
 -2 313 l 1
 172 313 l 1
 145 227 l 2
 139.667 211 137 194.667 137 178 c 1
 139 154 l 1
 143 130 165.667 119 207 121 c 0
 239.667 121 266.333 131.333 287 152 c 0
 306.333 171.333 320 192.333 328 215 c 1
 535 850 l 1
EndSplineSet
EndChar
StartChar: K
Encoding: 45 75
OldEncoding: 75
Width: 839
Flags: W
Fore
-51 0 m 1
 225 850 l 1
 399 850 l 1
 279 477 l 1
 733 850 l 1
 940 850 l 1
 483 481 l 1
 698 0 l 1
 487 0 l 1
 334 369 l 1
 211 272 l 1
 123 0 l 1
 -51 0 l 1
EndSplineSet
EndChar
StartChar: L
Encoding: 46 76
OldEncoding: 76
Width: 712
Flags: W
Fore
231 850 m 1
 408 850 l 1
 178 145 l 1
 584 145 l 1
 537 0 l 1
 -45 0 l 1
 231 850 l 1
EndSplineSet
EndChar
StartChar: M
Encoding: 47 77
OldEncoding: 77
Width: 970
Flags: W
Fore
440 0 m 1
 264 0 l 1
 338 688 l 1
 115 0 l 1
 -61 0 l 1
 215 850 l 1
 469 850 l 1
 418 197 l 1
 788 850 l 1
 1042 850 l 1
 768 0 l 1
 592 0 l 1
 813 688 l 1
 440 0 l 1
EndSplineSet
EndChar
StartChar: N
Encoding: 48 78
OldEncoding: 78
Width: 839
Flags: W
Fore
219 850 m 1
 391 850 l 1
 545 266 l 1
 735 850 l 1
 909 850 l 1
 633 0 l 1
 461 0 l 1
 309 592 l 1
 117 0 l 1
 -55 0 l 1
 219 850 l 1
EndSplineSet
EndChar
StartChar: O
Encoding: 49 79
OldEncoding: 79
Width: 905
Flags: W
Fore
866 418 m 0
 847.333 360 815.333 298.333 770 233 c 0
 725.333 167.667 679 116.667 631 80 c 0
 539.667 8.66667 433.667 -27 313 -27 c 0
 191.667 -27 108.333 8.66667 63 80 c 0
 38.3333 120 25 171 23 233 c 1
 23 256 l 2
 23 310 31.6667 364 49 418 c 0
 72.3333 488 103.667 550 143 604 c 0
 187.667 668 234.333 719.333 283 758 c 1
 376.333 828.667 482.667 864 602 864 c 0
 633.333 864 666.667 860.667 702 854 c 0
 736 846 764.667 833.667 788 817 c 1
 812 803.667 832.667 784 850 758 c 0
 876.667 717.333 891 666 893 604 c 1
 893 584 l 2
 893 527.333 884 472 866 418 c 0
362 125 m 0
 424 125 482.333 144 537 182 c 1
 573.667 209.333 605.667 243 633 283 c 1
 662.333 331 684 376 698 418 c 0
 713.333 466 721 511 721 553 c 0
 719 597 708 630.333 688 653 c 1
 657.333 691.667 612.333 711 553 711 c 0
 490.333 711 431.667 691.667 377 653 c 0
 343 629.667 311.667 597 283 555 c 0
 253 510.333 231 464.667 217 418 c 0
 203.667 377.333 197 336.333 197 295 c 2
 197 285 l 2
 197 240.333 205.667 206 223 182 c 0
 253 144 299.333 125 362 125 c 0
EndSplineSet
EndChar
StartChar: P
Encoding: 50 80
OldEncoding: 80
Width: 776
Flags: W
Fore
-49 0 m 1
 227 850 l 1
 606 850 l 2
 658 850 703 841.667 741 825 c 1
 781.667 810.333 805 773 811 713 c 1
 811 696 l 2
 811 663.333 804.333 626.667 791 586 c 0
 770.333 524 748.333 480.333 725 455 c 1
 645 353.667 547.333 303 432 303 c 2
 225 303 l 1
 127 0 l 1
 -49 0 l 1
356 705 m 1
 272 449 l 1
 469 449 l 2
 509 449 548.667 472.667 588 520 c 1
 604 551 l 1
 610.667 562.333 617 576.667 623 594 c 0
 627 604 630.333 619 633 639 c 1
 631 683 601 705 543 705 c 2
 356 705 l 1
EndSplineSet
EndChar
StartChar: Q
Encoding: 51 81
OldEncoding: 81
Width: 905
Flags: W
Fore
686 119 m 1
 750 31 l 1
 629 -63 l 1
 561 31 l 1
 483.667 -7.66667 404 -27 322 -27 c 0
 201.333 -27 118.667 8.66667 74 80 c 1
 47.3333 118.667 33 169 31 231 c 1
 31 252 l 2
 31 308.667 39.6667 364 57 418 c 1
 82.3333 489.333 114.667 552 154 606 c 1
 194.667 665.333 241 716 293 758 c 1
 384.333 828.667 490 864 610 864 c 0
 670 864 720.667 855.333 762 838 c 0
 806.667 818 838.667 791.333 858 758 c 0
 884 716.667 899 665.333 903 604 c 1
 903 590 l 2
 903 535.333 893.333 478 874 418 c 0
 854 355.333 829 301.333 799 256 c 0
 765.667 204.667 728 159 686 119 c 1
475 147 m 1
 414 229 l 1
 537 326 l 1
 602 233 l 1
 648.667 285 683.667 346.667 707 418 c 0
 720.333 457.333 727 501 727 549 c 2
 727 555 l 1
 725 597 714.667 629.667 696 653 c 1
 670 691.667 625 711 561 711 c 0
 498.333 711 439.667 691.667 385 653 c 0
 353 629.667 322.333 596.333 293 553 c 0
 267 515 243.667 470 223 418 c 1
 211 375.333 205 335 205 297 c 2
 205 285 l 1
 207 239 216.333 204.667 233 182 c 0
 263 144 309 125 371 125 c 0
 405.667 125 440.333 132.333 475 147 c 1
EndSplineSet
EndChar
StartChar: R
Encoding: 52 82
OldEncoding: 82
Width: 839
Flags: W
Fore
-45 0 m 1
 231 850 l 1
 705 850 l 2
 729.667 850 754.667 844.667 780 834 c 0
 802 824 821.333 808.667 838 788 c 1
 848.667 768.667 854 747.667 854 725 c 2
 854 715 l 1
 852 682 l 1
 848 647 l 1
 840 614 l 1
 824.667 578 813.667 554.333 807 543 c 0
 787 509.667 765 483.667 741 465 c 0
 721.667 448.333 690.333 430 647 410 c 1
 670 393 l 2
 680.667 385 688 378.333 692 373 c 0
 700.667 361.667 705.667 350.667 707 340 c 1
 709 319 l 1
 705 291 l 1
 680 199 l 1
 651 102 l 1
 645.667 89.3333 643 77.3333 643 66 c 1
 645 57 l 2
 647 47 651.667 38.3333 659 31 c 1
 651 0 l 1
 463 0 l 1
 461 31 l 1
 461 49.6667 463 66 467 80 c 1
 520 250 l 1
 524 279 l 1
 522 299 l 1
 514.667 313 506 322.667 496 328 c 0
 482.667 333.333 465.333 336 444 336 c 2
 240 336 l 1
 131 0 l 1
 -45 0 l 1
360 705 m 1
 287 481 l 1
 524 481 l 2
 548 481 575.333 492 606 514 c 1
 634 536 655.333 567.333 670 608 c 0
 675.333 621.333 678 634.333 678 647 c 0
 678 685.667 650.667 705 596 705 c 2
 360 705 l 1
EndSplineSet
EndChar
StartChar: S
Encoding: 53 83
OldEncoding: 83
Width: 776
Flags: W
Fore
768 590 m 1
 600 590 l 1
 604 602 606 614.333 606 627 c 1
 602 655 l 1
 598 675 585 692.333 563 707 c 1
 541 719 510.333 725 471 725 c 0
 374.333 725 313 692.333 287 627 c 1
 279.667 603.667 276 589.333 276 584 c 0
 276 576.667 277 572.333 279 571 c 1
 283.667 559.667 294.333 550.333 311 543 c 1
 313 536.333 326.667 530 352 524 c 1
 363.333 518.667 392.667 512 440 504 c 1
 508 489 l 1
 596.667 473 654 445.333 680 406 c 0
 693.333 386 700 362 700 334 c 0
 700 309.333 695.333 283.333 686 256 c 0
 671.333 211.333 648 169 616 129 c 1
 586 89 550 57 508 33 c 0
 437.333 -6.33333 341.667 -27 221 -29 c 0
 195.667 -29 163 -23.3333 123 -12 c 0
 81.6667 -1.33333 51.6667 13.6667 33 33 c 1
 3.66667 59 -14 91.6667 -20 131 c 0
 -23.3333 152.333 -25 169.333 -25 182 c 0
 -25 207.333 -22 230.667 -16 252 c 1
 154 252 l 1
 149.333 238 147 225.667 147 215 c 0
 147 197 152 180 162 164 c 0
 184 131.333 231.667 115 305 115 c 0
 331 115 358.333 119 387 127 c 1
 413 132.333 435.667 141.333 455 154 c 0
 480.333 171.333 498 196.333 508 229 c 1
 512 262 l 1
 512 276.667 509.333 288.333 504 297 c 0
 496 310.333 481.667 321.333 461 330 c 0
 427 342 397 350 371 354 c 2
 272 373 l 2
 238.667 380.333 215 387 201 393 c 0
 177 401.667 155.667 416 137 436 c 0
 119.667 454.667 109.333 480 106 512 c 1
 106 532 l 2
 106 563.333 112.333 595.667 125 629 c 0
 153.667 698.333 202 755.667 270 801 c 1
 335.333 841.667 418.667 862 520 862 c 0
 576 862 625.333 856 668 844 c 0
 717.333 830.667 752 801.333 772 756 c 0
 780 739.333 784 716.667 784 688 c 0
 784 660 778.667 627.333 768 590 c 1
EndSplineSet
EndChar
StartChar: T
Encoding: 54 84
OldEncoding: 84
Width: 712
Flags: W
Fore
156 850 m 1
 836 850 l 1
 788 705 l 1
 543 705 l 1
 311 0 l 1
 137 0 l 1
 367 705 l 1
 109 705 l 1
 156 850 l 1
EndSplineSet
EndChar
StartChar: U
Encoding: 55 85
OldEncoding: 85
Width: 839
Flags: W
Fore
731 850 m 1
 905 850 l 1
 715 264 l 2
 675 141.333 593.667 56 471 8 c 0
 409.667 -15.3333 348.333 -27 287 -27 c 0
 231.667 -27 179.667 -17.3333 131 2 c 1
 61.6667 48.6667 27 107.333 27 178 c 0
 27 202 32.3333 230.667 43 264 c 2
 231 850 l 1
 408 850 l 1
 217 262 l 1
 213 251.333 211 235.667 211 215 c 0
 211 195 213.667 178.667 219 166 c 0
 233 138.667 270.667 125 332 125 c 0
 394.667 125 441.667 138.667 473 166 c 0
 505 192 527.667 224 541 262 c 1
 731 850 l 1
EndSplineSet
EndChar
StartChar: V
Encoding: 56 86
OldEncoding: 86
Width: 776
Flags: W
Fore
717 850 m 1
 893 850 l 1
 328 0 l 1
 178 0 l 1
 168 850 l 1
 342 850 l 1
 322 209 l 1
 717 850 l 1
EndSplineSet
EndChar
StartChar: W
Encoding: 57 87
OldEncoding: 87
Width: 1099
Flags: W
Fore
154 850 m 1
 340 850 l 1
 264 213 l 1
 598 850 l 1
 780 850 l 1
 698 205 l 1
 1040 850 l 1
 1223 850 l 1
 711 0 l 1
 553 0 l 1
 623 647 l 1
 272 0 l 1
 115 0 l 1
 154 850 l 1
EndSplineSet
EndChar
StartChar: X
Encoding: 58 88
OldEncoding: 88
Width: 776
Flags: W
Fore
176 850 m 1
 383 850 l 1
 442 575 l 1
 688 850 l 1
 893 850 l 1
 496 434 l 1
 623 0 l 1
 418 0 l 1
 350 289 l 1
 94 0 l 1
 -111 0 l 1
 297 428 l 1
 176 850 l 1
EndSplineSet
EndChar
StartChar: Y
Encoding: 59 89
OldEncoding: 89
Width: 776
Flags: W
Fore
700 850 m 1
 897 850 l 1
 451 315 l 1
 348 0 l 1
 174 0 l 1
 276 315 l 1
 170 850 l 1
 365 850 l 1
 420 483 l 1
 700 850 l 1
EndSplineSet
EndChar
StartChar: Z
Encoding: 60 90
OldEncoding: 90
Width: 712
Flags: W
Fore
174 850 m 1
 813 850 l 1
 766 705 l 1
 150 145 l 1
 584 145 l 1
 537 0 l 1
 -102 0 l 1
 -55 145 l 1
 559 702 l 1
 127 705 l 1
 174 850 l 1
EndSplineSet
EndChar
StartChar: bracketleft
Encoding: 61 91
OldEncoding: 91
Width: 387
Flags: W
Fore
498 733 m 1
 369 733 l 1
 92 -115 l 1
 221 -115 l 1
 180 -236 l 1
 -98 -236 l 1
 254 850 l 1
 535 850 l 1
 498 733 l 1
EndSplineSet
EndChar
StartChar: backslash
Encoding: 62 92
OldEncoding: 92
Width: 323
Flags: W
Fore
125 825 m 1
 213 825 l 1
 199 -25 l 1
 113 -25 l 1
 125 825 l 1
EndSplineSet
EndChar
StartChar: bracketright
Encoding: 63 93
OldEncoding: 93
Width: 387
Flags: W
Fore
160 733 m 1
 197 850 l 1
 479 850 l 1
 127 -236 l 1
 -156 -236 l 1
 -117 -115 l 1
 14 -115 l 1
 289 733 l 1
 160 733 l 1
EndSplineSet
EndChar
StartChar: asciicircum
Encoding: 64 94
OldEncoding: 94
Width: 679
Flags: W
Fore
-8 315 m 1
 346 811 l 1
 492 811 l 1
 526 315 l 1
 395 315 l 1
 375 664 l 1
 123 315 l 1
 -8 315 l 1
EndSplineSet
EndChar
StartChar: underscore
Encoding: 65 95
OldEncoding: 95
Width: 647
Flags: W
Fore
686 -152 m 1
 659 -233 l 1
 -41 -233 l 1
 -14 -152 l 1
 686 -152 l 1
EndSplineSet
EndChar
StartChar: grave
Encoding: 66 96
OldEncoding: 96
Width: 274
Flags: W
Fore
23 649 m 0
 41 705 75 750.667 125 786 c 0
 177.667 824 222.667 844.667 260 848 c 1
 264 819 l 1
 226.667 802.333 201.333 789.333 188 780 c 0
 170.667 768.667 154.333 749 139 721 c 1
 161 721 180.333 714.667 197 702 c 0
 207.667 695.333 213 684 213 668 c 0
 213 656.667 211 645 207 633 c 0
 199.667 611 185.333 589.667 164 569 c 1
 142.667 553 120 545 96 545 c 0
 60.6667 545 37.6667 554.333 27 573 c 0
 19.6667 584.333 16 597.333 16 612 c 0
 16 623.333 18.3333 635.667 23 649 c 0
EndSplineSet
EndChar
StartChar: a
Encoding: 67 97
OldEncoding: 97
Width: 647
Flags: W
Fore
510 0 m 1
 338 0 l 1
 334 6 332 14.3333 332 25 c 0
 332 37.6667 334.667 50.3333 340 63 c 1
 310 40.3333 276 20 238 2 c 0
 194 -17.3333 143.333 -27 86 -27 c 1
 8 -18.3333 -31 18.6667 -31 84 c 0
 -31 108 -25.3333 136 -14 168 c 0
 4.66667 220.667 33.3333 264.333 72 299 c 0
 110 333 163.667 355.667 233 367 c 1
 285.667 369 343.333 378.333 406 395 c 1
 437.333 409 459 433 471 467 c 1
 473 479 l 1
 473 492.333 468.333 502.667 459 510 c 0
 445 519.333 419 524 381 524 c 0
 337.667 522 307 512 289 494 c 0
 267.667 474.667 252 450.667 242 422 c 1
 86 422 l 1
 137.333 568 248.667 641 420 641 c 0
 482 641 529 633.333 561 618 c 0
 606.333 598 629 563.333 629 514 c 0
 629 492 624.667 468 616 442 c 2
 504 96 l 1
 500 70 l 1
 500 53.3333 505.333 37.6667 516 23 c 1
 510 0 l 1
403 262 m 1
 416 297 l 1
 395.333 288.333 364 280 322 272 c 1
 254 264 l 2
 232 262 210.667 253.333 190 238 c 0
 170 221.333 157.333 203.333 152 184 c 1
 150 162 l 1
 150 158 l 2
 150 147.333 152 139 156 133 c 0
 160 125 168.667 119 182 115 c 0
 195.333 111 214.667 109 240 109 c 1
 287.333 115 323.333 132 348 160 c 1
 370 182.667 388.333 216.667 403 262 c 1
EndSplineSet
EndChar
StartChar: b
Encoding: 68 98
OldEncoding: 98
Width: 712
Flags: W
Fore
-63 0 m 1
 213 850 l 1
 373 850 l 1
 274 545 l 1
 326.667 609 397.667 641 487 641 c 0
 590.333 639 647 592 657 500 c 1
 659 453 l 1
 659 401.667 652.333 355.667 639 315 c 0
 615 247.667 578 182.333 528 119 c 0
 504 87 476 59 444 35 c 1
 420 15 390 -0.666667 354 -12 c 0
 324.667 -22 290.667 -27 252 -27 c 0
 188 -25 143.667 5 119 63 c 1
 98 0 l 1
 -63 0 l 1
397 500 m 0
 351.667 500 308 476 266 428 c 0
 234.667 390.667 211.667 349.667 197 305 c 0
 187 278.333 182 249.667 182 219 c 1
 186 182 l 1
 196.667 136 225.333 113 272 113 c 0
 322 113 365.667 136 403 182 c 0
 433 218 455.667 259 471 305 c 1
 480.333 339 485 367 485 389 c 1
 481 428 l 1
 479 453.333 470.333 471.667 455 483 c 1
 435.667 494.333 416.333 500 397 500 c 0
EndSplineSet
EndChar
StartChar: c
Encoding: 69 99
OldEncoding: 99
Width: 647
Flags: W
Fore
637 395 m 1
 481 395 l 1
 481 422 l 2
 481 450.667 476.333 469.667 467 479 c 0
 451.667 493 427 500 393 500 c 0
 339.667 502 292.667 471.333 252 408 c 1
 242 387 l 1
 223 350 l 1
 205 301 l 1
 194.333 269.667 188 243.667 186 223 c 1
 186 203 l 2
 186 169 192.333 145.667 205 133 c 0
 219 119 240 111 268 109 c 1
 298.667 109 325.333 115.667 348 129 c 0
 372.667 143 398.667 173.667 426 221 c 1
 580 221 l 1
 566 180.333 542.667 144.333 510 113 c 0
 470 73.6667 439.333 46.3333 418 31 c 0
 389.333 11.6667 360 -2.66667 330 -12 c 0
 296 -22 257.667 -27 215 -27 c 0
 154.333 -29 108 -16 76 12 c 0
 45.3333 38.6667 25.3333 71.6667 16 111 c 0
 12 129 10 148 10 168 c 0
 10 186 12 203 16 219 c 1
 17.3333 235.667 25 264.333 39 305 c 1
 57.6667 367 84.3333 419.667 119 463 c 0
 163 517.667 199.667 556.667 229 580 c 0
 265 606.667 298 623 328 629 c 0
 365.333 637 402.667 641 440 641 c 0
 514 643 566 631.333 596 606 c 1
 622 588.667 637 556.667 641 510 c 1
 645 461 l 1
 645 433.667 642.333 411.667 637 395 c 1
EndSplineSet
EndChar
StartChar: d
Encoding: 70 100
OldEncoding: 100
Width: 712
Flags: W
Fore
778 850 m 1
 502 -4 l 1
 338 -4 l 1
 358 63 l 1
 331.333 35 299.333 13.3333 262 -2 c 0
 222.667 -18.6667 191.333 -27 168 -27 c 0
 134.667 -29 104 -24 76 -12 c 0
 50 -2.66667 30 13 16 35 c 0
 0.666667 57 -8 85 -10 119 c 1
 -14 141 -16 163.333 -16 186 c 0
 -16 221.333 -10.6667 257.667 0 295 c 0
 24 372.333 58 440 102 498 c 0
 173.333 591.333 261.667 639 367 641 c 0
 459 641 508 609 514 545 c 1
 614 850 l 1
 778 850 l 1
367 502 m 0
 320.333 502 275 478 231 430 c 1
 201 388.667 180 347.667 168 307 c 0
 157.333 271.667 152 239 152 209 c 2
 152 182 l 1
 162 136 191.333 113 240 113 c 0
 290.667 113 334.333 136 371 182 c 0
 400.333 217.333 422.667 259 438 307 c 0
 448 335 453 365 453 397 c 1
 451 430 l 1
 439.667 478 411.667 502 367 502 c 0
EndSplineSet
EndChar
StartChar: e
Encoding: 71 101
OldEncoding: 101
Width: 647
Flags: W
Fore
598 264 m 1
 176 264 l 1
 166.667 235.333 162 210 162 188 c 0
 162 180 163.333 172 166 164 c 0
 173.333 142.667 187 127.667 207 119 c 0
 226.333 110.333 251.667 106 283 106 c 1
 314.333 114.667 338 123.667 354 133 c 0
 373.333 145.667 388.333 160.667 399 178 c 1
 563 178 l 1
 539.667 136.667 507 101.333 465 72 c 1
 421 38.6667 377.333 14.6667 334 0 c 1
 287.333 -18 245 -27 207 -27 c 0
 154.333 -27 104.333 -11.3333 57 20 c 1
 34.3333 41.3333 18.6667 64 10 88 c 0
 0.666667 113.333 -4 139.333 -4 166 c 2
 -4 172 l 1
 -2 199.333 2 224.667 8 248 c 1
 28 308.667 44.3333 353.667 57 383 c 1
 93 457 134.667 513.667 182 553 c 1
 225.333 591 267.667 615.667 309 627 c 0
 345.667 636.333 384.667 641 426 641 c 0
 482.667 641 527.667 629.333 561 606 c 0
 594.333 582 616.333 552.667 627 518 c 0
 632.333 498.667 635 474.667 635 446 c 2
 635 434 l 1
 632.333 397.333 629 370 625 352 c 1
 598 264 l 1
213 375 m 1
 465 375 l 1
 470.333 391 473 408.667 473 428 c 1
 469 463 l 1
 460.333 491.667 434.333 506 391 506 c 0
 346.333 508 308 495 276 467 c 0
 243.333 437.667 222.333 407 213 375 c 1
EndSplineSet
EndChar
StartChar: f
Encoding: 72 102
OldEncoding: 102
Width: 387
Flags: W
Fore
45 510 m 1
 80 618 l 1
 168 618 l 1
 193 692 l 2
 209.667 742 234.667 781 268 809 c 1
 303.333 836.333 346.333 850 397 850 c 2
 500 850 l 1
 461 727 l 1
 403 727 l 2
 378.333 727 362 712.667 354 684 c 1
 334 618 l 1
 430 618 l 1
 395 510 l 1
 299 510 l 1
 131 0 l 1
 -33 0 l 1
 133 510 l 1
 45 510 l 1
EndSplineSet
EndChar
StartChar: g
Encoding: 73 103
OldEncoding: 103
Width: 712
Flags: W
Fore
621 631 m 1
 774 631 l 1
 565 -16 l 1
 553 -54.6667 532 -91.6667 502 -127 c 1
 471.333 -159.667 437.667 -186.333 401 -207 c 0
 339 -241.667 249 -258 131 -256 c 0
 71.6667 -254 25.3333 -233.667 -8 -195 c 0
 -30 -171 -41 -144.333 -41 -115 c 0
 -41 -101.667 -39 -88 -35 -74 c 1
 135 -74 l 1
 133 -90 l 1
 133 -115.333 159 -133 211 -143 c 1
 257 -143 299.333 -130.667 338 -106 c 0
 372.667 -83.3333 396 -55.6667 408 -23 c 1
 436 66 l 1
 416.667 48.6667 395.667 32 373 16 c 0
 353.667 2 333 -8 311 -14 c 1
 289.667 -22.6667 265.333 -27 238 -27 c 0
 194 -27 161.667 -22 141 -12 c 0
 117.667 -1.33333 97.3333 17 80 43 c 1
 66 60.3333 57 83.6667 53 113 c 1
 51 158 l 1
 53 199 l 1
 54.3333 223.667 61.3333 255.667 74 295 c 0
 92 347 116.333 397.333 147 446 c 0
 178.333 493.333 214.667 533 256 565 c 0
 318.667 615.667 385.667 641 457 641 c 0
 482.333 641 501.333 638.333 514 633 c 0
 522.667 629 534.333 621.333 549 610 c 1
 569 582 l 1
 590 537 l 1
 621 631 l 1
432 494 m 0
 380 494 334.333 470.667 295 424 c 1
 265 390.667 240.333 349 221 299 c 1
 214.333 269 211 242.333 211 219 c 1
 213 176 l 1
 225 128 256.333 104 307 104 c 0
 360.333 104 406.667 128 446 176 c 1
 475.333 208.667 498 249.667 514 299 c 0
 524.667 332.333 530 362.333 530 389 c 1
 526 424 l 1
 514 470.667 482.667 494 432 494 c 0
EndSplineSet
EndChar
StartChar: h
Encoding: 74 104
OldEncoding: 104
Width: 712
Flags: W
Fore
367 850 m 1
 270 549 l 1
 332.667 610.333 408 641 496 641 c 0
 550.667 641 594.333 626.667 627 598 c 1
 645.667 579.333 655 554.667 655 524 c 0
 655 506 651 485 643 461 c 2
 494 0 l 1
 330 0 l 1
 459 399 l 2
 464.333 415.667 467 432.333 467 449 c 1
 465 465 l 2
 463 481 445.333 492 412 498 c 1
 372.667 498 335 487.667 299 467 c 1
 264.333 444.333 239.667 411.667 225 369 c 1
 104 0 l 1
 -59 0 l 1
 217 850 l 1
 367 850 l 1
EndSplineSet
EndChar
StartChar: i
Encoding: 75 105
OldEncoding: 105
Width: 323
Flags: W
Fore
170 705 m 1
 217 850 l 1
 381 850 l 1
 334 705 l 1
 170 705 l 1
-59 0 m 1
 145 631 l 1
 309 631 l 1
 104 0 l 1
 -59 0 l 1
EndSplineSet
EndChar
StartChar: j
Encoding: 76 106
OldEncoding: 106
Width: 323
Flags: W
Fore
215 705 m 1
 262 850 l 1
 424 850 l 1
 377 705 l 1
 215 705 l 1
-39 -76 m 2
 190 631 l 1
 352 631 l 1
 111 -117 l 1
 103.667 -137.667 93.3333 -156.667 80 -174 c 0
 64.6667 -194.667 49 -210.333 33 -221 c 1
 14.3333 -235.667 -5 -244 -25 -246 c 0
 -70.3333 -252.667 -120 -256 -174 -256 c 1
 -129 -121 l 1
 -99 -121 -78.6667 -118.333 -68 -113 c 0
 -54.6667 -107 -45 -94.6667 -39 -76 c 2
EndSplineSet
EndChar
StartChar: k
Encoding: 77 107
OldEncoding: 107
Width: 647
Flags: W
Fore
209 850 m 1
 369 850 l 1
 217 385 l 1
 506 631 l 1
 692 631 l 1
 401 391 l 1
 502 0 l 1
 307 0 l 1
 250 270 l 1
 158 197 l 1
 94 0 l 1
 -68 0 l 1
 209 850 l 1
EndSplineSet
EndChar
StartChar: l
Encoding: 78 108
OldEncoding: 108
Width: 323
Flags: W
Fore
217 850 m 1
 381 850 l 1
 104 0 l 1
 -59 0 l 1
 217 850 l 1
EndSplineSet
EndChar
StartChar: m
Encoding: 79 109
OldEncoding: 109
Width: 1036
Flags: W
Fore
129 0 m 1
 -33 0 l 1
 170 631 l 1
 336 631 l 1
 303 537 l 1
 342.333 575 378 601.333 410 616 c 1
 441.333 632.667 482 641 532 641 c 1
 570 637 594.667 628.667 606 616 c 1
 619.333 605.333 634.333 583 651 549 c 1
 679.667 577.667 711 601.667 745 621 c 1
 777.667 637 815.333 645 858 645 c 1
 903 641 l 1
 978.333 631 1016 592 1016 524 c 0
 1016 500.667 1010.33 472 999 438 c 2
 856 0 l 1
 694 0 l 1
 836 434 l 1
 838 453 l 1
 838 481.667 816.667 498 774 502 c 1
 736 502 702.667 489.667 674 465 c 1
 644.667 437.667 626 411.667 618 387 c 2
 492 0 l 1
 332 0 l 1
 471 434 l 1
 473 444 l 1
 473 480.667 449.667 500 403 502 c 0
 375.667 502 346.333 491.667 315 471 c 1
 287.667 451 268 423 256 387 c 2
 129 0 l 1
EndSplineSet
EndChar
StartChar: n
Encoding: 80 110
OldEncoding: 110
Width: 712
Flags: W
Fore
-31 0 m 1
 174 631 l 1
 336 631 l 1
 305 537 l 1
 333 569.667 364.333 595.333 399 614 c 0
 432.333 632 465.333 641 498 641 c 0
 623.333 641 686 597.333 686 510 c 0
 686 486 680.667 457.333 670 424 c 2
 532 0 l 1
 369 0 l 1
 494 387 l 1
 502 414.333 506 436.333 506 453 c 1
 504 477 l 1
 498 499 468.667 510 416 510 c 1
 368.667 504 334.333 491 313 471 c 1
 291 453 274 430.333 262 403 c 1
 131 0 l 1
 -31 0 l 1
EndSplineSet
EndChar
StartChar: o
Encoding: 81 111
OldEncoding: 111
Width: 712
Flags: W
Fore
244 -29 m 0
 155.333 -29 90.3333 -2.33333 49 51 c 0
 29 78.3333 18 115.333 16 162 c 1
 16 168 l 2
 16 209.333 24.3333 255.667 41 307 c 0
 56.3333 356.333 80.3333 405.667 113 455 c 0
 143 502.333 177.667 539 217 565 c 1
 288.333 615.667 369.667 641 461 641 c 0
 550.333 641 614.333 615.667 653 565 c 0
 674.333 539 686 502.333 688 455 c 1
 688 449 l 2
 688 405.667 680 358.333 664 307 c 1
 642.667 249.667 619.333 201.333 594 162 c 0
 564.667 117.333 528.333 79.6667 485 49 c 0
 412.333 -3 332 -29 244 -29 c 0
416 502 m 0
 365.333 502 318.667 478.667 276 432 c 1
 241.333 390 217.667 348.333 205 307 c 1
 195 281 190 254.333 190 227 c 1
 195 184 l 1
 207 136.667 238.333 113 289 113 c 0
 342.333 113 388.667 136.667 428 184 c 1
 460.667 220 484.667 261 500 307 c 0
 508 334.333 512 361 512 387 c 1
 508 432 l 1
 496 478.667 465.333 502 416 502 c 0
EndSplineSet
EndChar
StartChar: p
Encoding: 82 112
OldEncoding: 112
Width: 712
Flags: W
Fore
213 631 m 1
 375 631 l 1
 342 537 l 1
 387 575 l 1
 434 610 l 1
 458.667 623.333 474.333 631 481 633 c 0
 497.667 638.333 519 641 545 641 c 0
 617 641 668 615.667 698 565 c 0
 715.333 537.667 725 499 727 449 c 1
 727 442 l 2
 727 394 718.667 345 702 295 c 0
 686 243 663.667 196 635 154 c 0
 605.667 108.667 572.333 71.6667 535 43 c 0
 499 16.3333 466 -2 436 -12 c 0
 410.667 -22 376 -27 332 -27 c 0
 303.333 -27 280.667 -22.6667 264 -14 c 0
 250.667 -8.66667 237.667 0.666667 225 14 c 0
 222.333 16.6667 210.667 34 190 66 c 1
 86 -256 l 1
 -76 -256 l 1
 213 631 l 1
469 498 m 0
 418.333 498 374 474 336 426 c 0
 306.667 390 284 349 268 303 c 0
 258.667 274.333 254 241.667 254 205 c 1
 256 180 l 1
 266 132.667 294.667 109 342 109 c 0
 393.333 109 437 132.667 473 180 c 1
 502.333 216 525 257 541 303 c 0
 550.333 330.333 555 361.667 555 397 c 1
 553 426 l 1
 545 474 517 498 469 498 c 0
EndSplineSet
EndChar
StartChar: q
Encoding: 83 113
OldEncoding: 113
Width: 712
Flags: W
Fore
776 629 m 1
 489 -256 l 1
 328 -256 l 1
 430 66 l 1
 410.667 48.6667 389.667 32 367 16 c 0
 347.667 2 327 -8 305 -14 c 1
 283.667 -22.6667 259 -27 231 -27 c 0
 186.333 -27 153.667 -22 133 -12 c 0
 109.667 -1.33333 89.3333 17 72 43 c 0
 54 70.3333 45 107.333 45 154 c 2
 45 160 l 2
 45 202 52.6667 247 68 295 c 0
 86 347 110.333 397.333 141 446 c 1
 177 498 212.667 537.667 248 565 c 0
 274 586.333 304.667 605 340 621 c 0
 369.333 634.333 406.333 641 451 641 c 1
 495.667 639 527.667 629.333 547 612 c 0
 565.667 595.333 578 570.333 584 537 c 1
 614 629 l 1
 776 629 l 1
432 494 m 0
 384.667 494 341 470 301 422 c 0
 268.333 381.333 245 339.667 231 297 c 0
 221.667 268.333 217 237 217 203 c 1
 219 170 l 1
 229 122 257.667 98 305 98 c 0
 348.333 98 392 122 436 170 c 1
 468 208 491.333 250.333 506 297 c 0
 516.667 330.333 522 359.667 522 385 c 1
 518 422 l 1
 508 470 479.333 494 432 494 c 0
EndSplineSet
EndChar
StartChar: r
Encoding: 84 114
OldEncoding: 114
Width: 452
Flags: W
Fore
-29 0 m 1
 174 631 l 1
 338 631 l 1
 299 510 l 1
 311.667 528 326 545 342 561 c 0
 354 573 376.667 588.667 410 608 c 0
 444.667 630 486.333 641 535 641 c 1
 479 475 l 1
 426 479 l 1
 389.333 479 356.667 470.333 328 453 c 0
 295.333 433 268.667 400.667 248 356 c 1
 131 0 l 1
 -29 0 l 1
EndSplineSet
EndChar
StartChar: s
Encoding: 85 115
OldEncoding: 115
Width: 647
Flags: W
Fore
-6 186 m 1
 156 186 l 1
 156 163.333 160.667 146.333 170 135 c 0
 177.333 124.333 189 115.667 205 109 c 0
 222.333 100.333 242.667 96 266 96 c 0
 333.333 94 374.333 116 389 162 c 1
 393 182 l 1
 391 197 l 1
 387 207 379 213 367 215 c 1
 182 274 l 2
 134.667 289.333 106 310.667 96 338 c 1
 90.6667 348.667 88 362.333 88 379 c 0
 88 395.667 90.6667 412 96 428 c 0
 118.667 495.333 161.667 550.667 225 594 c 1
 274.333 625.333 336 641 410 641 c 0
 490 643 550 628 590 596 c 0
 622 572 639 546 641 518 c 1
 643 502 l 1
 643 478 638.333 453.333 629 428 c 1
 471 428 l 1
 476.333 440.667 479 453.667 479 467 c 1
 477 479 l 1
 469.667 491.667 456 501.333 436 508 c 0
 416 514.667 397 518 379 518 c 0
 354.333 518 328.333 512 301 500 c 0
 282.333 491.333 270 476.333 264 455 c 2
 260 440 l 1
 260 429.333 268.333 421 285 415 c 2
 286 415 l 1
 289 414 l 1
 502 350 l 2
 521.333 343.333 537.667 333 551 319 c 0
 563.667 304.333 571.667 286.667 575 266 c 1
 578.333 257.333 580 249.333 580 242 c 0
 580 224 577 209 571 197 c 1
 558.333 156.333 535.333 117.333 502 80 c 0
 466.667 40.6667 421.667 12 367 -6 c 0
 351.667 -10.6667 325.667 -15.3333 289 -20 c 0
 260.333 -24.6667 231.667 -27 203 -27 c 0
 145 -25 101.333 -16.6667 72 -2 c 0
 14.6667 28.6667 -14 72.3333 -14 129 c 0
 -14 149 -11.3333 168 -6 186 c 1
EndSplineSet
EndChar
StartChar: t
Encoding: 86 116
OldEncoding: 116
Width: 387
Flags: W
Fore
92 618 m 1
 172 618 l 1
 227 791 l 1
 391 791 l 1
 336 618 l 1
 426 618 l 1
 391 510 l 1
 301 510 l 1
 186 156 l 1
 180.667 142.667 178 130.333 178 119 c 0
 178 106.333 183.667 100 195 100 c 2
 256 98 l 1
 219 -12 l 1
 186.333 -22 158.333 -27 135 -27 c 0
 106.333 -29 82.3333 -26 63 -18 c 1
 21 -4 0 24.6667 0 68 c 1
 2 98 l 1
 137 510 l 1
 57 510 l 1
 92 618 l 1
EndSplineSet
EndChar
StartChar: u
Encoding: 87 117
OldEncoding: 117
Width: 712
Flags: W
Fore
737 631 m 1
 532 0 l 1
 369 0 l 1
 393 78 l 1
 357 40 327 14.6667 303 2 c 0
 279 -9.33333 246.333 -19 205 -27 c 1
 160.333 -25 123.333 -20 94 -12 c 0
 64.6667 -4.66667 43 15.6667 29 49 c 0
 21.6667 66.3333 18 84 18 102 c 0
 18 127.333 23 157.667 33 193 c 1
 174 631 l 1
 338 631 l 1
 211 240 l 2
 203 214.667 199 193.333 199 176 c 0
 199 168 200.333 160 203 152 c 0
 209 130 237.667 119 289 119 c 1
 335.667 125 369.667 137.333 391 156 c 1
 415.667 175.333 432 197.667 440 223 c 2
 573 631 l 1
 737 631 l 1
EndSplineSet
EndChar
StartChar: v
Encoding: 88 118
OldEncoding: 118
Width: 647
Flags: W
Fore
119 631 m 1
 291 631 l 1
 272 168 l 1
 555 631 l 1
 727 631 l 1
 303 0 l 1
 131 0 l 1
 119 631 l 1
EndSplineSet
EndChar
StartChar: w
Encoding: 89 119
OldEncoding: 119
Width: 905
Flags: W
Fore
109 631 m 1
 276 631 l 1
 231 188 l 1
 469 631 l 1
 637 631 l 1
 584 188 l 1
 825 631 l 1
 995 631 l 1
 614 0 l 1
 446 0 l 1
 494 444 l 1
 248 0 l 1
 80 0 l 1
 109 631 l 1
EndSplineSet
EndChar
StartChar: x
Encoding: 90 120
OldEncoding: 120
Width: 647
Flags: W
Fore
129 631 m 1
 324 631 l 1
 365 440 l 1
 530 631 l 1
 723 631 l 1
 416 315 l 1
 520 0 l 1
 326 0 l 1
 283 186 l 1
 111 0 l 1
 -84 0 l 1
 225 315 l 1
 129 631 l 1
EndSplineSet
EndChar
StartChar: y
Encoding: 91 121
OldEncoding: 121
Width: 647
Flags: W
Fore
156 631 m 1
 336 631 l 1
 324 172 l 1
 602 631 l 1
 772 631 l 1
 256 -131 l 1
 242.667 -156.333 218 -183 182 -211 c 0
 160.667 -228.333 126.667 -240 80 -246 c 0
 28 -252.667 -13.6667 -256 -45 -256 c 1
 -2 -123 l 1
 48 -123 83.3333 -117.333 104 -106 c 1
 135.333 -92 156 -69 166 -37 c 1
 170 -4 l 1
 170 0 l 1
 156 631 l 1
EndSplineSet
EndChar
StartChar: z
Encoding: 92 122
OldEncoding: 122
Width: 581
Flags: W
Fore
150 631 m 1
 639 631 l 1
 596 498 l 1
 168 133 l 1
 485 133 l 1
 442 0 l 1
 -78 0 l 1
 -35 133 l 1
 395 498 l 1
 106 498 l 1
 150 631 l 1
EndSplineSet
EndChar
StartChar: braceleft
Encoding: 93 123
OldEncoding: 123
Width: 452
Flags: W
Fore
27 258 m 1
 61 367 l 1
 125.667 367 164 385.333 176 422 c 2
 262 690 l 1
 279.333 739.333 307.333 778.333 346 807 c 0
 384.667 835.667 418 850 446 850 c 2
 545 850 l 1
 508 735 l 1
 465 735 l 2
 439.667 735 423.333 730.333 416 721 c 1
 405.333 710.333 397 694.667 391 674 c 1
 309 426 l 1
 289 362.667 240.667 324.333 164 311 c 1
 192 307 214.333 297.667 231 283 c 0
 239.667 274.333 244 262 244 246 c 0
 244 231.333 240.333 212 233 188 c 2
 154 -59 l 1
 148 -71.6667 145 -82.6667 145 -92 c 0
 145 -98.6667 145.667 -102.667 147 -104 c 0
 150.333 -115.333 163.333 -121 186 -121 c 2
 229 -121 l 1
 193 -236 l 1
 92 -236 l 2
 66.6667 -236 43.6667 -221.667 23 -193 c 0
 10.3333 -176.333 4 -155.667 4 -131 c 0
 4 -116.333 7.33333 -98 14 -76 c 1
 100 190 l 1
 104 213 l 1
 104 243 78.3333 258 27 258 c 1
EndSplineSet
EndChar
StartChar: bar
Encoding: 94 124
OldEncoding: 124
Width: 325
Flags: W
Fore
385 850 m 1
 33 -236 l 1
 -59 -236 l 1
 293 850 l 1
 385 850 l 1
EndSplineSet
EndChar
StartChar: braceright
Encoding: 95 125
OldEncoding: 125
Width: 452
Flags: W
Fore
428 367 m 1
 393 258 l 1
 363 258 338.333 253.333 319 244 c 1
 298.333 231.333 284 213.333 276 190 c 1
 190 -76 l 2
 174 -126 146 -165 106 -193 c 0
 65.3333 -221.667 31.3333 -236 4 -236 c 2
 -92 -236 l 1
 -53 -121 l 1
 -10 -121 l 2
 12.6667 -121 29 -115.333 39 -104 c 0
 48.3333 -92 55.6667 -77 61 -59 c 1
 141 188 l 2
 165.667 263.333 217 305 295 313 c 1
 269 315 245 324 223 340 c 1
 215 348 211 361 211 379 c 0
 211 392.333 213 408 217 426 c 1
 299 674 l 1
 304.333 688 307 701 307 713 c 1
 305 721 l 1
 303 731.667 290 737 266 737 c 2
 223 737 l 1
 260 850 l 1
 358 850 l 2
 374.667 850 392 844.667 410 834 c 1
 427.333 820 438.667 801.333 444 778 c 1
 449 748 l 1
 449 734.667 445.333 715.333 438 690 c 1
 352 424 l 1
 350 408 l 1
 350 380.667 376 367 428 367 c 1
EndSplineSet
EndChar
StartChar: asciitilde
Encoding: 96 126
OldEncoding: 126
Width: 679
Flags: W
Fore
129 203 m 1
 49 203 l 1
 76.3333 262.333 111.333 307.333 154 338 c 0
 188.667 362.667 220.667 375 250 375 c 0
 272.667 375 292.333 368 309 354 c 1
 406 287 l 2
 426.667 271.667 445 264 461 264 c 0
 494.333 264 519.667 288.667 537 338 c 1
 627 338 l 1
 618.333 313.333 608 290.667 596 270 c 1
 580.667 248 558 226.333 528 205 c 1
 497.333 179 466.667 166 436 166 c 0
 412 166 387.333 175 362 193 c 1
 256 262 l 2
 240 273.333 225 279 211 279 c 0
 190.333 279 174.667 271.333 164 256 c 1
 148.667 238 137 220.333 129 203 c 1
EndSplineSet
EndChar
StartChar: exclamdown
Encoding: 98 161
OldEncoding: 161
Width: 250
Flags: W
Fore
302 638 m 1
 274 509 l 1
 100 509 l 1
 127 638 l 1
 302 638 l 1
233 435 m 1
 180 1 l 1
 141 -180 l 1
 -59 -180 l 1
 -20 1 l 1
 108 435 l 1
 233 435 l 1
EndSplineSet
EndChar
StartChar: cent
Encoding: 99 162
OldEncoding: 162
Width: 594
Flags: W
Fore
473 511 m 1
 267 121 l 1
 277 117 l 1
 361.667 117 421.333 162.333 456 253 c 1
 575 225 l 1
 547.667 157 503.667 101.667 443 59 c 0
 382.333 15.6667 313.667 -6 237 -6 c 0
 227.667 -6 216.333 -4 203 0 c 1
 203 0 l 1
 198 2 l 1
 73 -230 l 1
 -45 -210 l 1
 79 22 l 1
 15.6667 55.3333 -16 112.333 -16 193 c 0
 -16 227 -11 268 -1 316 c 0
 19 410.667 59 487.333 119 546 c 0
 187.667 611.333 271.333 644 370 644 c 1
 409 640 l 1
 529 866 l 1
 646 847 l 1
 526 620 l 1
 570 603.333 596 571 604 523 c 0
 606.667 507 608 486.667 608 462 c 2
 608 448 l 1
 483 423 l 1
 483 428 l 1
 486 476 l 1
 486 491.333 481.667 503 473 511 c 1
343 529 m 1
 339 530 l 2
 333 530 l 0
 227 530 159.333 461 130 323 c 0
 118 265 112 226 112 206 c 0
 112 176.667 120.333 155.333 137 142 c 1
 343 529 l 1
EndSplineSet
EndChar
StartChar: sterling
Encoding: 100 163
OldEncoding: 163
Width: 580
Flags: W
Fore
222 363 m 1
 368 363 l 1
 349 275 l 1
 219 275 l 1
 221 255 l 1
 218 229 l 1
 207 174 l 1
 200.333 157.333 179.667 135.333 145 108 c 1
 183 117 l 1
 190 118 l 2
 200 118 214.333 113.333 233 104 c 0
 241.667 100 250.333 97 259 95 c 0
 315 82.3333 353.333 76 374 76 c 0
 398 76 432.333 84.3333 477 101 c 1
 481 9 l 1
 425.667 -9.66667 382.667 -19 352 -19 c 1
 309 -15 l 1
 247 0 l 1
 183 17 l 1
 136 20 l 1
 81.3333 20 27.3333 6.33333 -26 -21 c 1
 -47 61 l 1
 39 100.333 90.3333 158.333 107 235 c 1
 110 275 l 1
 10 275 l 1
 28 363 l 1
 105 363 l 1
 101 393.667 99 416.667 99 432 c 0
 99 445.333 100.333 458 103 470 c 0
 115 526.667 147 572 199 606 c 0
 248.333 640 306.333 657 373 657 c 0
 500.333 657 564 604.333 564 499 c 0
 564 495 563.667 491 563 487 c 1
 452 453 l 1
 452 464 l 2
 452 511.333 438 540.667 410 552 c 0
 396.667 558 378.667 561 356 561 c 0
 320 561 286.333 550 255 528 c 0
 237 516 224.667 496 218 468 c 0
 219.333 472 218.333 466.333 215 451 c 1
 212 428 l 1
 222 363 l 1
EndSplineSet
EndChar
StartChar: currency
Encoding: 101 164
OldEncoding: 164
Width: 638
Flags: W
Fore
140 400 m 1
 76 472 l 1
 179 557 l 1
 243 482 l 1
 284.333 504.667 319.333 517 348 519 c 2
 367 520 l 2
 401 520 431.333 510.667 458 492 c 2
 473 482 l 1
 569 557 l 1
 644 471 l 1
 551 399 l 1
 561 377 566 357 566 339 c 0
 566 327.667 564 313 560 295 c 0
 551.333 253 541 223 529 205 c 1
 510 182 l 1
 573 108 l 1
 461 22 l 1
 397 98 l 1
 364.333 78.6667 327 68.3333 285 67 c 2
 284 67 l 1
 283 67 l 1
 271 67 l 2
 226.333 67 192.667 74.3333 170 89 c 2
 156 99 l 1
 61 23 l 1
 -11 110 l 1
 84 184 l 1
 74.6667 202.667 70 221.333 70 240 c 0
 70 253.333 72.6667 271.667 78 295 c 0
 84 323.667 99.6667 353 125 383 c 2
 140 400 l 1
229 290 m 0
 227.667 283.333 227 277 227 271 c 0
 227 255.667 231.333 242.333 240 231 c 0
 253.333 214.333 272 206 296 206 c 0
 320.667 206 342.667 214.333 362 231 c 0
 382.667 247 395.333 266.667 400 290 c 0
 401.333 296.667 402 302.667 402 308 c 0
 402 323.333 397 337 387 349 c 0
 373.667 365 355 373 331 373 c 0
 307.667 373 286 365 266 349 c 0
 246 333 233.667 313.333 229 290 c 0
EndSplineSet
EndChar
StartChar: yen
Encoding: 102 165
OldEncoding: 165
Width: 811
Flags: W
Fore
254 1 m 1
 287 157 l 1
 -9 157 l 1
 15 268 l 1
 310 268 l 1
 321 319 l 1
 26 319 l 1
 50 435 l 1
 294 435 l 1
 92 840 l 1
 252 840 l 1
 395 544 l 1
 417 475 l 1
 469 551 l 1
 727 840 l 1
 897 840 l 1
 523 435 l 1
 766 435 l 1
 742 319 l 1
 449 319 l 1
 438 268 l 1
 731 268 l 1
 707 157 l 1
 415 157 l 1
 382 1 l 1
 254 1 l 1
EndSplineSet
EndChar
StartChar: brokenbar
Encoding: 103 166
OldEncoding: 166
Width: 163
Flags: W
Fore
244 644 m 1
 163 262 l 1
 36 262 l 1
 117 644 l 1
 244 644 l 1
127 95 m 1
 46 -287 l 1
 -81 -287 l 1
 0 95 l 1
 127 95 l 1
EndSplineSet
EndChar
StartChar: section
Encoding: 104 167
OldEncoding: 167
Width: 759
Flags: W
Fore
-5 -19 m 1
 152 -5 l 1
 166.667 -43 180 -67 192 -77 c 0
 206 -88.3333 229.333 -96.3333 262 -101 c 2
 278 -103 l 1
 320.667 -103 359.333 -95.3333 394 -80 c 0
 432.667 -63.3333 455 -40 461 -10 c 1
 463 2 l 1
 463 14.6667 452.667 28 432 42 c 1
 432 42 l 1
 432 42 l 1
 387 69 l 1
 237 145 l 2
 165 180.333 115 210 87 234 c 0
 47 268 27 304 27 342 c 0
 27 350 28 358.333 30 367 c 0
 46 444.333 113 495 231 519 c 1
 183.667 555.667 160 593.667 160 633 c 0
 160 639.667 161 646.667 163 654 c 0
 173.667 706 211 748.333 275 781 c 0
 337 812.333 384.333 831 417 837 c 0
 433 839.667 449 841 465 841 c 0
 594.333 841 680 806.667 722 738 c 0
 738 711.333 746 680.333 746 645 c 0
 746 642.333 746 639.667 746 637 c 1
 595 620 l 1
 584.333 656 573.333 679.333 562 690 c 0
 548.667 702 527.667 709.667 499 713 c 2
 486 715 l 1
 473 715 l 2
 445 715 413.667 708 379 694 c 0
 353 682 336.667 663.333 330 638 c 0
 329.333 635.333 328.667 632 328 628 c 2
 327 621 l 1
 327 611 336.333 600.667 355 590 c 2
 412 557 l 1
 517 487 l 1
 595.667 449 647.667 420.333 673 401 c 0
 713.667 368.333 734 332.667 734 294 c 0
 734 286 733 278 731 270 c 0
 716.333 200.667 649 148.667 529 114 c 1
 589 78 619 36.3333 619 -11 c 0
 619 -19 618 -27.3333 616 -36 c 0
 604 -92.6667 563.333 -137.667 494 -171 c 0
 432.667 -199.667 362.333 -214 283 -214 c 0
 93 -214 -3 -149 -5 -19 c 1
453 189 m 1
 509.667 208.333 541 231.667 547 259 c 0
 547.667 261 548 263 548 265 c 0
 548 293.667 506.333 327.333 423 366 c 1
 383.667 386 351.333 403.667 326 419 c 1
 267.333 397.667 235.333 373.333 230 346 c 0
 229.333 344 229 341.667 229 339 c 0
 229 311 267 279.333 343 244 c 0
 395 220.667 431.667 202.333 453 189 c 1
EndSplineSet
EndChar
StartChar: dieresis
Encoding: 105 168
OldEncoding: 168
Width: 499
Flags: W
Fore
26 741 m 1
 53 870 l 1
 209 870 l 1
 182 741 l 1
 26 741 l 1
293 741 m 1
 320 870 l 1
 474 870 l 1
 447 741 l 1
 293 741 l 1
EndSplineSet
EndChar
StartChar: copyright
Encoding: 106 169
OldEncoding: 169
Width: 750
Flags: W
Fore
451 704 m 0
 553 704 632 669.333 688 600 c 0
 728.667 551.333 749 493.667 749 427 c 0
 749 401.667 746 375 740 347 c 0
 718.667 249 665 165.333 579 96 c 0
 493.667 26 400.333 -9 299 -9 c 0
 197.667 -9 119.333 25.3333 64 94 c 0
 23.3333 144 3 202 3 268 c 0
 3 293.333 6 319.667 12 347 c 0
 33.3333 448.333 86 533.333 170 602 c 0
 254.667 670 348.333 704 451 704 c 0
431 612 m 0
 357.667 612 290 586.333 228 535 c 0
 166.667 483.667 128 420.667 112 346 c 0
 107.333 325.333 105 305.333 105 286 c 0
 105 237.333 119.667 195 149 159 c 0
 189 109 245.667 84 319 84 c 0
 393 84 460.333 109 521 159 c 0
 582.333 209.667 621 272 637 346 c 0
 641 366.667 643 386.333 643 405 c 0
 643 453 628.667 495.667 600 533 c 0
 560 585.667 503.667 612 431 612 c 0
450 298 m 1
 536 273 l 1
 493.333 187 425.333 144 332 144 c 0
 272 144 229.333 163 204 201 c 0
 186.667 225.667 178 255.667 178 291 c 0
 178 308.333 180.333 327 185 347 c 0
 197.667 407.667 225.333 456.333 268 493 c 0
 310 530.333 362 549 424 549 c 0
 508 549 554.333 511.333 563 436 c 1
 467 401 l 1
 459.667 438.333 436.667 457 398 457 c 0
 366 457 339 445 317 421 c 0
 297 399.667 283.667 373 277 341 c 0
 273.667 325 272 311 272 299 c 0
 272 251.667 296.333 228 345 228 c 0
 392.333 228 427.333 251.333 450 298 c 1
EndSplineSet
EndChar
StartChar: ordfeminine
Encoding: 107 170
OldEncoding: 170
Width: 351
Flags: W
Fore
209 590 m 1
 181.667 571.333 153 561.667 123 561 c 0
 118.333 561 112.333 561 105 561 c 2
 98 561 l 2
 32 561 -1 583.333 -1 628 c 0
 -1 636 0 644.333 2 653 c 0
 10 692.333 38.3333 719.333 87 734 c 1
 137 743 l 1
 209 752 l 1
 257 761 l 1
 254.333 782.333 247.333 795.333 236 800 c 2
 235 800 l 1
 235 800 l 1
 227.667 802.667 213.333 804.333 192 805 c 2
 180 805 l 2
 151.333 805 128.667 796.667 112 780 c 2
 111 779 l 1
 110 778 l 1
 105 773 l 1
 43 786 l 1
 67 844.667 121.333 874 206 874 c 0
 289.333 874 331 848.333 331 797 c 0
 331 789.667 330 781.667 328 773 c 2
 301 646 l 1
 297 628.667 295 614 295 602 c 0
 295 587.333 298 576 304 568 c 1
 216 568 l 1
 209 583 l 1
 209 584 l 1
 209 590 l 1
226 700 m 1
 153 688 l 2
 119 681.333 100.333 670.667 97 656 c 0
 96.3333 652.667 96 650 96 648 c 0
 96 631.333 109.333 623 136 623 c 0
 184.667 623 214.667 648.667 226 700 c 1
EndSplineSet
EndChar
StartChar: guillemotleft
Encoding: 108 171
OldEncoding: 171
Width: 744
Flags: W
Fore
217 314 m 1
 362 0 l 1
 215 0 l 1
 20 314 l 1
 349 628 l 1
 498 628 l 1
 217 314 l 1
507 314 m 1
 657 0 l 1
 505 0 l 1
 341 314 l 1
 638 628 l 1
 791 628 l 1
 507 314 l 1
EndSplineSet
EndChar
StartChar: logicalnot
Encoding: 109 172
OldEncoding: 172
Width: 543
Flags: W
Fore
510 406 m 1
 389 406 l 1
 411 510 l 1
 16 510 l 1
 33 591 l 1
 549 591 l 1
 510 406 l 1
EndSplineSet
EndChar
StartChar: uni00AD
Encoding: 110 173
OldEncoding: 173
Width: 300
Flags: W
Fore
11 241 m 1
 31 334 l 1
 289 334 l 1
 269 241 l 1
 11 241 l 1
EndSplineSet
EndChar
StartChar: registered
Encoding: 111 174
OldEncoding: 174
Width: 860
Flags: W
Fore
899 379 m 0
 884.333 307.667 851 240.667 799 178 c 1
 745 115.333 681 66.3333 607 31 c 0
 529 -6.33333 452 -25 376 -25 c 0
 302 -25 233 -6.33333 169 31 c 0
 109.667 67 66.6667 116 40 178 c 0
 22.6667 220.667 14 264 14 308 c 0
 14 331.333 16.6667 355 22 379 c 0
 37.3333 450.333 72 517.333 126 580 c 1
 173.333 638 237 686.333 317 725 c 0
 395.667 761.667 472.667 780 548 780 c 0
 609.333 780 663.333 770 710 750 c 0
 759.333 729.333 800 700.667 832 664 c 0
 865.333 626.667 887.667 583.667 899 535 c 0
 905 511 908 485.667 908 459 c 0
 908 433.667 905 407 899 379 c 0
803 379 m 0
 807.667 402.333 810 424.333 810 445 c 0
 810 465.667 807.667 485.333 803 504 c 0
 795 539.333 777.333 573.333 750 606 c 0
 724.667 636.667 693.333 660.333 656 677 c 0
 619.333 693 576.333 701 527 701 c 0
 466.333 701 406.333 686 347 656 c 1
 287.667 628.667 237 589.667 195 539 c 0
 153 487.667 126.333 433.667 115 377 c 0
 110.333 356.333 108 336 108 316 c 0
 108 282.667 114.333 249.667 127 217 c 0
 145 167 179 128 229 100 c 1
 275 70 329 55 391 55 c 0
 452.333 55 512.333 70 571 100 c 1
 629 126.667 679.667 165.667 723 217 c 1
 763.667 267.667 790.333 321.667 803 379 c 0
413 383 m 1
 385 251 l 1
 383 237 l 1
 383 224.333 395.667 217.667 421 217 c 1
 413 176 l 1
 209 176 l 1
 218 217 l 1
 260 217 283 227 287 247 c 1
 349 539 l 1
 352 557 l 1
 352 563.667 350 568 346 570 c 0
 338 572.667 322.667 574 300 574 c 1
 309 618 l 1
 522 618 l 2
 566 618 597 614 615 606 c 1
 645 596 664 581 672 561 c 0
 676 554.333 678 545.667 678 535 c 1
 675 510 l 1
 667.667 475.333 649 447.333 619 426 c 0
 586.333 404 554.333 393 523 393 c 1
 641 233 l 2
 649 222.333 663.333 217 684 217 c 1
 675 176 l 1
 515 176 l 1
 413 383 l 1
 413 383 l 1
446 550 m 1
 422 436 l 1
 454.667 436 479 438 495 442 c 0
 539.667 452 564.667 474.667 570 510 c 1
 571 521 l 1
 571 548.333 555 562.667 523 564 c 2
 469 567 l 2
 456.333 567 448.667 561.333 446 550 c 1
EndSplineSet
EndChar
StartChar: macron
Encoding: 112 175
OldEncoding: 175
Width: 321
Flags: W
Fore
13 813 m 1
 27 879 l 1
 308 879 l 1
 294 813 l 1
 13 813 l 1
EndSplineSet
EndChar
StartChar: degree
Encoding: 113 176
OldEncoding: 176
Width: 290
Flags: W
Fore
6 793 m 0
 12.6667 825 32 852.667 64 876 c 0
 96 898 131 909 169 909 c 0
 208.333 909 239 898 261 876 c 0
 278.333 858 287 837.667 287 815 c 0
 287 807.667 286 800.333 284 793 c 0
 277.333 760.333 258 732.667 226 710 c 0
 193.333 688 157.667 677 119 677 c 0
 81 677 51 688 29 710 c 0
 11.6667 727.333 3 747.667 3 771 c 0
 3 777.667 4 785 6 793 c 0
83 792 m 0
 81.6667 788.667 81 785.333 81 782 c 0
 81 771.333 85 761.667 93 753 c 0
 103 742.333 116 737 132 737 c 0
 149.333 737 165.333 742.333 180 753 c 0
 194.667 764.333 203.667 777.333 207 792 c 0
 207.667 796 208 799.667 208 803 c 0
 208 813.667 204.333 823.333 197 832 c 0
 187 843.333 173.333 849 156 849 c 0
 140 849 124.667 843.667 110 833 c 0
 94.6667 821 85.6667 807.333 83 792 c 0
EndSplineSet
EndChar
StartChar: plusminus
Encoding: 114 177
OldEncoding: 177
Width: 777
Flags: W
Fore
257 164 m 1
 306 395 l 1
 19 395 l 1
 49 538 l 1
 336 538 l 1
 385 767 l 1
 555 767 l 1
 506 538 l 1
 793 538 l 1
 763 395 l 1
 476 395 l 1
 426 164 l 1
 257 164 l 1
679 0 m 1
 -65 0 l 1
 -36 136 l 1
 708 136 l 1
 679 0 l 1
EndSplineSet
EndChar
StartChar: twosuperior
Encoding: 115 178
OldEncoding: 178
Width: 213
Flags: W
Fore
-26 583 m 1
 -17.3333 610.333 16.6667 643.667 76 683 c 2
 124 714 l 1
 142.667 728 152 741.333 152 754 c 2
 152 754 152 754.333 152 755 c 0
 152 765 146.333 771.333 135 774 c 1
 120 775 l 1
 120 775 l 1
 119 775 l 1
 109 775 l 2
 95.6667 775 84 771 74 763 c 1
 74 762 l 1
 73 761 l 2
 71 759 68.6667 757 66 755 c 1
 19 760 l 1
 40.3333 807.333 78.3333 831 133 831 c 0
 186.333 831 213 814.333 213 781 c 0
 213 775.667 212.333 770 211 764 c 0
 205.667 738.667 200 722 194 714 c 2
 193 713 l 1
 192 712 l 1
 191 711 l 1
 181 700 l 1
 170.333 691.333 148.667 676.667 116 656 c 1
 94 640 l 1
 187 640 l 1
 175 583 l 1
 -26 583 l 1
EndSplineSet
EndChar
StartChar: threesuperior
Encoding: 116 179
OldEncoding: 179
Width: 224
Flags: W
Fore
0 661 m 1
 59 666 l 1
 61 647.333 73 638 95 638 c 0
 124.333 638 141.333 649.333 146 672 c 1
 146 678 l 2
 146 692.667 132.333 700 105 700 c 2
 95 699 l 1
 89 699 l 1
 107 743 l 1
 131.667 743 146 752.333 150 771 c 0
 150.667 773 151 775 151 777 c 0
 151 788.333 142.667 794 126 794 c 0
 110 794 96.6667 785.333 86 768 c 1
 29 775 l 1
 51.6667 814.333 87 834 135 834 c 0
 188.333 834 215 819 215 789 c 0
 215 784.333 214.667 779.667 214 775 c 0
 208.667 751.667 190 735.333 158 726 c 1
 188.667 718 204 702.333 204 679 c 0
 204 675 203.333 670.333 202 665 c 0
 197.333 642.333 182.333 624.667 157 612 c 0
 135.667 600 112.333 594 87 594 c 0
 29 594 0 616 0 660 c 0
 0 660.667 0 661 0 661 c 1
EndSplineSet
EndChar
StartChar: acute
Encoding: 117 180
OldEncoding: 180
Width: 261
Flags: W
Fore
32 759 m 1
 127 872 l 1
 270 872 l 1
 122 759 l 1
 32 759 l 1
EndSplineSet
EndChar
StartChar: mu
Encoding: 118 181
OldEncoding: 181
Width: 645
Flags: W
Fore
714 628 m 1
 582 9 l 1
 450 9 l 1
 466 82 l 1
 423.333 35.3333 378.333 7.66667 331 -1 c 0
 315.667 -4.33333 299 -6 281 -6 c 0
 229 -6 188.333 10.6667 159 44 c 0
 152.333 52 145.667 61 139 71 c 1
 75 -229 l 1
 -69 -229 l 1
 113 628 l 1
 257 628 l 1
 201 365 l 2
 189.667 311.667 184 272 184 246 c 1
 186 215 l 1
 194 168.333 213 139 243 127 c 2
 244 127 l 2
 258.667 121 277.667 118 301 118 c 0
 357.667 118 402.333 137 435 175 c 0
 443.667 185.667 452.667 198.333 462 213 c 0
 482.667 247 499.667 294.333 513 355 c 0
 513.667 355.667 514 356.667 514 358 c 0
 514 360 514.333 361.667 515 363 c 1
 571 628 l 1
 714 628 l 1
EndSplineSet
EndChar
StartChar: paragraph
Encoding: 119 182
OldEncoding: 182
Width: 822
Flags: W
Fore
185 -144 m 1
 309 439 l 1
 239.667 439 183.667 456.333 141 491 c 0
 139 492.333 137 494 135 496 c 0
 101 526 84 562.333 84 605 c 0
 84 617 85.3333 629.667 88 643 c 0
 102.667 713 145 767 215 805 c 1
 280.333 838.333 362.333 855 461 855 c 2
 901 855 l 1
 870 710 l 1
 781 710 l 1
 600 -144 l 1
 443 -144 l 1
 624 710 l 1
 528 710 l 1
 346 -144 l 1
 185 -144 l 1
EndSplineSet
EndChar
StartChar: periodcentered
Encoding: 120 183
OldEncoding: 183
Width: 174
Flags: W
Fore
8 384 m 1
 33 503 l 1
 166 503 l 1
 141 384 l 1
 8 384 l 1
EndSplineSet
EndChar
StartChar: cedilla
Encoding: 121 184
OldEncoding: 184
Width: 327
Flags: W
Fore
93 -60 m 1
 148 28 l 1
 249 28 l 1
 215 -20 l 1
 277 -24.6667 308 -42.6667 308 -74 c 1
 306 -87 l 1
 300 -116.333 272.667 -138.667 224 -154 c 0
 186.667 -166.667 143.667 -173 95 -173 c 0
 59 -173 26.6667 -171 -2 -167 c 1
 20 -101 l 1
 82 -103 l 1
 126 -103 l 2
 151.333 -103 166.333 -99 171 -91 c 2
 172 -90 l 1
 175 -81 l 1
 175 -76 l 2
 175 -67.3333 164.333 -62.3333 143 -61 c 2
 142 -61 l 1
 93 -60 l 1
EndSplineSet
EndChar
StartChar: onesuperior
Encoding: 122 185
OldEncoding: 185
Width: 242
Flags: W
Fore
99 558 m 1
 133 716 l 1
 90.3333 696 55.3333 683.667 28 679 c 1
 42 744 l 1
 76 752 113.333 770 154 798 c 2
 167 807 l 1
 240 807 l 1
 187 558 l 1
 99 558 l 1
EndSplineSet
EndChar
StartChar: ordmasculine
Encoding: 123 186
OldEncoding: 186
Width: 267
Flags: W
Fore
163 849 m 0
 203.667 849 232.667 835.333 250 808 c 0
 260.667 792 266 772.667 266 750 c 0
 266 738.667 264.667 726.333 262 713 c 0
 253.333 674.333 235.667 642.667 209 618 c 0
 181 590.667 146.333 577 105 577 c 0
 65.6667 577 37 590.667 19 618 c 0
 9 633.333 4 652 4 674 c 0
 4 685.333 5.33333 697.667 8 711 c 0
 16.6667 750.333 33.6667 782.333 59 807 c 0
 87.6667 835 122.333 849 163 849 c 0
147 771 m 0
 117 771 97.6667 751 89 711 c 0
 87 702.333 86 694.667 86 688 c 0
 86 663.333 98 651 122 651 c 0
 152.667 651 172.333 671.333 181 712 c 0
 183 720.667 184 728.333 184 735 c 0
 184 759 171.667 771 147 771 c 0
EndSplineSet
EndChar
StartChar: guillemotright
Encoding: 124 187
OldEncoding: 187
Width: 819
Flags: W
Fore
571 314 m 1
 284 1 l 1
 443 1 l 1
 800 315 l 1
 576 629 l 1
 399 628 l 1
 571 314 l 1
259 315 m 1
 -48 1 l 1
 130 1 l 1
 483 315 l 1
 264 629 l 1
 85 629 l 1
 259 315 l 1
EndSplineSet
EndChar
StartChar: onequarter
Encoding: 125 188
OldEncoding: 188
Width: 1080
Flags: W
Fore
37 -36 m 1
 879 776 l 1
 1038 776 l 1
 196 -36 l 1
 37 -36 l 1
180 379 m 1
 238 651 l 1
 192.667 623.667 158.667 606.333 136 599 c 2
 110 592 l 1
 128 677 l 1
 170.667 688.333 215.333 713.333 262 752 c 2
 288 774 l 1
 402 774 l 1
 318 379 l 1
 180 379 l 1
764 -23 m 1
 776 31 l 1
 560 31 l 1
 583 140 l 1
 864 372 l 1
 979 372 l 1
 928 131 l 1
 966 131 l 1
 945 31 l 1
 907 31 l 1
 895 -23 l 1
 764 -23 l 1
797 131 m 1
 823 253 l 1
 675 131 l 1
 797 131 l 1
EndSplineSet
EndChar
StartChar: onehalf
Encoding: 126 189
OldEncoding: 189
Width: 1080
Flags: W
Fore
36 -36 m 1
 878 777 l 1
 1031 777 l 1
 189 -36 l 1
 36 -36 l 1
183 379 m 1
 241 651 l 1
 194.333 622.333 157 604.333 129 597 c 0
 123.667 595 118 593.333 112 592 c 1
 129 677 l 1
 173.667 689 220.667 715.667 270 757 c 2
 291 774 l 1
 403 774 l 1
 319 379 l 1
 183 379 l 1
608 -39 m 1
 620 17.6667 663.333 71 738 121 c 1
 852 193 l 1
 862.667 201.667 868.667 209.667 870 217 c 1
 871 234 l 1
 871 246.667 865.667 254.667 855 258 c 2
 830 263 l 1
 798 260.333 778.667 252 772 238 c 0
 772 237.333 771.667 236.333 771 235 c 1
 677 241 l 1
 711.667 317 769.667 355 851 355 c 0
 935 355 977 328.333 977 275 c 0
 977 266.333 975.667 257.333 973 248 c 0
 965.667 213.333 944 179.333 908 146 c 1
 807 75 l 1
 777 54 l 1
 934 54 l 1
 914 -39 l 1
 608 -39 l 1
EndSplineSet
EndChar
StartChar: threequarters
Encoding: 127 190
OldEncoding: 190
Width: 1080
Flags: W
Fore
58 484 m 1
 161 490 l 1
 162.333 456.667 180 440 214 440 c 0
 258 440 284.333 459.667 293 499 c 1
 295 514 l 1
 295 540.667 280.333 555.667 251 559 c 0
 247.667 559.667 244 560 240 560 c 2
 218 559 l 1
 207 559 l 1
 238 629 l 1
 278.667 629 301.667 643 307 671 c 0
 308.333 674.333 309 677.333 309 680 c 0
 309 698 295.667 707 269 707 c 0
 243 707 222 693.667 206 667 c 1
 108 680 l 1
 146 747.333 205 781 285 781 c 0
 374.333 781 419 755 419 703 c 0
 419 695.667 418 688 416 680 c 0
 407.333 639.333 376.333 611 323 595 c 1
 373 581.667 398 555 398 515 c 0
 398 507.667 397 499.667 395 491 c 0
 387 451.667 362 421 320 399 c 0
 284 378.333 245 368 203 368 c 0
 106.333 368 58 405.333 58 480 c 0
 58 481.333 58 482.667 58 484 c 1
34 -36 m 1
 876 776 l 1
 1029 776 l 1
 187 -36 l 1
 34 -36 l 1
773 -23 m 1
 784 31 l 1
 560 31 l 1
 580 125 l 1
 872 372 l 1
 984 372 l 1
 929 116 l 1
 962 116 l 1
 945 31 l 1
 912 31 l 1
 900 -23 l 1
 773 -23 l 1
802 116 m 1
 831 253 l 1
 671 116 l 1
 802 116 l 1
EndSplineSet
EndChar
StartChar: questiondown
Encoding: 128 191
OldEncoding: 191
Width: 639
Flags: W
Fore
482 581 m 1
 454 450 l 1
 305 450 l 1
 333 581 l 1
 482 581 l 1
437 380 m 1
 431 352 l 2
 417.667 290 398.667 244.667 374 216 c 1
 343.333 169.333 295.667 123 231 77 c 1
 179 42.3333 150 10 144 -20 c 0
 142 -26.6667 141 -33.3333 141 -40 c 0
 141 -61.3333 149.333 -80 166 -96 c 0
 186.667 -116.667 214 -127 248 -127 c 0
 322.667 -127 377.667 -103.667 413 -57 c 0
 425 -41 435.333 -22.3333 444 -1 c 1
 583 -13 l 1
 524.333 -169.667 406.667 -248 230 -248 c 0
 148.667 -248 83.6667 -229 35 -191 c 0
 -6.33333 -159 -27 -118 -27 -68 c 0
 -27 -54.6667 -25.6667 -40.3333 -23 -25 c 0
 -9 40.3333 52.6667 109.667 162 183 c 0
 198 207 229 235 255 267 c 0
 274.333 291.667 289.333 329.333 300 380 c 1
 437 380 l 1
EndSplineSet
EndChar
StartChar: caron
Encoding: 129 711
OldEncoding: 711
Width: 1228
Flags: W
Fore
612 1174 m 1
 819 1311 l 1
 843 1325.67 860.667 1333 872 1333 c 0
 891.333 1333 908 1326.33 922 1313 c 1
 934 1297.67 940 1282 940 1266 c 0
 940 1240.67 925 1218 895 1198 c 2
 612 1010 l 1
 334 1198 l 2
 302.667 1219.33 287 1241.33 287 1264 c 0
 287 1282.67 293.667 1299 307 1313 c 0
 321 1326.33 337.333 1333 356 1333 c 0
 368 1333 386 1325.67 410 1311 c 1
 612 1174 l 1
EndSplineSet
EndChar
StartChar: ring
Encoding: 130 730
OldEncoding: 730
Width: 1228
Flags: W
Fore
809 1208 m 0
 809 1152 790 1105 752 1067 c 0
 714 1029 668 1010 614 1010 c 0
 559.333 1010 513 1029 475 1067 c 0
 437 1105 418 1152 418 1208 c 0
 418 1259.33 437 1303.67 475 1341 c 0
 514.333 1378.33 560.667 1397 614 1397 c 0
 670 1397 716.667 1378.33 754 1341 c 0
 790.667 1305 809 1260.67 809 1208 c 0
717 1208 m 0
 717 1234 707.333 1256.67 688 1276 c 0
 666.667 1295.33 642 1305 614 1305 c 0
 584.667 1305 560.333 1295.33 541 1276 c 0
 520.333 1257.33 510 1234.67 510 1208 c 0
 510 1179.33 520.333 1155 541 1135 c 0
 561 1114.33 585.333 1104 614 1104 c 0
 643.333 1104 668 1114.33 688 1135 c 0
 707.333 1155.67 717 1180 717 1208 c 0
EndSplineSet
EndChar
StartChar: uni0E01
Encoding: 131 3585
OldEncoding: 3585
Width: 755
Flags: W
Fore
221 489 m 1
 214.333 494.333 200 500 178 506 c 0
 152 514 127.333 518.667 104 520 c 1
 119 559 l 1
 154 590 l 1
 167.333 603.333 191.667 620.333 227 641 c 1
 273 664.333 312.667 681.333 346 692 c 0
 390 706 439.333 713 494 713 c 0
 550 713 595 704.667 629 688 c 0
 664.333 670 688.667 644 702 610 c 0
 708 598 711 581.667 711 561 c 0
 711 535.667 706 509.667 696 483 c 1
 541 0 l 1
 422 0 l 1
 575 473 l 1
 582.333 493 586 510 586 524 c 0
 586 548 578.333 568.667 563 586 c 0
 540.333 610.667 504.333 623 455 623 c 0
 397.667 623 334 605 264 569 c 1
 270 567 279 565 291 563 c 1
 336 549 l 1
 355.333 540.333 371.667 529.333 385 516 c 1
 367 459 l 1
 344.333 459 320.333 452 295 438 c 0
 267 423.333 245.667 392.667 231 346 c 1
 119 0 l 1
 -2 0 l 1
 109 338 l 1
 121.667 379.333 136.667 410 154 430 c 1
 170 452.667 192.333 472.333 221 489 c 1
EndSplineSet
EndChar
StartChar: uni0E02
Encoding: 132 3586
OldEncoding: 3586
Width: 739
Flags: W
Fore
410 522 m 1
 415.333 537.333 418 551.667 418 565 c 0
 418 579.667 415.333 590.667 410 598 c 1
 396 612.667 379.333 621 360 623 c 1
 367 592 l 1
 369 582 l 1
 369 569.333 365.333 553.667 358 535 c 0
 344.667 496.333 321 462.667 287 434 c 1
 251.667 408 213.333 395 172 395 c 0
 130 395 100.667 408.667 84 436 c 0
 74.6667 452 70 469.667 70 489 c 0
 70 506.333 72.6667 521.667 78 535 c 0
 90 572.333 110.333 605 139 633 c 1
 171.667 661 205.333 681.333 240 694 c 0
 276.667 708 312.667 715 348 715 c 0
 415.333 715 464.667 696.333 496 659 c 0
 513.333 637.667 522 612 522 582 c 0
 522 564 519.333 546.667 514 530 c 0
 504.667 500.667 494.333 479.667 483 467 c 1
 470.333 446.333 456.667 430 442 418 c 1
 401 373 l 1
 393.667 362.333 385.667 344.333 377 319 c 2
 307 106 l 1
 383 106 l 2
 407 106 424 109.667 434 117 c 1
 443.333 126.333 451.667 142.667 459 166 c 2
 629 696 l 1
 750 696 l 1
 567 133 l 1
 549 79 524.667 43.6667 494 27 c 1
 464.667 9 416 0 348 0 c 2
 70 0 l 1
 104 106 l 1
 186 106 l 1
 254 315 l 2
 261.333 337.667 271 358.333 283 377 c 1
 302.333 399.667 319.333 416.667 334 428 c 1
 379 471 l 1
 410 522 l 1
201 479 m 0
 217.667 479 232.667 484.667 246 496 c 0
 256.667 505.333 265.333 517.333 272 532 c 1
 274 553 l 1
 276 558.333 274.667 564.333 270 571 c 0
 264.667 581 253.333 586 236 586 c 0
 220.667 586 205.333 580.333 190 569 c 0
 178 559 170 546.667 166 532 c 1
 164 514 l 1
 168 496 l 1
 174 484.667 185 479 201 479 c 0
EndSplineSet
EndChar
StartChar: uni0E03
Encoding: 133 3587
OldEncoding: 3587
Width: 817
Flags: W
Fore
168 303 m 0
 113.333 303 79.3333 320 66 354 c 1
 57.3333 370.667 53 389.333 53 410 c 0
 53 435.333 58 459.667 68 483 c 1
 88 539 l 1
 103.333 572.333 128.667 604.333 164 635 c 0
 193.333 661 224.667 681.333 258 696 c 0
 288.667 710 314 717 334 717 c 1
 397 674 l 1
 500 717 l 1
 533.333 711 562 694.667 586 668 c 1
 600.667 648 608 627.333 608 606 c 1
 604 575 l 1
 595.333 550.333 583.667 531.333 569 518 c 2
 520 477 l 1
 506.667 463.667 495 444.667 485 420 c 1
 385 106 l 1
 463 106 l 2
 488.333 106 504.667 109.667 512 117 c 0
 520 124.333 528.333 140.667 537 166 c 1
 709 696 l 1
 827 696 l 1
 655 166 l 1
 637.667 107.333 614.667 65 586 39 c 1
 560 13 515.667 0 453 0 c 2
 147 0 l 1
 180 106 l 1
 264 106 l 1
 371 430 l 1
 389 488 423 528.333 473 551 c 1
 491.667 561 502 570.667 504 580 c 2
 506 588 l 1
 506 600 495.667 612.333 475 625 c 1
 367 580 l 1
 285 625 l 1
 264.333 621.667 244.333 612 225 596 c 0
 211 584 200.333 571.667 193 559 c 1
 196.333 562.333 203 565 213 567 c 1
 221 571 235.333 573 256 573 c 0
 282.667 573 304.667 567 322 555 c 0
 337.333 545 347.333 530 352 510 c 1
 354 487 l 1
 354 473 352 458.667 348 444 c 0
 336 404 313.667 370 281 342 c 1
 247 316 209.333 303 168 303 c 0
193 385 m 0
 207 385 222 390.333 238 401 c 1
 250 412.333 258 424.667 262 438 c 1
 266 459 l 1
 262 477 l 1
 256 487 244.333 492 227 492 c 0
 213 492 198.667 486.333 184 475 c 0
 172 466.333 162.667 454 156 438 c 1
 154 424 l 1
 154 416 156 408.333 160 401 c 0
 166.667 390.333 177.667 385 193 385 c 0
EndSplineSet
EndChar
StartChar: uni0E04
Encoding: 134 3588
OldEncoding: 3588
Width: 749
Flags: W
Fore
307 262 m 1
 276 266 l 1
 262.667 270 256 272.667 256 274 c 1
 256 274 l 1
 166 0 l 1
 45 0 l 1
 84 121 l 2
 92 145 96 168 96 190 c 2
 96 205 l 1
 94.6667 218.333 90 246.333 82 289 c 1
 74 319 70 347.667 70 375 c 2
 70 385 l 2
 70 409.667 74.6667 436.333 84 465 c 0
 100.667 517 130.667 563.333 174 604 c 0
 217.333 643.333 264.333 672 315 690 c 0
 369.667 709.333 422.333 719 473 719 c 0
 526.333 719 571.333 710 608 692 c 0
 648.667 673.333 676 645.333 690 608 c 0
 696.667 588 700 569 700 551 c 0
 700 530.333 695.333 504.333 686 473 c 1
 535 0 l 1
 414 0 l 1
 565 467 l 2
 571.667 487 575 504.667 575 520 c 0
 575 544.667 567.667 566 553 584 c 1
 524.333 611.333 485.333 625 436 625 c 0
 383.333 625 333 610.667 285 582 c 0
 234.333 552 200.667 511.667 184 461 c 0
 176 433.667 172 408.333 172 385 c 2
 172 379 l 2
 172 357 172.667 346 174 346 c 2
 176 348 l 1
 188 384 212 424.333 248 469 c 0
 284.667 513.667 334.333 537 397 539 c 0
 439.667 539 469 526 485 500 c 0
 493.667 485.333 498 469 498 451 c 0
 498 432.333 495 415.667 489 401 c 0
 477.667 365 456 333 424 305 c 1
 388 278.333 349 264 307 262 c 1
336 346 m 0
 351.333 346 366.333 351.333 381 362 c 1
 391 373.333 399.333 386.333 406 401 c 1
 410 422 l 1
 406 440 l 1
 399.333 450 387.667 455 371 455 c 0
 355 455 340.667 449.333 328 438 c 1
 315.333 429.333 305.667 417 299 401 c 1
 297 383 l 1
 301 362 l 1
 307.667 351.333 319.333 346 336 346 c 0
EndSplineSet
EndChar
StartChar: uni0E05
Encoding: 135 3589
OldEncoding: 3589
Width: 749
Flags: W
Fore
373 709 m 1
 467 664 l 1
 594 709 l 1
 628.667 699 656 679.667 676 651 c 1
 691.333 626.333 700 597 702 563 c 0
 702 534.333 697.333 504.333 688 473 c 1
 537 0 l 1
 416 0 l 1
 567 469 l 1
 579.667 503 586 530.333 586 551 c 0
 586 570.333 575 588 553 604 c 1
 434 565 l 1
 344 610 l 1
 302 594.667 269.333 575 246 551 c 1
 216.667 523.667 196.667 493.667 186 461 c 0
 178 433.667 174 408.333 174 385 c 2
 174 379 l 2
 174 357 174.667 346 176 346 c 2
 178 348 l 1
 190 384 214 424.333 250 469 c 0
 286.667 513.667 336.333 537 399 539 c 0
 441.667 539 471 526 487 500 c 0
 495.667 485.333 500 469 500 451 c 0
 500 433 497.333 416.333 492 401 c 0
 480 365 458 333 426 305 c 1
 390 278.333 351 264 309 262 c 1
 279 266 l 1
 263.667 270 256 272.667 256 274 c 1
 256 274 l 1
 168 0 l 1
 47 0 l 1
 86 121 l 2
 94 145 98 168 98 190 c 2
 98 205 l 1
 96.6667 218.333 92 246.333 84 289 c 1
 76 319 72 347.667 72 375 c 2
 72 385 l 2
 72 409.667 76.6667 436.333 86 465 c 0
 128.667 585 224.333 666.333 373 709 c 1
338 346 m 0
 353.333 346 368.333 351.333 383 362 c 1
 393 373.333 401.333 386.333 408 401 c 1
 412 422 l 1
 408 440 l 1
 401.333 450 389.667 455 373 455 c 0
 357 455 342.667 449.333 330 438 c 1
 317.333 429.333 307.667 417 301 401 c 1
 299 383 l 1
 303 362 l 1
 309.667 351.333 321.333 346 338 346 c 0
EndSplineSet
EndChar
StartChar: uni0E06
Encoding: 136 3590
OldEncoding: 3590
Width: 937
Flags: W
Fore
494 412 m 2
 465 322 l 1
 495 317.333 524.333 309 553 297 c 0
 571.667 287.667 597 270.667 629 246 c 1
 651.667 226.667 666 209.667 672 195 c 1
 834 696 l 1
 952 696 l 1
 727 0 l 1
 606 0 l 1
 608 14 l 1
 608 30.6667 605.333 49.3333 600 70 c 0
 592 104 574.333 137.333 547 170 c 0
 521.667 199.333 483.333 217 432 223 c 1
 393 106 l 1
 380.333 70 360 41.3333 332 20 c 0
 300 -2.66667 265 -14 227 -14 c 0
 179 -14 147 1.66667 131 33 c 0
 121.667 49.6667 117 69.3333 117 92 c 0
 117 106 120.333 123 127 143 c 0
 141 187.667 168.333 227.333 209 262 c 0
 247.667 296.667 293.333 316.667 346 322 c 1
 379 424 l 1
 397 482 431 522.333 481 545 c 1
 499.667 551 510 559.667 512 571 c 1
 512 580 l 2
 512 593.333 502.333 606 483 618 c 1
 375 573 l 1
 293 618 l 1
 269 614 247.667 604 229 588 c 1
 188 545 l 1
 196.667 549.667 206.333 553.667 217 557 c 0
 225.667 559.667 241.333 562.333 264 565 c 1
 304 565 332 552.667 348 528 c 0
 357.333 514.667 362 497.667 362 477 c 0
 362 464.333 360 450.667 356 436 c 0
 344.667 399.333 321 366.667 285 338 c 0
 249.667 310.667 213.333 297 176 297 c 0
 122 299 88 315.333 74 346 c 0
 65.3333 363.333 61 381.667 61 401 c 0
 61 419.667 65.3333 443.667 74 473 c 1
 96 530 l 1
 121.333 582 160.333 625 213 659 c 0
 266.333 692.333 308.667 709 340 709 c 1
 406 668 l 1
 506 709 l 1
 538 705.667 567.333 690 594 662 c 1
 608.667 642 616 621.333 616 600 c 1
 612 569 l 1
 604.667 550.333 597.333 536 590 526 c 1
 553 492 l 2
 529 469.333 516.667 457.667 516 457 c 0
 507.333 445 500 430 494 412 c 2
217 96 m 1
 219 84 227.333 78 242 78 c 0
 257.333 78 268 87.3333 274 106 c 2
 315 227 l 1
 294.333 225 274.667 215.667 256 199 c 1
 236.667 178.333 224.333 159 219 141 c 1
 215 113 l 1
 217 96 l 1
197 377 m 0
 212.333 377 228 382.333 244 393 c 1
 256 403 264 416 268 432 c 1
 272 453 l 1
 268 469 l 1
 261.333 479.667 249.667 485 233 485 c 0
 219 485 204 479.667 188 469 c 0
 177.333 460.333 168.667 448 162 432 c 1
 160 416 l 1
 160 406.667 162 399 166 393 c 1
 170 382.333 180.333 377 197 377 c 0
EndSplineSet
EndChar
StartChar: uni0E07
Encoding: 137 3591
OldEncoding: 3591
Width: 598
Flags: W
Fore
475 709 m 0
 516.333 709 546.333 696.667 565 672 c 1
 576.333 652.667 582 634.667 582 618 c 0
 582 604.667 579.667 591.333 575 578 c 1
 420 100 l 1
 408.667 63.3333 386.667 34 354 12 c 0
 324.667 -9.33333 292 -20 256 -20 c 0
 198.667 -20 164 2.33333 152 47 c 2
 49 436 l 1
 164 498 l 1
 197 381 l 1
 242 209 l 1
 264 111 l 1
 270 91.6667 276.333 82 283 82 c 0
 291 82 299 95 307 121 c 1
 410 436 l 1
 403 436 l 1
 385 434 l 1
 342.333 434 313.667 447.667 299 475 c 0
 289.667 491 285 508.667 285 528 c 0
 285 544 287.667 558.333 293 571 c 1
 303 608.333 325.333 640.667 360 668 c 0
 394.667 695.333 433 709 475 709 c 0
414 516 m 0
 428 516 443 521.333 459 532 c 1
 470.333 542.667 479 555.667 485 571 c 1
 487 590 l 1
 483 610 l 1
 477.667 620 466.333 625 449 625 c 0
 433.667 625 419.333 619.333 406 608 c 1
 392 598.667 383 586.333 379 571 c 1
 375 553 l 1
 375 545.667 377 538.667 381 532 c 0
 387.667 521.333 398.667 516 414 516 c 0
EndSplineSet
EndChar
StartChar: uni0E08
Encoding: 138 3592
OldEncoding: 3592
Width: 706
Flags: W
Fore
539 139 m 2
 519 77.6667 494.333 38 465 20 c 0
 433 1.33333 398 -8 360 -8 c 0
 328.667 -8 305 0 289 16 c 0
 272.333 30.6667 264 52.6667 264 82 c 2
 264 90 l 1
 270 178 l 1
 272 223 l 1
 272 231 l 1
 269.333 228.333 261.333 223.667 248 217 c 0
 234.667 211.667 217 209 195 209 c 0
 149.667 211 120 224.667 106 250 c 1
 96.6667 263.333 92 280.333 92 301 c 0
 92 317 94.6667 332 100 346 c 0
 114 384 137.333 416 170 442 c 0
 203.333 469.333 241.667 483 285 483 c 0
 354.333 483 390.333 452.667 393 392 c 1
 393 381 l 1
 386.333 -225.667 383 -318 383 104 c 1
 381 88 l 1
 381 81.3333 383 78 387 78 c 0
 395 78 403.333 90.3333 412 115 c 1
 528 475 l 2
 535.333 497 539 514.667 539 528 c 0
 539 549.333 532 567.333 518 582 c 1
 494 602 460 612 416 612 c 0
 332 612 247.333 574 162 498 c 1
 102 553 l 1
 199.333 657 315.667 709 451 709 c 0
 529.667 709 589 689 629 649 c 1
 651 625 662 593.667 662 555 c 0
 662 533.667 657.667 508.333 649 479 c 1
 539 139 l 2
221 293 m 0
 239.667 293 254.667 297.667 266 307 c 0
 278 316.333 286.333 329.333 291 346 c 1
 295 367 l 1
 293 385 l 1
 287.667 394.333 275.333 399 256 399 c 0
 240.667 399 225.667 393.667 211 383 c 0
 199.667 373.667 190.667 361.333 184 346 c 1
 182 330 l 1
 182 322 184 315 188 309 c 0
 195.333 298.333 206.333 293 221 293 c 0
EndSplineSet
EndChar
StartChar: uni0E09
Encoding: 139 3593
OldEncoding: 3593
Width: 815
Flags: W
Fore
211 473 m 0
 250.333 473 279 461.333 297 438 c 0
 307.667 423.333 313 406.333 313 387 c 0
 313 377 311 364.667 307 350 c 1
 254 184 l 1
 286.667 216.667 329 244.667 381 268 c 0
 426.333 290 474.667 306.333 526 317 c 1
 578 477 l 2
 584.667 498.333 588 515.333 588 528 c 0
 588 548.667 582.333 566.667 571 582 c 1
 548.333 606.667 511 618 459 616 c 0
 423.667 616 384 604.667 340 582 c 0
 298 559.333 258.333 532 221 500 c 1
 158 555 l 1
 202 599 255 637.333 317 670 c 1
 378.333 698.667 439.333 713 500 713 c 0
 584 713 644.667 692.333 682 651 c 1
 701.333 623 711 592.333 711 559 c 0
 711 532.333 706 505.667 696 479 c 1
 643 317 l 1
 684.333 309 711 288.667 723 256 c 0
 728.333 243.333 731 227.667 731 209 c 0
 731 188.333 727 164.333 719 137 c 0
 705 92.3333 679.667 56.3333 643 29 c 1
 608.333 0.333333 570.667 -14 530 -14 c 0
 498.667 -14 476.333 -5.33333 463 12 c 0
 451.667 24.6667 446 37.6667 446 51 c 0
 446 64.3333 449 80 455 98 c 2
 498 229 l 1
 430.667 213.667 367 183.667 307 139 c 1
 252.333 96.3333 213.333 50 190 0 c 1
 74 0 l 1
 139 201 l 1
 131 199 l 1
 121 197 l 1
 77.6667 199 49 213.333 35 240 c 1
 25 254 20 270.333 20 289 c 0
 20 301.667 23 316.667 29 334 c 0
 38.3333 368.667 60.6667 400.667 96 430 c 0
 131.333 458.667 169.667 473 211 473 c 0
641 147 m 0
 645 159.667 647 171.333 647 182 c 1
 643 203 l 1
 639 216.333 630 225 616 229 c 1
 573 100 l 1
 571 88 l 1
 571 78.6667 575.333 74 584 74 c 1
 592 76.6667 598.667 80.6667 604 86 c 0
 614.667 96.6667 622.333 107 627 117 c 0
 635 130.333 639.667 140.333 641 147 c 0
150 281 m 0
 166 281 181 286.333 195 297 c 0
 207 307 215 320 219 336 c 1
 223 356 l 1
 221 375 l 1
 215.667 384.333 203.333 389 184 389 c 0
 169.333 389 155 383.667 141 373 c 0
 129.667 363 121 350.667 115 336 c 1
 111 317 l 1
 111 311 113 305 117 299 c 0
 123 287 134 281 150 281 c 0
EndSplineSet
EndChar
StartChar: uni0E0A
Encoding: 140 3594
OldEncoding: 3594
Width: 753
Flags: W
Fore
422 524 m 0
 427.333 539.333 430 553.667 430 567 c 0
 430 579.667 428 590 424 598 c 0
 412.667 615.333 397.667 625 379 627 c 1
 387 594 l 1
 387 582 l 2
 387 566 384.333 551 379 537 c 0
 366.333 495 343 460.667 309 434 c 0
 272.333 406.667 232.667 393 190 393 c 0
 149.333 393 120 406.667 102 434 c 0
 92.6667 450 88 467.667 88 487 c 0
 88 505 90.6667 521.667 96 537 c 0
 106 569.667 126.667 599.667 158 627 c 0
 186.667 653.667 219.333 674 256 688 c 0
 296.667 703.333 330 711 356 711 c 0
 408.667 711 451 700 483 678 c 0
 515.667 655.333 532 628 532 596 c 1
 549.333 596 579 606.333 621 627 c 1
 661.667 644.333 714 687.333 778 756 c 1
 844 700 l 1
 808.667 652.667 771.667 618 733 596 c 0
 694.333 573.333 665.667 559 647 553 c 1
 656.333 549 666 536.667 676 516 c 0
 680 510 682 501 682 489 c 0
 682 469.667 676.667 444 666 412 c 2
 575 133 l 1
 563.667 97 550.333 68.3333 535 47 c 1
 519 27.6667 501 15.3333 481 10 c 0
 456.333 3.33333 423.667 2.1684e-19 383 0 c 2
 82 0 l 1
 117 106 l 1
 203 106 l 1
 272 319 l 1
 282 344.333 291 363 299 375 c 1
 344 424 l 1
 364.667 439.333 380.333 453.667 391 467 c 0
 402.333 480.333 412.667 499.333 422 524 c 0
221 479 m 0
 238.333 479 253.333 484.667 266 496 c 0
 277.333 504.667 286.333 516.667 293 532 c 1
 295 553 l 1
 291 571 l 1
 285.667 581 274 586 256 586 c 0
 240 586 225.667 580.333 213 569 c 1
 199.667 559.667 190 547.333 184 532 c 1
 182 516 l 1
 182 508.667 184 502 188 496 c 0
 195.333 484.667 206.333 479 221 479 c 0
516 510 m 1
 504.667 479.333 495 459.667 487 451 c 0
 477.667 439 465.667 426.667 451 414 c 0
 441 404 429.333 389.667 416 371 c 0
 404 353 394.333 331.667 387 307 c 1
 322 106 l 1
 389 106 l 2
 413.667 106 432 109.667 444 117 c 1
 452.667 125 461 141.333 469 166 c 2
 543 401 l 2
 551 425.667 555 445.667 555 461 c 0
 555 472.333 553 481 549 487 c 0
 537 502.333 526 510 516 510 c 1
EndSplineSet
EndChar
StartChar: uni0E0B
Encoding: 141 3595
OldEncoding: 3595
Width: 796
Flags: W
Fore
483 717 m 1
 509 715 533.667 701.333 557 676 c 0
 577.667 653.333 588 631.333 588 610 c 1
 586 596 l 1
 604.667 598.667 633.333 610.333 672 631 c 0
 712.667 651 762.333 692.667 821 756 c 1
 891 700 l 1
 855.667 652.667 818.667 618 780 596 c 0
 741.333 573.333 712.667 559 694 553 c 1
 703.333 549.667 713 537.333 723 516 c 1
 725 489 l 1
 725 461.667 721 436 713 412 c 2
 621 133 l 1
 601 75 579 39 555 25 c 1
 530.333 8.33333 488 8.67362e-19 428 0 c 2
 127 0 l 1
 160 106 l 1
 246 106 l 1
 319 330 l 1
 329.667 356.667 338.667 375 346 385 c 1
 393 428 l 1
 413.667 443.333 429.333 457.667 440 471 c 0
 452.667 485 463 502.667 471 524 c 0
 479 546.667 483 565.333 483 580 c 2
 483 586 l 1
 481 599.333 472.333 612.333 457 625 c 1
 350 580 l 1
 268 625 l 1
 244 621 224.333 611.333 209 596 c 1
 193.667 582.667 182.667 570.333 176 559 c 1
 184.667 563.667 191.667 566.333 197 567 c 1
 205 571 219.333 573 240 573 c 0
 265.333 573 287 567 305 555 c 0
 319.667 546.333 330.667 531.333 338 510 c 1
 340 487 l 1
 340 473 338 458.667 334 444 c 1
 317.333 402 294 368.667 264 344 c 0
 228.667 316.667 191.333 303 152 303 c 0
 100.667 303 65.6667 320 47 354 c 1
 40.3333 375.333 37 394.667 37 412 c 0
 37 433.333 41 457 49 483 c 1
 72 539 l 2
 86.6667 573.667 110.333 605 143 633 c 1
 181.667 663 214.667 684 242 696 c 0
 272 710 296.333 717 315 717 c 1
 381 674 l 1
 444 700 l 1
 483 717 l 1
559 510 m 1
 548.333 486 538 468.333 528 457 c 1
 518 441.667 506.667 428.667 494 418 c 0
 482 406 470.333 391 459 373 c 0
 446.333 351.667 436.667 329.667 430 307 c 1
 365 106 l 1
 434 106 l 2
 459.333 106 477 109.667 487 117 c 0
 495.667 125 504 141.333 512 166 c 2
 588 401 l 2
 596 425.667 600 445.667 600 461 c 0
 600 473 597.333 481.667 592 487 c 0
 580 502.333 569 510 559 510 c 1
174 385 m 0
 191.333 385 206.333 390.333 219 401 c 0
 231 412.333 240 424.667 246 438 c 1
 250 459 l 1
 250 465 248 471 244 477 c 0
 238 487 226.333 492 209 492 c 0
 193.667 492 179.333 486.333 166 475 c 0
 152 465 143 452.667 139 438 c 1
 137 424 l 1
 141 401 l 1
 147.667 390.333 158.667 385 174 385 c 0
EndSplineSet
EndChar
StartChar: uni0E0C
Encoding: 142 3596
OldEncoding: 3596
Width: 978
Flags: W
Fore
526 82 m 1
 518.667 58 502.333 35.3333 477 14 c 1
 453.667 -3.33333 424.333 -12 389 -12 c 0
 354.333 -12 332 0.333333 322 25 c 0
 317.333 36.3333 315 49 315 63 c 0
 315 77.6667 318.667 97 326 121 c 0
 335.333 154.333 352.333 184.333 377 211 c 0
 400.333 234.333 429.667 250.667 465 260 c 1
 551 524 l 1
 555 555 l 1
 555 575 549 590 537 600 c 0
 515 617.333 482 627 438 629 c 0
 416.667 629 389.333 624 356 614 c 0
 319.333 604.667 289.333 590.333 266 571 c 1
 283.333 568.333 302 563 322 555 c 0
 348 545.667 369.667 532.667 387 516 c 1
 369 459 l 1
 346.333 459 322.333 452 297 438 c 0
 269 423.333 247.667 392.667 233 346 c 2
 203 248 l 1
 207 250 l 1
 213 250 l 2
 241.667 250 262.667 243.667 276 231 c 1
 293.333 219 303 202.667 305 182 c 2
 307 162 l 1
 307 147.333 305 133 301 119 c 0
 295.667 97.6667 283.333 76.3333 264 55 c 1
 248 35 228.333 18.6667 205 6 c 0
 180.333 -6 154.333 -12 127 -12 c 0
 84.3333 -12 56.3333 1 43 27 c 0
 35 41 31 56.6667 31 74 c 0
 31 88.6667 33.6667 104.333 39 121 c 2
 111 338 l 1
 123.667 379.333 138.667 410 156 430 c 1
 172 452.667 194.333 472.333 223 489 c 1
 216.333 494.333 202 500 180 506 c 0
 157.333 513.333 132.667 518 106 520 c 1
 121 559 l 1
 139 581.667 183.333 613.667 254 655 c 0
 318.667 693.667 399.333 713 496 713 c 0
 541.333 713 576.667 706 602 692 c 0
 629.333 678 647.667 661 657 641 c 0
 668.333 620.333 674 599.333 674 578 c 2
 674 573 l 1
 672 548.333 668 526 662 506 c 1
 582 254 l 1
 603.333 248 623 237.667 641 223 c 0
 665 204.333 678.667 192.667 682 188 c 0
 692 178 698 170 700 164 c 1
 872 696 l 1
 991 696 l 1
 766 0 l 1
 647 0 l 1
 645 20 637.667 50 625 90 c 1
 609 128.667 585 152.667 553 162 c 1
 526 82 l 1
154 63 m 0
 165.333 63 176 66 186 72 c 0
 196 77.3333 205 84 213 92 c 0
 217.667 98 222.333 107 227 119 c 1
 229 139 l 1
 225 160 l 1
 219.667 169.333 208 174 190 174 c 0
 173.333 174 157 168.667 141 158 c 0
 128.333 148 119.667 135 115 119 c 1
 111 102 l 1
 111 94.6667 113 88 117 82 c 0
 123 69.3333 135.333 63 154 63 c 0
422 70 m 1
 459 182 l 1
 441.667 180 427.333 173.333 416 162 c 0
 403.333 149.333 394.333 133 389 113 c 1
 385 94 l 1
 389 76 l 1
 391 64.6667 396.667 59 406 59 c 0
 412.667 59 418 62.6667 422 70 c 1
EndSplineSet
EndChar
StartChar: uni0E0D
Encoding: 143 3597
OldEncoding: 3597
Width: 978
Flags: W
Fore
1047 696 m 1
 862 133 l 1
 849.333 91.6667 835 63 819 47 c 0
 800.333 28.3333 779.333 16 756 10 c 0
 726 3.33333 691 2.1684e-19 651 0 c 2
 369 0 l 1
 401 106 l 1
 469 106 l 1
 606 524 l 1
 610 555 l 1
 610 575.667 603.333 590.667 590 600 c 0
 568 617.333 536 627 494 629 c 0
 473.333 629 445.333 624 410 614 c 0
 370.667 604 341.333 589.667 322 571 c 1
 339.333 568.333 357.667 563 377 555 c 0
 403 545.667 424.667 532.667 442 516 c 1
 424 459 l 1
 400 459 375.333 452 350 438 c 0
 326 424.667 305.667 394 289 346 c 2
 256 248 l 1
 260 250 l 1
 266 250 l 2
 293.333 250 315.333 243.667 332 231 c 0
 346.667 218.333 356 202 360 182 c 1
 362 162 l 1
 362 147.333 360 133 356 119 c 0
 348.667 97.6667 336.333 76.3333 319 55 c 0
 301.667 33.6667 281.333 17.3333 258 6 c 0
 232.667 -6 206.667 -12 180 -12 c 0
 140.667 -12 112.667 1 96 27 c 1
 89.3333 42.3333 86 58 86 74 c 0
 86 88.6667 88.6667 104.333 94 121 c 2
 166 338 l 1
 178 377.333 193 408 211 430 c 1
 227 453.333 249.667 473 279 489 c 1
 268.333 495 254 500.667 236 506 c 0
 208.667 514 184 518.667 162 520 c 1
 174 559 l 1
 194 580.333 238.333 612.333 307 655 c 0
 372.333 693.667 453.667 713 551 713 c 0
 597.667 713 633 706 657 692 c 0
 683 678.667 702.333 661.667 715 641 c 1
 724.333 622.333 729 601.333 729 578 c 2
 729 573 l 1
 726.333 541.667 723 519.333 719 506 c 1
 588 106 l 1
 686 106 l 2
 707.333 106 723 109.667 733 117 c 1
 741 125 748.667 141.333 756 166 c 1
 928 696 l 1
 1047 696 l 1
506 -236 m 1
 534 -236 564.667 -223.667 598 -199 c 0
 628.667 -175.667 658 -122.333 686 -39 c 1
 805 -39 l 1
 780.333 -114.333 747.667 -174.333 707 -219 c 1
 663.667 -264.333 620.667 -295 578 -311 c 0
 534.667 -329 490 -338 444 -338 c 0
 411.333 -338 382.667 -333.333 358 -324 c 1
 316 -304.667 291.667 -283.333 285 -260 c 0
 281 -250 279 -237 279 -221 c 0
 279 -206.333 282.333 -186.667 289 -162 c 0
 300.333 -128 322.667 -97.3333 356 -70 c 0
 388 -44 424.333 -31 465 -31 c 0
 509.667 -31 537.667 -44 549 -70 c 0
 555.667 -85.3333 559 -100.333 559 -115 c 0
 559 -131 556.333 -147.333 551 -164 c 0
 541 -194.667 526 -218.667 506 -236 c 1
403 -217 m 0
 419 -217 435 -211.667 451 -201 c 0
 462.333 -192.333 471.667 -179.333 479 -162 c 1
 483 -143 l 1
 483 -135 480.333 -128.333 475 -123 c 1
 468.333 -111.667 456.667 -106 440 -106 c 0
 425.333 -106 409.667 -111.667 393 -123 c 0
 380.333 -132.333 371.667 -145.333 367 -162 c 2
 362 -178 l 1
 362 -186 364.333 -193.667 369 -201 c 0
 375.667 -211.667 387 -217 403 -217 c 0
207 63 m 0
 218.333 63 229.333 66 240 72 c 0
 253.333 80 262 86.6667 266 92 c 0
 274.667 104 280.333 113 283 119 c 1
 285 139 l 1
 281 160 l 1
 274.333 169.333 262 174 244 174 c 0
 227.333 174 211.667 168.667 197 158 c 0
 181 146 172 133 170 119 c 1
 166 102 l 1
 170 82 l 1
 176.667 69.3333 189 63 207 63 c 0
EndSplineSet
EndChar
StartChar: uni0E0E
Encoding: 144 3598
OldEncoding: 3598
Width: 823
Flags: W
Fore
401 -96 m 1
 427 -113.333 446.333 -127 459 -137 c 1
 489 -172 l 1
 698 473 l 1
 705.333 493 709 510 709 524 c 0
 709 546.667 701.333 567.333 686 586 c 1
 663.333 610.667 627.333 623 578 623 c 0
 551.333 623 520.333 618 485 608 c 0
 447.667 599.333 415 586.333 387 569 c 1
 404.333 566.333 422.667 561.667 442 555 c 0
 463.333 549.667 485.333 536.667 508 516 c 1
 489 459 l 1
 465.667 459 442 452 418 438 c 0
 390 423.333 368.667 392.667 354 346 c 2
 283 125 l 1
 267.667 83 245 50.3333 215 27 c 1
 185.667 1.66667 148 -12 102 -14 c 1
 59.3333 -12 30 1.66667 14 27 c 0
 4.66667 40.3333 4.33681e-19 56.6667 0 76 c 0
 0 90.6667 2.66667 105.667 8 121 c 0
 24 161.667 47.3333 194.333 78 219 c 1
 109.333 246.333 146.667 260 190 260 c 2
 201 260 l 1
 205 258 l 1
 231 338 l 1
 245 379.333 260 410 276 430 c 0
 296.667 454.667 320 474.333 346 489 c 1
 336.667 495 321.667 500.667 301 506 c 0
 275 514 250.333 518.667 227 520 c 1
 240 559 l 1
 276 590 l 2
 301.333 611.333 326 628.333 350 641 c 1
 382 660.333 421.667 677.333 469 692 c 0
 513 706 562 713 616 713 c 0
 667.333 713 712.667 704 752 686 c 0
 789.333 667.333 813.667 641.333 825 608 c 0
 831 594 834 577.667 834 559 c 0
 834 537.667 829.667 512.333 821 483 c 1
 555 -334 l 1
 436 -334 l 1
 420.667 -293.333 403.667 -263.333 385 -244 c 1
 336 -197 l 1
 307.333 -235 272.333 -267 231 -293 c 1
 180.333 -322.333 132.667 -336 88 -334 c 0
 48.6667 -334 19.3333 -319 0 -289 c 0
 -10.6667 -271 -16 -252.333 -16 -233 c 0
 -16 -220.333 -12.6667 -203.333 -6 -182 c 0
 7.33333 -137.333 35.3333 -101.333 78 -74 c 0
 116.667 -47.3333 161.667 -33 213 -31 c 0
 243.667 -31 279 -38.3333 319 -53 c 1
 338 -20 l 1
 371 39 l 1
 463 16 l 1
 452.333 -8.66667 441.333 -29.6667 430 -47 c 1
 401 -95 l 1
 401 -96 l 1
127 63 m 0
 145 63 161.333 69.3333 176 82 c 0
 190 94 200.333 107.667 207 123 c 1
 211 143 l 1
 211 152.333 209 160 205 166 c 0
 198.333 176.667 185.333 182 166 182 c 0
 147.333 182 131.667 176.667 119 166 c 0
 105 154.667 94.6667 140.333 88 123 c 1
 86 104 l 1
 90 82 l 1
 96.6667 69.3333 109 63 127 63 c 0
170 -225 m 1
 196.667 -214.333 216.333 -201.333 229 -186 c 1
 244.333 -171.333 254 -159.333 258 -150 c 1
 236.667 -137.333 210.667 -131 180 -131 c 0
 155.333 -131 135.667 -136.333 121 -147 c 0
 104.333 -157 92.6667 -170.667 86 -188 c 1
 86 -207 l 2
 86 -224.333 100.333 -233 129 -233 c 0
 147.667 -233 161.333 -230.333 170 -225 c 1
EndSplineSet
EndChar
StartChar: uni0E0F
Encoding: 145 3599
OldEncoding: 3599
Width: 823
Flags: W
Fore
440 -104 m 1
 487 -176 l 1
 698 473 l 1
 705.333 493 709 510 709 524 c 0
 709 546.667 701.333 567.333 686 586 c 1
 663.333 610.667 627.333 623 578 623 c 0
 551.333 623 520.333 618 485 608 c 0
 447.667 599.333 415 586.333 387 569 c 1
 404.333 566.333 422.667 561.667 442 555 c 0
 463.333 549.667 485.333 536.667 508 516 c 1
 489 459 l 1
 465.667 459 442 452 418 438 c 0
 390 423.333 368.667 392.667 354 346 c 2
 283 125 l 1
 267.667 83 245 50.3333 215 27 c 1
 185.667 1.66667 148 -12 102 -14 c 1
 59.3333 -12 30 1.66667 14 27 c 0
 4.66667 40.3333 4.33681e-19 56.6667 0 76 c 0
 0 90.6667 2.66667 105.667 8 121 c 0
 24 161.667 47.3333 194.333 78 219 c 1
 109.333 246.333 146.667 260 190 260 c 2
 201 260 l 1
 205 258 l 1
 231 338 l 1
 245 379.333 260 410 276 430 c 0
 296.667 454.667 320 474.333 346 489 c 1
 336.667 495 321.667 500.667 301 506 c 0
 275 514 250.333 518.667 227 520 c 1
 240 559 l 1
 276 590 l 2
 301.333 611.333 326 628.333 350 641 c 1
 382 660.333 421.667 677.333 469 692 c 0
 513 706 562 713 616 713 c 0
 667.333 713 712.667 704 752 686 c 0
 789.333 667.333 813.667 641.333 825 608 c 0
 831 594 834 577.667 834 559 c 0
 834 537.667 829.667 512.333 821 483 c 1
 555 -334 l 1
 442 -334 l 1
 391 -233 l 1
 264 -334 l 1
 262.667 -316.667 257.333 -297.333 248 -276 c 0
 243.333 -265.333 237 -254 229 -242 c 1
 217.667 -258 198 -277 170 -299 c 0
 139.333 -323.667 101.667 -336 57 -336 c 0
 20.3333 -336 -4.66667 -323 -18 -297 c 1
 -26.6667 -283.667 -31 -267.333 -31 -248 c 0
 -31 -232 -27.3333 -212 -20 -188 c 1
 -6 -151.333 18.3333 -122.667 53 -102 c 0
 85.6667 -82 120 -72 156 -72 c 0
 190.667 -72 220 -81.3333 244 -100 c 1
 276 -45 l 2
 292.667 -17 306.333 9.66667 317 35 c 1
 399 20 l 1
 354.333 -71.3333 321 -130.667 299 -158 c 1
 309 -172 l 2
 313.667 -179.333 317 -187 319 -195 c 1
 395 -139 l 2
 425 -117.667 440 -106 440 -104 c 1
127 63 m 1
 147.667 66.3333 163.333 73.3333 174 84 c 0
 186.667 94.6667 195.667 107.667 201 123 c 1
 205 145 l 1
 205 153 203 160 199 166 c 0
 192.333 176.667 178 182 156 182 c 1
 138.667 180 123 174 109 164 c 0
 95 153.333 86 140.333 82 125 c 1
 78 104 l 1
 78 94.6667 80.6667 87.3333 86 82 c 1
 92.6667 69.3333 106.333 63 127 63 c 1
119 -242 m 0
 130.333 -237.333 144 -226.333 160 -209 c 1
 178 -186 l 1
 178 -186 l 1
 163.333 -167.333 145.667 -158 125 -158 c 0
 99 -158 79.3333 -168.667 66 -190 c 1
 61.3333 -202 59 -211.667 59 -219 c 0
 59 -238.333 68.6667 -248 88 -248 c 0
 98.6667 -248 109 -246 119 -242 c 0
EndSplineSet
EndChar
StartChar: uni0E10
Encoding: 146 3600
OldEncoding: 3600
Width: 622
Flags: W
Fore
336 0 m 1
 340 66 l 1
 336 133 l 1
 334 186.333 331.333 213 328 213 c 1
 323.333 208.333 309.667 198.667 287 184 c 1
 264.333 173.333 238.333 168 209 168 c 0
 164.333 168 135 181.667 121 209 c 0
 113 223 109 239.333 109 258 c 0
 109 275.333 111.667 291 117 305 c 1
 127 342.333 149.333 374.333 184 401 c 0
 216.667 427.667 255 442 299 444 c 0
 337.667 444 366.333 436.667 385 422 c 1
 401 406 410 379.333 412 342 c 1
 420 281 l 1
 424 242 l 1
 453 338 l 1
 465 382.667 471 409.333 471 418 c 0
 471 434 465.667 445.667 455 453 c 0
 449 456.333 428.333 463.667 393 475 c 0
 335 492.333 291.333 503.333 262 508 c 2
 158 524 l 1
 172 569 l 1
 198.667 595.667 228 620.333 260 643 c 0
 294.667 667 326.667 684 356 694 c 0
 388 706.667 421.667 713 457 713 c 0
 499.667 713 541.333 705.333 582 690 c 1
 631.333 674 662 666 674 666 c 0
 695.333 666 722.667 672 756 684 c 1
 756 682 l 1
 754 649 l 1
 748 590 l 1
 702.667 577.333 667.667 571 643 571 c 1
 596 575 l 1
 537 598 l 1
 475 618 l 2
 461.667 622.667 446 625 428 625 c 0
 409.333 625 390.333 620.667 371 612 c 0
 351 604.667 338.667 597.333 334 590 c 1
 408 578 l 1
 446.667 570 472.333 563.667 485 559 c 1
 553 541 590 516.333 596 485 c 1
 598 461 l 1
 598 429.667 589.667 390 573 342 c 1
 463 0 l 1
 336 0 l 1
238 -307 m 1
 279 -285 l 1
 287 -260 l 1
 285.667 -261.333 280.667 -262 272 -262 c 0
 236 -262 211 -250.333 197 -227 c 0
 189.667 -212.333 186 -198 186 -184 c 0
 186 -172 188.333 -159 193 -145 c 0
 203.667 -113 223.333 -85.6667 252 -63 c 0
 282 -40.3333 314 -29 348 -29 c 0
 382.667 -29 406.667 -39.6667 420 -61 c 0
 428 -73.6667 432 -88 432 -104 c 0
 432 -115.333 430 -127 426 -139 c 2
 387 -262 l 1
 381 -283.333 370 -299.667 354 -311 c 1
 338.667 -325.667 319.667 -338 297 -348 c 2
 215 -387 l 1
 152 -342 l 1
 68 -385 l 1
 31 -330 l 1
 -3 -372.667 -46.6667 -393 -100 -391 c 0
 -127.333 -391 -148.667 -379.333 -164 -356 c 0
 -170.667 -344.667 -174 -331 -174 -315 c 0
 -174 -302.333 -172 -288.667 -168 -274 c 0
 -157.333 -244.667 -136.667 -221 -106 -203 c 1
 -77.3333 -183.667 -48 -174 -18 -174 c 0
 10 -174 33 -183.667 51 -203 c 1
 80 -150 l 1
 115 -57 l 1
 193 -57 l 1
 177.667 -102.333 162.333 -139.333 147 -168 c 0
 124.333 -211.333 104.667 -242.667 88 -262 c 1
 111 -295 l 1
 145 -279 l 1
 178 -260 l 1
 238 -307 l 1
-43 -244 m 0
 -55 -244 -66 -248 -76 -256 c 0
 -84.6667 -263.333 -91.3333 -273 -96 -285 c 1
 -98 -299 l 1
 -98 -312.333 -88 -319 -68 -319 c 0
 -51.3333 -319 -37 -313 -25 -301 c 1
 -14.3333 -293 -5.33333 -283.333 2 -272 c 1
 0 -266 -4 -260 -10 -254 c 0
 -16.6667 -247.333 -27.6667 -244 -43 -244 c 0
297 -193 m 0
 309.667 -193 322 -188 334 -178 c 0
 345.333 -168.667 352 -158.333 354 -147 c 1
 358 -131 l 1
 354 -115 l 1
 350.667 -105 342 -100 328 -100 c 0
 311.333 -100 298.333 -105 289 -115 c 0
 276.333 -127.667 268.667 -138.333 266 -147 c 2
 262 -162 l 1
 262 -166.667 264 -172 268 -178 c 1
 272 -188 281.667 -193 297 -193 c 0
238 252 m 0
 254 252 269 257.333 283 268 c 1
 295 279.333 303 291.667 307 305 c 1
 311 326 l 1
 307 342 l 1
 300.333 352.667 288.667 358 272 358 c 0
 256 358 241 352.667 227 342 c 0
 215 332 207 319.667 203 305 c 2
 199 289 l 1
 199 281 201 274 205 268 c 0
 211.667 257.333 222.667 252 238 252 c 0
EndSplineSet
EndChar
StartChar: uni0E11
Encoding: 147 3601
OldEncoding: 3601
Width: 960
Flags: W
Fore
473 424 m 1
 428 287 l 1
 645 582 l 2
 671.667 619.333 699 650 727 674 c 0
 749 691.333 782.333 700 827 700 c 0
 891.667 700 928 685.667 936 657 c 1
 938 631 l 1
 938 605 932 573 920 535 c 1
 745 0 l 1
 627 0 l 1
 797 526 l 1
 807.667 561.333 813 582.667 813 590 c 2
 813 592 l 2
 813 599.333 808.333 604 799 606 c 1
 787.667 606 778.667 602.667 772 596 c 0
 764 588 759.333 582 758 578 c 1
 330 0 l 1
 217 0 l 1
 356 430 l 2
 373.333 484.667 407.667 525 459 551 c 0
 478.333 559.667 489.333 569.333 492 580 c 1
 492 586 l 2
 492 596.667 481.667 609.667 461 625 c 1
 352 580 l 1
 270 625 l 1
 248 621 228.333 611.333 211 596 c 0
 195.667 582.667 184.667 570.333 178 559 c 1
 181.333 562.333 188.333 565 199 567 c 1
 209 571 223.333 573 242 573 c 0
 269.333 573 291 567 307 555 c 1
 323 545.667 333.333 530.667 338 510 c 1
 342 485 l 1
 342 471 339.333 457.333 334 444 c 0
 321.333 404 298.667 370.667 266 344 c 0
 230.667 316.667 193.333 303 154 303 c 0
 102 303 67.6667 319.333 51 352 c 0
 43 369.333 39 388.667 39 410 c 0
 39 431.333 43 455 51 481 c 0
 55.6667 496.333 63.3333 515.667 74 539 c 0
 90 573.667 114.333 605.667 147 635 c 0
 176.333 661 208.667 681.333 244 696 c 0
 274 710 299 717 319 717 c 1
 383 674 l 1
 485 717 l 1
 518.333 711 546.333 694.667 569 668 c 0
 584.333 648.667 592 628.667 592 608 c 0
 592 597.333 590 586.333 586 575 c 0
 580.667 560.333 573.667 547.667 565 537 c 0
 560.333 530.333 549.333 520 532 506 c 0
 519.333 495.333 508 483.667 498 471 c 1
 488 461.667 479.667 446 473 424 c 1
178 385 m 0
 195.333 385 210.333 390.333 223 401 c 0
 235.667 411.667 244 424 248 438 c 1
 252 459 l 1
 248 477 l 1
 242 487 230.333 492 213 492 c 0
 197.667 492 183.333 486.333 170 475 c 1
 156.667 465.667 147 453.333 141 438 c 1
 139 424 l 1
 139 416 141 408.333 145 401 c 0
 152.333 390.333 163.333 385 178 385 c 0
EndSplineSet
EndChar
StartChar: uni0E12
Encoding: 148 3602
OldEncoding: 3602
Width: 1013
Flags: W
Fore
170 145 m 1
 197.333 171 217.667 191.667 231 207 c 1
 291 266 l 1
 261.667 268 240.333 282.333 227 309 c 1
 220.333 325.667 217 341.333 217 356 c 0
 217 373.333 219.667 389 225 403 c 0
 237.667 441.667 261 474 295 500 c 0
 330.333 526 368 539 408 539 c 0
 449.333 539 478.667 526.667 496 502 c 1
 504 487.333 508 470.333 508 451 c 0
 508 434.333 505.333 417.667 500 401 c 0
 484.667 355.667 459.333 315.667 424 281 c 2
 145 0 l 1
 41 0 l 1
 63.6667 74.6667 76 128.667 78 162 c 1
 66 225 l 1
 58.6667 265.667 55 304 55 340 c 0
 55 382.667 62 421.667 76 457 c 1
 95.3333 513 136.333 565.333 199 614 c 1
 259 662.667 316.333 694.333 371 709 c 1
 467 662 l 1
 596 711 l 1
 654 675.667 688.667 642 700 610 c 1
 706 601.333 709 587 709 567 c 0
 709 543.667 702.667 512.333 690 473 c 2
 618 254 l 1
 649.333 246 675.333 231.667 696 211 c 0
 717.333 187.667 730.333 172 735 164 c 1
 907 696 l 1
 1028 696 l 1
 803 0 l 1
 682 0 l 1
 679.333 28 671.667 58 659 90 c 1
 646.333 128.667 623.333 152.667 590 162 c 1
 563 82 l 1
 555.667 56.6667 538.667 34 512 14 c 0
 488 -3.33333 459.333 -12 426 -12 c 0
 391.333 -12 368.667 0.333333 358 25 c 0
 352.667 35.6667 350 48.3333 350 63 c 0
 350 76.3333 353.333 95.6667 360 121 c 1
 376.667 160.333 394.667 190.333 414 211 c 0
 437.333 234.333 466.667 250.667 502 260 c 1
 575 489 l 1
 585 515.667 590 538.333 590 557 c 1
 588 573 l 1
 584 589.667 573.667 603.333 557 614 c 1
 438 573 l 1
 340 614 l 1
 254 575.333 199.333 521.667 176 453 c 0
 168 425.667 164 394 164 358 c 0
 164 340.667 166.667 308.667 172 262 c 1
 178 205 l 1
 176 186 l 1
 170 145 l 1
457 70 m 1
 494 182 l 1
 462 178 439.333 155 426 113 c 1
 422 92 l 1
 426 76 l 1
 428 64.6667 432.667 59 440 59 c 0
 447.333 59 453 62.6667 457 70 c 1
344 346 m 0
 360.667 346 376.333 351.333 391 362 c 1
 403 374.667 411.333 387.667 416 401 c 1
 420 422 l 1
 416 440 l 1
 410.667 450 399 455 381 455 c 0
 365 455 350.667 449.333 338 438 c 1
 324.667 428.667 315 416.333 309 401 c 1
 307 383 l 1
 311 362 l 1
 317.667 351.333 328.667 346 344 346 c 0
EndSplineSet
EndChar
StartChar: uni0E13
Encoding: 149 3603
OldEncoding: 3603
Width: 1011
Flags: W
Fore
383 0 m 1
 553 524 l 1
 557 555 l 1
 557 575 551 590 539 600 c 0
 517 617.333 484 627 440 629 c 0
 418.667 629 391.333 624 358 614 c 0
 318.667 604 288.667 589.667 268 571 c 1
 285.333 568.333 304 563 324 555 c 0
 350 545.667 371.667 532.667 389 516 c 1
 371 459 l 1
 348.333 459 324.333 452 299 438 c 0
 271 423.333 250 392.667 236 346 c 1
 205 248 l 1
 209 250 l 1
 213 250 l 2
 242.333 250 264.333 243.667 279 231 c 0
 295.667 218.333 305 202 307 182 c 2
 309 162 l 1
 309 147.333 307 133 303 119 c 0
 297.667 97.6667 285.333 76.3333 266 55 c 1
 250 35 230.333 18.6667 207 6 c 0
 182.333 -6 156.333 -12 129 -12 c 0
 86.3333 -12 58.3333 1 45 27 c 0
 37 41 33 56.6667 33 74 c 0
 33 88.6667 35.6667 104.333 41 121 c 2
 113 338 l 1
 125.667 379.333 140.667 410 158 430 c 1
 174 452.667 196.333 472.333 225 489 c 1
 215.667 495 201.333 500.667 182 506 c 0
 159.333 513.333 135 518 109 520 c 1
 123 559 l 1
 141 581.667 185.333 613.667 256 655 c 0
 321.333 693.667 402 713 498 713 c 0
 544.667 713 580 706 604 692 c 0
 631.333 678 649.667 661 659 641 c 0
 670.333 620.333 676 599.333 676 578 c 2
 676 573 l 1
 674 548.333 670 526 664 506 c 1
 571 217 l 1
 591 237 622 258.333 664 281 c 0
 700 301 729.333 313 752 317 c 1
 874 696 l 1
 993 696 l 1
 870 317 l 1
 910 309 936 288.667 948 256 c 0
 953.333 243.333 956 227.667 956 209 c 0
 956 188.333 952 164.333 944 137 c 0
 929.333 90.3333 904 54.3333 868 29 c 1
 831.333 0.333333 794 -14 756 -14 c 0
 724.667 -14 701.333 -5.33333 686 12 c 0
 676.667 22 672 35 672 51 c 0
 672 66.3333 674.667 82 680 98 c 2
 723 229 l 1
 677 213.667 634 183.667 594 139 c 1
 550 93 518 46.6667 498 0 c 1
 383 0 l 1
156 63 m 0
 167.333 63 178 66 188 72 c 0
 199.333 78 207.667 84.6667 213 92 c 0
 220.333 102 225.667 111 229 119 c 1
 231 139 l 1
 227 160 l 1
 221.667 169.333 210.333 174 193 174 c 0
 175.667 174 159 168.667 143 158 c 0
 130.333 148 121.667 135 117 119 c 1
 113 102 l 1
 113 94.6667 115 88 119 82 c 0
 125 69.3333 137.333 63 156 63 c 0
866 147 m 1
 870 178 l 1
 866 201 l 1
 859.333 215.667 851.333 225 842 229 c 1
 799 100 l 1
 797 86 l 1
 797 78 800.333 74 807 74 c 0
 817.667 76 829.333 84 842 98 c 1
 852 113.333 860 129.667 866 147 c 1
EndSplineSet
EndChar
StartChar: uni0E14
Encoding: 150 3604
OldEncoding: 3604
Width: 747
Flags: W
Fore
467 713 m 0
 568.333 711 636 687 670 641 c 0
 690 612.333 700 580.333 700 545 c 0
 700 524.333 696 500.333 688 473 c 1
 535 0 l 1
 416 0 l 1
 571 483 l 1
 577 495.667 580 508.667 580 522 c 0
 580 546 571 565.333 553 580 c 0
 525.667 600 486.667 610 436 610 c 0
 379.333 610 326 595 276 565 c 1
 224 536.333 190 495.333 174 442 c 0
 167.333 423.333 164 395.333 164 358 c 0
 164 328.667 166 296.667 170 262 c 0
 172 240 174 221 176 205 c 1
 174 186 l 1
 168 145 l 1
 229 205 l 1
 289 264 l 1
 261.667 266 240.333 280.333 225 307 c 0
 217 322.333 213 338 213 354 c 0
 213 371.333 215.667 387 221 401 c 0
 236.333 440.333 260.333 472.667 293 498 c 0
 325.667 524 363.333 537 406 537 c 0
 448 537 476.667 524.667 492 500 c 0
 501.333 484 506 466 506 446 c 0
 506 431.333 503.333 415.667 498 399 c 0
 484 354.333 458.667 314.333 422 279 c 1
 143 0 l 1
 39 0 l 1
 61.6667 74.6667 74 128.667 76 162 c 1
 66 225 l 1
 58.6667 261.667 55 296.667 55 330 c 2
 55 340 l 2
 55 380 62 419 76 457 c 0
 91.3333 498.333 118.667 538.667 158 578 c 0
 199.333 618 245.667 650.667 297 676 c 1
 351.667 700.667 408.333 713 467 713 c 0
342 346 m 0
 358.667 346 374.333 351.333 389 362 c 1
 400.333 374.667 408.667 387 414 399 c 1
 418 420 l 1
 414 438 l 1
 408.667 448 397 453 379 453 c 0
 362.333 453 347.333 447.333 334 436 c 1
 320 426.667 311 414.333 307 399 c 1
 305 383 l 1
 309 362 l 1
 315.667 351.333 326.667 346 342 346 c 0
EndSplineSet
EndChar
StartChar: uni0E15
Encoding: 151 3605
OldEncoding: 3605
Width: 747
Flags: W
Fore
535 0 m 1
 414 0 l 1
 573 489 l 1
 583 515.667 588 538.333 588 557 c 1
 586 573 l 1
 582 589.667 571.667 603.333 555 614 c 1
 436 573 l 1
 338 614 l 1
 252 575.333 197.333 521.667 174 453 c 0
 166 425.667 162 394 162 358 c 0
 162 340.667 164.667 308.667 170 262 c 1
 176 205 l 1
 174 186 l 1
 168 145 l 1
 195.333 171 215.667 191.667 229 207 c 1
 289 266 l 1
 259.667 268 238.333 282.333 225 309 c 1
 218.333 325.667 215 341.333 215 356 c 0
 215 373.333 217.667 389 223 403 c 0
 235.667 441.667 259 474 293 500 c 0
 328.333 526 366 539 406 539 c 0
 447.333 539 476.667 526.667 494 502 c 1
 500.667 485.333 504 468.333 504 451 c 0
 504 437 502 420.333 498 401 c 1
 482.667 355.667 457.333 315.667 422 281 c 2
 143 0 l 1
 39 0 l 1
 61.6667 74.6667 74 128.667 76 162 c 1
 63 225 l 1
 56.3333 268.333 53 306.667 53 340 c 0
 53 382.667 60 421.667 74 457 c 1
 93.3333 513 134.333 565.333 197 614 c 1
 257 662.667 314.333 694.333 369 709 c 1
 465 662 l 1
 594 711 l 1
 652 675.667 686.667 642 698 610 c 0
 702.667 598 705 583.667 705 567 c 0
 705 543.667 698.667 512.333 686 473 c 2
 535 0 l 1
342 346 m 0
 358.667 346 374.333 351.333 389 362 c 1
 401 374.667 409.333 387.667 414 401 c 1
 418 422 l 1
 414 440 l 1
 408.667 450 397 455 379 455 c 0
 363 455 348.667 449.333 336 438 c 1
 322.667 428.667 313 416.333 307 401 c 1
 305 383 l 1
 309 362 l 1
 315.667 351.333 326.667 346 342 346 c 0
EndSplineSet
EndChar
StartChar: uni0E16
Encoding: 152 3606
OldEncoding: 3606
Width: 755
Flags: W
Fore
207 262 m 1
 221 262 l 2
 267 262 297 248.333 311 221 c 0
 319.667 203.667 324 186.667 324 170 c 0
 324 154.667 321.667 139.667 317 125 c 0
 304.333 85.6667 281.333 53.6667 248 29 c 1
 214.667 1.66667 176.333 -12 133 -12 c 0
 91.6667 -12 63 1.66667 47 29 c 1
 37.6667 42.3333 33 58.6667 33 78 c 0
 33 95.3333 35.6667 111 41 125 c 1
 111 338 l 1
 123.667 379.333 138.667 410 156 430 c 1
 172 452.667 194.333 472.333 223 489 c 1
 216.333 494.333 202 500 180 506 c 0
 154 514 129.333 518.667 106 520 c 1
 121 559 l 1
 156 590 l 1
 169.333 603.333 193.667 620.333 229 641 c 1
 275 664.333 314.667 681.333 348 692 c 0
 392 706 441.333 713 496 713 c 0
 552 713 597 704.667 631 688 c 0
 665.667 670 690.333 644 705 610 c 0
 710.333 597.333 713 581 713 561 c 0
 713 535.667 708 509.667 698 483 c 1
 543 0 l 1
 424 0 l 1
 578 473 l 2
 584.667 494.333 588 511.333 588 524 c 0
 588 548 580.333 568.667 565 586 c 0
 542.333 610.667 506.333 623 457 623 c 0
 399.667 623 336 605 266 569 c 1
 272 567 281 565 293 563 c 1
 338 549 l 1
 357.333 540.333 373.667 529.333 387 516 c 1
 369 459 l 1
 346.333 459 322.333 452 297 438 c 0
 269 423.333 247.667 392.667 233 346 c 2
 207 262 l 1
168 66 m 1
 186 68 201 74 213 84 c 0
 225 92.6667 234.667 105.667 242 123 c 1
 246 145 l 1
 246 154.333 244 162 240 168 c 0
 232.667 178.667 218.333 184 197 184 c 1
 179 182 164 176 152 166 c 1
 138.667 157.333 129.667 143.667 125 125 c 1
 121 106 l 1
 121 97.3333 123 90 127 84 c 0
 133 72 146.667 66 168 66 c 1
EndSplineSet
EndChar
StartChar: uni0E17
Encoding: 153 3607
OldEncoding: 3607
Width: 819
Flags: W
Fore
82 0 m 1
 223 436 l 1
 217.667 434.667 202.667 434 178 434 c 1
 144.667 438 121.667 453.667 109 481 c 0
 103 493.667 100 508.667 100 526 c 0
 100 543.333 103 559 109 573 c 1
 121 610.333 142.667 642.667 174 670 c 1
 207.333 696 245.667 709 289 709 c 0
 333.667 709 364.333 695.333 381 668 c 0
 389 653.333 393 636.667 393 618 c 0
 393 600.667 390.333 583.667 385 567 c 2
 293 287 l 1
 510 582 l 2
 542.667 626.667 570 658 592 676 c 1
 614 692 647.333 700 692 700 c 0
 756.667 700 793 685.667 801 657 c 1
 803 631 l 1
 803 604.333 796.667 572.333 784 535 c 1
 610 0 l 1
 492 0 l 1
 662 526 l 1
 680 590 l 1
 680 592 l 2
 680 599.333 674.667 604 664 606 c 0
 654 606 645.667 602.667 639 596 c 0
 630.333 589.333 625 583.333 623 578 c 1
 195 0 l 1
 82 0 l 1
227 516 m 0
 244.333 516 259.333 521.333 272 532 c 0
 284 542 293 555 299 571 c 1
 301 592 l 1
 297 610 l 1
 291.667 620 280 625 262 625 c 0
 248 625 233 619.333 217 608 c 0
 205 598 197 585.667 193 571 c 1
 189.667 564.333 188 558.333 188 553 c 0
 188 547 189.667 540 193 532 c 0
 199.667 521.333 211 516 227 516 c 0
EndSplineSet
EndChar
StartChar: uni0E18
Encoding: 154 3608
OldEncoding: 3608
Width: 649
Flags: W
Fore
227 561 m 1
 248 563 l 1
 297 563 l 2
 418.333 563 500.333 540.667 543 496 c 0
 556.333 482 563 460.667 563 432 c 0
 563 408 557 377.333 545 340 c 2
 479 133 l 1
 460.333 77 439.333 41 416 25 c 0
 391.333 8.33333 348.333 8.67362e-19 287 0 c 2
 -49 0 l 1
 -14 106 l 1
 72 106 l 1
 176 432 l 1
 295 432 l 1
 188 106 l 1
 297 106 l 2
 322.333 106 338.667 109.667 346 117 c 0
 354 124.333 362.333 140.667 371 166 c 1
 426 342 l 1
 432.667 361.333 437.333 380.333 440 399 c 1
 440 414.333 433.333 428.667 420 442 c 0
 408.667 454 377.333 463 326 469 c 0
 268 475.667 211.333 479 156 479 c 2
 72 477 l 1
 94 549 l 1
 132.667 591.667 178.333 629.333 231 662 c 1
 288.333 694.667 345.667 711 403 711 c 0
 441.667 711 484.667 703.333 532 688 c 1
 574.667 672 604.333 664 621 664 c 0
 646.333 664 673.333 670.667 702 684 c 1
 702 596 l 1
 660.667 580.667 626 573 598 573 c 0
 574.667 573 537 581.333 485 598 c 0
 436.333 614.667 394.667 623 360 623 c 0
 329.333 623 301.333 615.333 276 600 c 0
 262.667 591.333 246.333 578.333 227 561 c 1
EndSplineSet
EndChar
StartChar: uni0E19
Encoding: 155 3609
OldEncoding: 3609
Width: 808
Flags: W
Fore
649 696 m 1
 768 696 l 1
 645 317 l 1
 684.333 309 711 288.667 725 256 c 1
 729 242 731 226.333 731 209 c 0
 731 191 727.667 167 721 137 c 1
 705 91.6667 679 55.6667 643 29 c 1
 608.333 0.333333 570.667 -14 530 -14 c 0
 498.667 -14 476.333 -5.33333 463 12 c 0
 451.667 24.6667 446 37.6667 446 51 c 0
 446 60.3333 449.667 76 457 98 c 1
 498 229 l 1
 440.667 213.667 381 181.667 319 133 c 0
 259 86.3333 216 42 190 0 c 1
 76 0 l 1
 219 440 l 1
 213 440 l 1
 199 438 l 1
 158.333 438 129.667 452.333 113 481 c 0
 104.333 497.667 100 514.667 100 532 c 0
 100 548.667 103 563 109 575 c 1
 119 612.333 140.667 644.667 174 672 c 1
 210.667 699.333 249 713 289 713 c 0
 327 713 355.667 702 375 680 c 0
 387 666 393 649 393 629 c 0
 393 617 391 604 387 590 c 1
 254 178 l 1
 294.667 216 337.667 245.333 383 266 c 0
 431.667 290 480 307 528 317 c 1
 649 696 l 1
227 520 m 0
 244.333 520 259.333 525.667 272 537 c 0
 284 546.333 293 559 299 575 c 1
 303 596 l 1
 299 614 l 1
 293.667 624 281.333 629 262 629 c 0
 246 629 231.667 623.333 219 612 c 0
 207 602 199 589.667 195 575 c 2
 190 555 l 1
 195 537 l 1
 201 525.667 211.667 520 227 520 c 0
641 147 m 0
 645 159.667 647 171.333 647 182 c 1
 645 203 l 1
 639 217 629.333 225.667 616 229 c 1
 573 100 l 1
 573 88 l 2
 573 78.6667 576.667 74 584 74 c 1
 592 76.6667 598.667 80.6667 604 86 c 0
 614.667 96.6667 622.333 107 627 117 c 1
 634.333 125.667 639 135.667 641 147 c 0
EndSplineSet
EndChar
StartChar: uni0E1A
Encoding: 156 3610
OldEncoding: 3610
Width: 776
Flags: W
Fore
94 106 m 1
 203 436 l 1
 158 434 l 1
 122 438 98.6667 453.667 88 481 c 0
 82.6667 494.333 80 509.333 80 526 c 0
 80 541.333 82 557 86 573 c 0
 94 597 107 619.667 125 641 c 0
 140.333 661 160.667 677.333 186 690 c 0
 212.667 702.667 240 709 268 709 c 0
 312.667 709 343.333 695.333 360 668 c 0
 368.667 653.333 373 636.667 373 618 c 0
 373 600.667 370.333 583.667 365 567 c 2
 213 106 l 1
 414 106 l 2
 440 106 458.333 110.333 469 119 c 0
 477.667 124.333 486.667 140 496 166 c 1
 668 696 l 1
 788 696 l 1
 606 135 l 1
 590 83 564 47.6667 528 29 c 0
 493.333 9.66667 443.667 -8.67362e-19 379 0 c 2
 -29 0 l 1
 4 106 l 1
 94 106 l 1
207 516 m 0
 222.333 516 237.333 521.333 252 532 c 0
 263.333 542 272.333 555 279 571 c 1
 281 590 l 1
 281 596.667 279.333 603.333 276 610 c 0
 270.667 620 259.333 625 242 625 c 0
 226.667 625 212.333 619.333 199 608 c 1
 183.667 597.333 174 585 170 571 c 1
 168 553 l 1
 172 532 l 1
 178.667 521.333 190.333 516 207 516 c 0
EndSplineSet
EndChar
StartChar: uni0E1B
Encoding: 157 3611
OldEncoding: 3611
Width: 776
Flags: W
Fore
51 106 m 1
 160 436 l 1
 115 434 l 1
 79 438 55.6667 453.667 45 481 c 0
 39.6667 494.333 37 509.333 37 526 c 0
 37 541.333 39 557 43 573 c 0
 51 597 64 619.667 82 641 c 0
 97.3333 661 117.667 677.333 143 690 c 0
 169.667 702.667 197 709 225 709 c 0
 269.667 709 300.333 695.333 317 668 c 0
 325.667 653.333 330 636.667 330 618 c 0
 330 600.667 327.333 583.667 322 567 c 2
 170 106 l 1
 371 106 l 2
 397 106 415.333 110.333 426 119 c 0
 434.667 124.333 443.667 140 453 166 c 1
 715 969 l 1
 836 969 l 1
 563 135 l 1
 547 83 521 47.6667 485 29 c 0
 450.333 9.66667 400.667 -8.67362e-19 336 0 c 2
 -72 0 l 1
 -39 106 l 1
 51 106 l 1
164 516 m 0
 179.333 516 194.333 521.333 209 532 c 0
 220.333 542 229.333 555 236 571 c 1
 238 590 l 1
 238 596.667 236.333 603.333 233 610 c 0
 227.667 620 216.333 625 199 625 c 0
 183.667 625 169.333 619.333 156 608 c 1
 140 597.333 131 585 129 571 c 1
 125 553 l 1
 129 532 l 1
 135.667 521.333 147.333 516 164 516 c 0
EndSplineSet
EndChar
StartChar: uni0E1C
Encoding: 158 3612
OldEncoding: 3612
Width: 765
Flags: W
Fore
96 0 m 1
 -16 0 l 1
 168 567 l 1
 180.667 608.333 204 642 238 668 c 0
 271.333 695.333 310 709 354 709 c 0
 385.333 709 409.333 702.667 426 690 c 0
 443.333 676.667 453 660.333 455 641 c 2
 457 621 l 1
 457 604.333 454.333 588.333 449 573 c 0
 437.667 537.667 417 507 387 481 c 0
 356.333 453.667 323.667 438 289 434 c 1
 264.333 434 249.333 434.667 244 436 c 1
 180 236 l 1
 399 406 l 1
 512 236 l 1
 659 696 l 1
 778 696 l 1
 553 0 l 1
 436 0 l 1
 446 29.3333 451 54.6667 451 76 c 0
 451 97.3333 446 115 436 129 c 1
 354 274 l 1
 176 129 l 2
 142 101 115.333 58 96 0 c 1
328 625 m 0
 312.667 625 298.333 619.333 285 608 c 1
 269.667 597.333 260 585 256 571 c 1
 254 553 l 1
 258 532 l 1
 264.667 521.333 276.333 516 293 516 c 0
 308.333 516 323.333 521.333 338 532 c 0
 349.333 542 358.333 555 365 571 c 1
 367 590 l 1
 367 596.667 365.333 603.333 362 610 c 0
 356.667 620 345.333 625 328 625 c 0
EndSplineSet
EndChar
StartChar: uni0E1D
Encoding: 159 3613
OldEncoding: 3613
Width: 765
Flags: W
Fore
53 0 m 1
 -59 0 l 1
 125 567 l 1
 137.667 608.333 161 642 195 668 c 0
 228.333 695.333 267 709 311 709 c 0
 342.333 709 366.333 702.667 383 690 c 0
 400.333 676.667 410 660.333 412 641 c 2
 414 621 l 1
 414 604.333 411.333 588.333 406 573 c 0
 394.667 537.667 374 507 344 481 c 0
 313.333 453.667 280.667 438 246 434 c 1
 221.333 434 206.333 434.667 201 436 c 1
 137 236 l 1
 356 406 l 1
 469 236 l 1
 707 969 l 1
 825 969 l 1
 510 0 l 1
 393 0 l 1
 403 29.3333 408 54.6667 408 76 c 0
 408 97.3333 403 115 393 129 c 1
 311 274 l 1
 133 129 l 2
 99 101 72.3333 58 53 0 c 1
285 625 m 0
 269.667 625 255.333 619.333 242 608 c 1
 226 597.333 217 585 215 571 c 1
 211 553 l 1
 215 532 l 1
 221.667 521.333 233.333 516 250 516 c 0
 265.333 516 280.333 521.333 295 532 c 0
 306.333 542 315.333 555 322 571 c 1
 326 590 l 1
 326 598 323.667 604.667 319 610 c 1
 313.667 620 302.333 625 285 625 c 0
EndSplineSet
EndChar
StartChar: uni0E1E
Encoding: 160 3614
OldEncoding: 3614
Width: 870
Flags: W
Fore
281 319 m 1
 578 680 l 1
 641 319 l 1
 764 696 l 1
 883 696 l 1
 657 0 l 1
 539 0 l 1
 541 10 545 25 551 45 c 1
 555 82 l 1
 553 94 l 1
 500 444 l 1
 219 94 l 1
 209 80 199.333 63.6667 190 45 c 1
 172 0 l 1
 55 0 l 1
 197 436 l 1
 192.333 434.667 178 434 154 434 c 1
 118 438 94.6667 453.667 84 481 c 0
 78.6667 494.333 76 509.333 76 526 c 0
 76 543.333 78.6667 559 84 573 c 1
 90 595.667 102.333 618.333 121 641 c 0
 136.333 661 156.667 677.333 182 690 c 0
 208.667 702.667 236 709 264 709 c 0
 308.667 709 339.333 695.333 356 668 c 0
 364.667 653.333 369 636.667 369 618 c 0
 369 600 366 583 360 567 c 1
 281 319 l 1
203 516 m 0
 217 516 232 521.333 248 532 c 1
 259.333 542.667 268 555.667 274 571 c 1
 276 590 l 1
 272 610 l 1
 266.667 620 255.333 625 238 625 c 0
 222.667 625 208.333 619.333 195 608 c 1
 179 597.333 170 585 168 571 c 1
 164 553 l 1
 164 545.667 166 538.667 170 532 c 0
 176.667 521.333 187.667 516 203 516 c 0
EndSplineSet
EndChar
StartChar: uni0E1F
Encoding: 161 3615
OldEncoding: 3615
Width: 870
Flags: W
Fore
238 319 m 1
 535 680 l 1
 598 319 l 1
 811 969 l 1
 930 969 l 1
 614 0 l 1
 496 0 l 1
 500 10 504 25 508 45 c 1
 512 82 l 1
 512 94 l 1
 457 444 l 1
 176 94 l 1
 166 80 156.333 63.6667 147 45 c 1
 129 0 l 1
 12 0 l 1
 154 436 l 1
 149.333 434.667 135 434 111 434 c 1
 75 438 51.6667 453.667 41 481 c 0
 35.6667 494.333 33 509.333 33 526 c 0
 33 543.333 35.6667 559 41 573 c 1
 47 595.667 59.3333 618.333 78 641 c 0
 93.3333 661 113.667 677.333 139 690 c 0
 165.667 702.667 193 709 221 709 c 0
 265.667 709 296.333 695.333 313 668 c 0
 321.667 653.333 326 636.667 326 618 c 0
 326 600 323 583 317 567 c 1
 238 319 l 1
160 516 m 0
 174 516 189 521.333 205 532 c 1
 216.333 542.667 225 555.667 231 571 c 1
 233 590 l 1
 229 610 l 1
 223.667 620 212.333 625 195 625 c 0
 179.667 625 165.333 619.333 152 608 c 1
 136 597.333 127 585 125 571 c 1
 121 553 l 1
 121 545.667 123 538.667 127 532 c 0
 133.667 521.333 144.667 516 160 516 c 0
EndSplineSet
EndChar
StartChar: uni0E20
Encoding: 162 3616
OldEncoding: 3616
Width: 819
Flags: W
Fore
135 260 m 2
 145 260 l 1
 150 258 l 1
 174 338 l 2
 185.333 374.667 201 405.333 221 430 c 0
 241 456 263.667 475.667 289 489 c 1
 280.333 494.333 266 500 246 506 c 0
 215.333 514 190.667 518.667 172 520 c 1
 184 559 l 1
 221 590 l 2
 246.333 611.333 271 628.333 295 641 c 1
 327 660.333 366.667 677.333 414 692 c 0
 456 706 505 713 561 713 c 0
 615.667 713 660.667 704 696 686 c 1
 732.667 670 757.333 644 770 608 c 0
 775.333 595.333 778 579 778 559 c 0
 778 535.667 774 510.333 766 483 c 1
 608 0 l 1
 489 0 l 1
 643 473 l 2
 648.333 489.667 651 506.667 651 524 c 0
 651 549.333 644.333 570 631 586 c 1
 607.667 610.667 570.667 623 520 623 c 0
 493.333 623 463.333 618 430 608 c 1
 394 599.333 362 586.333 334 569 c 1
 387 555 l 2
 411 549 433 536 453 516 c 1
 434 459 l 1
 411.333 459 387.333 452 362 438 c 0
 334 422.667 313 392 299 346 c 1
 227 125 l 1
 213 84.3333 190.667 51.6667 160 27 c 0
 130.667 1.66667 92.3333 -12 45 -14 c 1
 1 -12 -27.6667 1.66667 -41 27 c 0
 -49 41 -53 57.3333 -53 76 c 0
 -53 90.6667 -50.3333 105.667 -45 121 c 0
 -33.6667 159 -12 191.667 20 219 c 0
 53.3333 246.333 91.6667 260 135 260 c 2
72 63 m 0
 88.6667 63 105 69.3333 121 82 c 0
 134.333 91.3333 144.667 105 152 123 c 1
 156 147 l 1
 156 170.333 141 182 111 182 c 0
 93.6667 182 77 176.667 61 166 c 1
 49.6667 156 40.3333 141.667 33 123 c 1
 31 106 l 1
 31 96 33 88 37 82 c 0
 43 69.3333 54.6667 63 72 63 c 0
EndSplineSet
EndChar
StartChar: uni0E21
Encoding: 163 3617
OldEncoding: 3617
Width: 788
Flags: W
Fore
684 696 m 1
 803 696 l 1
 578 0 l 1
 463 0 l 1
 463 10 l 2
 463 30.6667 457.333 56 446 86 c 0
 434.667 116.667 415 146 387 174 c 0
 358.333 200.667 323.667 217 283 223 c 1
 246 106 l 1
 232.667 67.3333 211.333 38 182 18 c 0
 148.667 -3.33333 119.333 -14 94 -14 c 0
 48 -16 15.3333 -1.66667 -4 29 c 1
 -16.6667 43.6667 -23 62 -23 84 c 0
 -23 101.333 -20 119 -14 137 c 0
 1.33333 187 29.3333 230 70 266 c 0
 108 300 150.333 318.667 197 322 c 1
 233 436 l 1
 227 436 l 1
 215 434 l 1
 172.333 434 143.667 447.667 129 475 c 0
 119.667 491 115 508 115 526 c 0
 115 542 117.667 557 123 571 c 0
 135 609 157.333 642 190 670 c 1
 223.333 696 261.667 709 305 709 c 0
 341.667 709 369.667 697.333 389 674 c 0
 401.667 658 408 641.667 408 625 c 0
 408 612.333 405.667 599.333 401 586 c 2
 313 319 l 1
 381.667 309 431.667 289.333 463 260 c 0
 494.333 228.667 512.667 204.667 518 188 c 1
 684 696 l 1
244 516 m 0
 258 516 273 521.333 289 532 c 1
 301 543.333 309 556.333 313 571 c 1
 317 590 l 1
 313 610 l 1
 307.667 620 296.333 625 279 625 c 0
 263.667 625 249.333 619.333 236 608 c 1
 220.667 597.333 211 585 207 571 c 1
 203 553 l 1
 203 545 205.667 538 211 532 c 1
 217.667 521.333 228.667 516 244 516 c 0
166 229 m 1
 146 227 129 219 115 205 c 0
 97.6667 189.667 86 170.333 80 147 c 1
 74.6667 134.333 72 121.667 72 109 c 0
 72 89 81.3333 78 100 76 c 0
 110.667 76 119 84 125 100 c 1
 166 229 l 1
EndSplineSet
EndChar
StartChar: uni0E22
Encoding: 164 3618
OldEncoding: 3618
Width: 731
Flags: W
Fore
190 334 m 1
 161.333 343.333 141.667 365 131 399 c 0
 127 414.333 125 430 125 446 c 0
 125 462 128.333 482.667 135 508 c 1
 144.333 534.667 156.667 560.667 172 586 c 1
 200.667 626 234 657.333 272 680 c 1
 310 700.667 348.333 711 387 711 c 0
 426.333 711 454.333 698.667 471 674 c 1
 479 659.333 483 643 483 625 c 0
 483 609 480.333 594 475 580 c 1
 465.667 546 444.667 514.333 412 485 c 1
 378.667 459 341.667 446 301 446 c 0
 280.333 446 262 451 246 461 c 1
 232 466.333 225 470.333 225 473 c 1
 227 473 l 1
 223 455 l 1
 223 435.667 235.333 418.333 260 403 c 0
 288.667 386.333 322 377 360 375 c 1
 332 287 l 1
 282 287 243 276.667 215 256 c 0
 189.667 238.667 170.667 210 158 170 c 2
 137 106 l 1
 369 106 l 2
 396.333 106 415.333 110.333 426 119 c 0
 434.667 124.333 443.667 140 453 166 c 1
 623 696 l 1
 743 696 l 1
 561 133 l 1
 542.333 77 521.333 41 498 25 c 0
 471.333 8.33333 428.333 8.67362e-19 369 0 c 2
 -16 0 l 1
 39 170 l 1
 50.3333 209.333 68 242 92 268 c 0
 114 292 134.667 309 154 319 c 0
 166.667 326.333 178.667 331.333 190 334 c 1
332 528 m 0
 347.333 528 361 533 373 543 c 0
 384.333 554.333 392.333 566 397 578 c 1
 399 594 l 1
 395 612 l 1
 389.667 622 378.667 627 362 627 c 0
 346 627 332.667 622 322 612 c 1
 307.333 602.667 299 591.333 297 578 c 2
 295 563 l 1
 299 545 l 1
 305.667 533.667 316.667 528 332 528 c 0
EndSplineSet
EndChar
StartChar: uni0E23
Encoding: 165 3619
OldEncoding: 3619
Width: 636
Flags: W
Fore
539 344 m 1
 469 133 l 1
 455 92.3333 429.667 59 393 33 c 0
 355.667 5.66667 316.667 -8 276 -8 c 0
 234 -8 205.333 5.66667 190 33 c 0
 182 47 178 63.3333 178 82 c 0
 178 99.3333 180.667 115 186 129 c 0
 197.333 167.667 220 199.667 254 225 c 1
 286.667 251.667 324.333 266 367 268 c 0
 380.333 268 388.333 267.333 391 266 c 1
 418 344 l 2
 424.667 363.333 428 381.667 428 399 c 0
 428 415.667 421.333 430.667 408 444 c 1
 398 456 378 465 348 471 c 0
 330.667 475 287.667 481 219 489 c 0
 171.667 493.667 122 496 70 496 c 1
 90 559 l 1
 125.333 603 169 640 221 670 c 0
 274.333 701.333 331 717 391 717 c 0
 431.667 717 476 709.333 524 694 c 0
 570.667 678 603 670 621 670 c 0
 647.667 670 675.667 676.667 705 690 c 1
 705 602 l 1
 664.333 587.333 627.333 580 594 580 c 0
 563.333 580 523.667 588 475 604 c 0
 427 620.667 385.333 629 350 629 c 0
 317.333 629 291.333 622 272 608 c 0
 249.333 593.333 234.333 581.667 227 573 c 1
 384.333 573 486 548 532 498 c 0
 547.333 480.667 555 458 555 430 c 0
 555 408 549.667 379.333 539 344 c 1
307 76 m 0
 323.667 76 338.667 80.6667 352 90 c 0
 362 98 371 111 379 129 c 1
 383 150 l 1
 383 156 381 162 377 168 c 0
 371.667 177.333 360 182 342 182 c 0
 323.333 182 307.667 176.667 295 166 c 0
 282.333 155.333 274 143 270 129 c 1
 266 113 l 1
 266 105 268 98 272 92 c 0
 279.333 81.3333 291 76 307 76 c 0
EndSplineSet
EndChar
StartChar: uni0E24
Encoding: 166 3620
OldEncoding: 3620
Width: 755
Flags: W
Fore
262 262 m 1
 279 262 l 2
 321.667 262 351.667 248.333 369 221 c 1
 377 205 381 188 381 170 c 0
 381 156 379 141 375 125 c 1
 361 85 337.667 53 305 29 c 1
 271.667 1.66667 233.333 -12 190 -12 c 0
 150 -12 121.333 1.66667 104 29 c 0
 94.6667 42.3333 90 58.6667 90 78 c 0
 90 95.3333 92.6667 111 98 125 c 1
 168 338 l 1
 180 377.333 195 408 213 430 c 1
 229 453.333 251.667 473 281 489 c 1
 270.333 495 256 500.667 238 506 c 0
 210.667 514 186 518.667 164 520 c 1
 176 559 l 1
 213 590 l 1
 225 602 250.333 619 289 641 c 1
 335.667 665 375.333 682 408 692 c 0
 450 706 499 713 555 713 c 0
 609.667 713 654 704.667 688 688 c 0
 724 669.333 748.667 643.333 762 610 c 0
 767.333 597.333 770 581 770 561 c 0
 770 536.333 765.333 510.333 756 483 c 1
 481 -362 l 1
 362 -362 l 1
 635 473 l 2
 640.333 489.667 643 506.667 643 524 c 0
 643 548 637 568.667 625 586 c 1
 599 610.667 562 623 514 623 c 0
 456 623 392.667 605 324 569 c 1
 330 567 338 565 348 563 c 2
 393 549 l 1
 413.667 540.333 430.667 529.333 444 516 c 1
 426 459 l 1
 402 459 377.333 452 352 438 c 0
 328 424.667 307.667 394 291 346 c 2
 262 262 l 1
215 66 m 0
 235 66 252 72 266 84 c 1
 278 92 287.667 105.667 295 125 c 1
 299 150 l 1
 299 172.667 284.667 184 256 184 c 0
 238 184 221.667 178.667 207 168 c 0
 194.333 157.333 184.667 143 178 125 c 1
 174 104 l 1
 174 96.6667 176 90 180 84 c 0
 186 72 197.667 66 215 66 c 0
EndSplineSet
EndChar
StartChar: uni0E25
Encoding: 167 3621
OldEncoding: 3621
Width: 724
Flags: W
Fore
129 -14 m 0
 87.6667 -14 59 -1.66667 43 23 c 1
 29.6667 40.3333 23 60.6667 23 84 c 1
 27 111 l 1
 45 180.333 63.3333 240.333 82 291 c 0
 102.667 346.333 135.333 395.333 180 438 c 1
 224 478 270.333 498 319 498 c 0
 370.333 500 410 487 438 459 c 1
 463.333 431 479 401 485 369 c 2
 496 309 l 1
 551 477 l 2
 556.333 493.667 559 510.667 559 528 c 0
 559 550.667 553 569.333 541 584 c 1
 517.667 608.667 478.667 621 424 621 c 0
 377.333 621 333.667 610 293 588 c 0
 255.667 568 219.333 542.667 184 512 c 1
 137 571 l 1
 174.333 610.333 218.667 642.667 270 668 c 0
 327.333 696.667 388.333 711 453 711 c 0
 535 711 597.667 690.333 641 649 c 0
 669.667 623 684 589.667 684 549 c 0
 684 527 680 503.667 672 479 c 2
 516 0 l 1
 395 0 l 1
 398.333 26 402 78.6667 406 158 c 1
 406 166 l 2
 406 220.667 398.333 276 383 332 c 1
 366.333 384.667 337.667 410 297 408 c 0
 244.333 406 202 354.667 170 254 c 1
 190 258 l 1
 219 260 l 1
 263.667 258 293 245.667 307 223 c 0
 317 209 322 192.667 322 174 c 0
 322 160.667 319 145 313 127 c 0
 299.667 87 277.333 53.6667 246 27 c 0
 215.333 1.66667 176.333 -12 129 -14 c 0
158 68 m 0
 172 68 187 73.3333 203 84 c 1
 215.667 96.6667 224.333 109.667 229 123 c 1
 231 143 l 1
 227 162 l 1
 221.667 171.333 210.333 176 193 176 c 0
 176.333 176 161 170.667 147 160 c 0
 135 150 127 137.667 123 123 c 1
 121 104 l 1
 125 86 l 1
 129 74 140 68 158 68 c 0
EndSplineSet
EndChar
StartChar: uni0E26
Encoding: 168 3622
OldEncoding: 3622
Width: 819
Flags: W
Fore
190 260 m 2
 201 260 l 1
 205 258 l 1
 231 338 l 1
 244.333 377.333 260.333 408 279 430 c 1
 295 455.333 316.667 475 344 489 c 1
 337.333 494.333 323 500 301 506 c 0
 272.333 514 247.667 518.667 227 520 c 1
 242 559 l 1
 276 590 l 1
 301.333 611.333 326 628.333 350 641 c 1
 382 660.333 421.667 677.333 469 692 c 0
 513 706 562 713 616 713 c 0
 667.333 713 712.667 704 752 686 c 0
 789.333 667.333 813.667 641.333 825 608 c 0
 831 594 834 577.667 834 559 c 0
 834 537.667 829.667 512.333 821 483 c 1
 547 -362 l 1
 426 -362 l 1
 698 473 l 1
 705.333 493 709 510 709 524 c 0
 709 546.667 701.333 567.333 686 586 c 1
 663.333 610.667 627.333 623 578 623 c 0
 551.333 623 520.333 618 485 608 c 0
 448.333 598.667 416.333 585.667 389 569 c 1
 406.333 566.333 424.667 561.667 444 555 c 0
 466.667 549 488 536 508 516 c 1
 489 459 l 1
 465.667 459 442 452 418 438 c 0
 390 423.333 368.667 392.667 354 346 c 2
 283 125 l 1
 267.667 83 245 50.3333 215 27 c 1
 185.667 1.66667 148 -12 102 -14 c 1
 59.3333 -12 30 1.66667 14 27 c 0
 6 41 2 57.3333 2 76 c 0
 2 90.6667 4.66667 105.667 10 121 c 0
 23.3333 161 46 193.667 78 219 c 1
 109.333 246.333 146.667 260 190 260 c 2
127 63 m 0
 145 63 161.333 69.3333 176 82 c 1
 190.667 92.6667 201 106.333 207 123 c 0
 211 133 213 141 213 147 c 0
 213 170.333 197.333 182 166 182 c 0
 149.333 182 133.667 176.667 119 166 c 0
 102.333 154.667 92 140.333 88 123 c 1
 86 106 l 1
 86 98 87.3333 90 90 82 c 0
 96.6667 69.3333 109 63 127 63 c 0
EndSplineSet
EndChar
StartChar: uni0E27
Encoding: 169 3623
OldEncoding: 3623
Width: 655
Flags: W
Fore
389 260 m 1
 410 258 l 1
 477 473 l 1
 483.667 496.333 487 514.667 487 528 c 0
 487 549.333 481 567.333 469 582 c 1
 444.333 603.333 408.667 614 362 614 c 0
 286 616 207 576.667 125 496 c 1
 63 559 l 1
 101 600.333 149.667 637.333 209 670 c 1
 267.667 698.667 330.333 713 397 713 c 0
 487 713 549.333 691.667 584 649 c 0
 602.667 624.333 612 594.333 612 559 c 0
 612 531.667 607.333 503.667 598 475 c 2
 485 127 l 1
 472.333 85 449.333 51.6667 416 27 c 0
 380.667 -0.333333 341.667 -14 299 -14 c 0
 255.667 -14 227 -0.333333 213 27 c 1
 203.667 40.3333 199 57.3333 199 78 c 0
 199 92 202.333 109 209 129 c 0
 223 165.667 246.333 197 279 223 c 0
 310.333 247.667 347 260 389 260 c 1
328 68 m 0
 342 68 357 73.3333 373 84 c 1
 383.667 94.6667 391.667 107.667 397 123 c 1
 399 143 l 1
 397 162 l 1
 391.667 171.333 380 176 362 176 c 0
 346 176 331 170.667 317 160 c 0
 305 150 297 137.667 293 123 c 1
 289 104 l 1
 289 98 291 92 295 86 c 1
 299 74 310 68 328 68 c 0
EndSplineSet
EndChar
StartChar: uni0E28
Encoding: 170 3624
OldEncoding: 3624
Width: 749
Flags: W
Fore
657 647 m 1
 659.667 647 670 657.333 688 678 c 0
 706.667 697.333 723 720.667 737 748 c 1
 825 700 l 1
 811 672 790 644 762 616 c 0
 726 581.333 703.333 561 694 555 c 1
 694 539 l 1
 694 528 l 1
 690 503.333 686 485 682 473 c 2
 528 0 l 1
 410 0 l 1
 553 444 l 1
 563 477 l 1
 544.333 466.333 520.667 457 492 449 c 1
 492 432 l 1
 483 401 l 1
 468.333 361 446.667 328.333 418 303 c 0
 387.333 277.667 348.333 264 301 262 c 1
 270 266 l 1
 256.667 270 250 272.667 250 274 c 1
 250 274 l 1
 160 0 l 1
 39 0 l 1
 78 121 l 2
 86 147 90 172.333 90 197 c 2
 90 205 l 1
 89.3333 216.333 84.6667 245 76 291 c 0
 68 324.333 63 353 61 377 c 1
 61 385 l 2
 61 407 66 433.667 76 465 c 0
 96 520.333 126.667 566.667 168 604 c 0
 208 642 253.667 670 305 688 c 0
 355 706.667 406.333 717 459 719 c 0
 491 719 519 716.333 543 711 c 0
 563.667 706.333 587.333 696.667 614 682 c 0
 632.667 671.333 647 659.667 657 647 c 1
465 516 m 1
 480.333 516 496.667 522.333 514 535 c 1
 559 561 l 1
 549 582.333 532 598 508 608 c 0
 481.333 618 450.667 623 416 623 c 0
 365.333 621 317.333 605 272 575 c 0
 220.667 542.333 188.667 504.333 176 461 c 0
 169.333 441.667 166 418.333 166 391 c 2
 166 383 l 1
 168 358.333 169.333 346 170 346 c 1
 170 348 l 1
 180.667 382 204 421.667 240 467 c 1
 274 514.333 325 539 393 541 c 0
 418.333 541 435.333 538 444 532 c 0
 456 525.333 463 520 465 516 c 1
330 346 m 0
 344 346 359 351.333 375 362 c 1
 385.667 374 393.667 387 399 401 c 1
 403 422 l 1
 399 440 l 1
 393.667 450 382.333 455 365 455 c 0
 349 455 334.667 449.333 322 438 c 1
 308 428.667 299 416.333 295 401 c 1
 291 383 l 1
 291 375.667 293 368.667 297 362 c 0
 301 351.333 312 346 330 346 c 0
EndSplineSet
EndChar
StartChar: uni0E29
Encoding: 171 3625
OldEncoding: 3625
Width: 792
Flags: W
Fore
899 504 m 1
 886.333 464 869.333 429.667 848 401 c 0
 827.333 373.667 804 350 778 330 c 0
 757.333 312.667 735 298.333 711 287 c 2
 666 264 l 1
 623 135 l 1
 603.667 81 577.667 45.6667 545 29 c 0
 509.667 9.66667 459.667 -8.67362e-19 395 0 c 2
 -12 0 l 1
 23 106 l 1
 113 106 l 1
 221 436 l 1
 176 434 l 1
 143.333 438 120 453.667 106 481 c 1
 99.3333 497.667 96 512.667 96 526 c 0
 96 543.333 98.6667 559 104 573 c 0
 117.333 611 139.333 643.333 170 670 c 1
 203.333 696 241.667 709 285 709 c 0
 331 709 361.667 696 377 670 c 0
 385 655.333 389 639 389 621 c 0
 389 601.667 386.333 583.667 381 567 c 2
 231 106 l 1
 434 106 l 2
 460 106 478.333 110.333 489 119 c 1
 497 123.667 505.333 139.333 514 166 c 2
 537 238 l 1
 461 238 409 247.333 381 266 c 1
 359 288 346 303.667 342 313 c 0
 339.333 321 338 328.667 338 336 c 0
 338 350.667 340.667 367 346 385 c 0
 354 411 371 435.667 397 459 c 0
 423.667 482.333 455.333 494 492 494 c 0
 521.333 494 543.667 484.333 559 465 c 1
 565.667 451.667 569 438 569 424 c 1
 565 391 l 1
 555.667 359 538.667 333 514 313 c 1
 542.667 313 558.333 313.667 561 315 c 1
 686 696 l 1
 805 696 l 1
 694 358 l 1
 736 376.667 770.333 425.333 797 504 c 1
 899 504 l 1
444 350 m 0
 457.333 350 469 354 479 362 c 0
 489 370.667 496 380.333 500 391 c 1
 502 403 l 1
 498 420 l 1
 491.333 426.667 482.333 430 471 430 c 0
 459.667 430 448.667 426 438 418 c 0
 428 410 422 401 420 391 c 1
 418 379 l 1
 420 362 l 1
 424 354 432 350 444 350 c 0
223 516 m 0
 240.333 516 255.333 521.333 268 532 c 0
 280 542 289 555 295 571 c 1
 299 592 l 1
 299 598 297 604 293 610 c 0
 287.667 620 276 625 258 625 c 0
 244 625 229 619.333 213 608 c 0
 201 598 192.667 585.667 188 571 c 1
 184 553 l 1
 188 532 l 1
 195.333 521.333 207 516 223 516 c 0
EndSplineSet
EndChar
StartChar: uni0E2A
Encoding: 172 3626
OldEncoding: 3626
Width: 724
Flags: W
Fore
143 68 m 0
 160.333 68 175.333 73.3333 188 84 c 0
 200.667 94 209 107 213 123 c 1
 217 143 l 1
 213 162 l 1
 207.667 171.333 196 176 178 176 c 0
 160.667 176 145.667 170.667 133 160 c 0
 121 150 113 137.667 109 123 c 1
 105.667 116.333 104 110 104 104 c 0
 104 97.3333 106.333 91.3333 111 86 c 1
 117 74 127.667 68 143 68 c 0
518 575 m 1
 500 605.667 464 621 410 621 c 0
 362.667 621 319 610 279 588 c 0
 241.667 568 205.333 542.667 170 512 c 1
 123 571 l 1
 160.333 610.333 204.667 642.667 256 668 c 0
 312 696.667 372.667 711 438 711 c 0
 502 711 555.333 698 598 672 c 0
 599.333 672 617.667 691.667 653 731 c 0
 687 771 705.667 791 709 791 c 1
 745 766 l 2
 760.333 754.667 772 743.667 780 733 c 1
 723 675 l 1
 715 668 l 2
 680.333 633.333 661.667 613.333 659 608 c 1
 669 595.333 674 577.667 674 555 c 1
 670.667 527.667 665 502.333 657 479 c 1
 502 0 l 1
 381 0 l 1
 385.667 31.3333 389 84 391 158 c 1
 391 166 l 2
 391 223.333 383.667 278.667 369 332 c 1
 351.667 384.667 323 410 283 408 c 0
 229 406 186.667 354.667 156 254 c 1
 176 258 l 1
 205 260 l 1
 249 258 279 245.667 295 223 c 1
 301.667 207.667 305 191.333 305 174 c 0
 305 160.667 303 145 299 127 c 1
 285 87 262.333 53.6667 231 27 c 0
 201 1.66667 163 -12 117 -14 c 0
 74.3333 -14 45 -1.66667 29 23 c 1
 15 39.6667 8 60 8 84 c 1
 10 111 l 1
 66 291 l 1
 92 350.333 125.333 399.333 166 438 c 0
 210 478 256.333 498 305 498 c 1
 353.667 500 392.667 490.333 422 469 c 1
 424 469 439.667 486.667 469 522 c 1
 500.333 557.333 516.667 575 518 575 c 1
541 506 m 1
 500 457 l 1
 479.333 436.333 469 424.667 469 422 c 0
 475 406 479 387 481 365 c 1
 481 309 l 1
 512 408 l 1
 519.333 437.333 529 470 541 506 c 1
EndSplineSet
EndChar
StartChar: uni0E2B
Encoding: 173 3627
OldEncoding: 3627
Width: 790
Flags: W
Fore
274 319 m 1
 311.333 360.333 353 395.333 399 424 c 0
 436.333 447.333 468.667 465 496 477 c 1
 487.333 491.667 483 508 483 526 c 0
 483 543.333 486 559 492 573 c 0
 506 614.333 529 648 561 674 c 1
 595 698.667 635.333 711 682 711 c 0
 724 711 752 698 766 672 c 1
 772.667 655.333 776 639.667 776 625 c 0
 776 607 773.333 589.667 768 573 c 0
 752.667 523 722.667 485.667 678 461 c 1
 684.667 459 691.333 448 698 428 c 1
 700 410 l 1
 700 394 694.667 367.333 684 330 c 1
 578 0 l 1
 457 0 l 1
 563 330 l 2
 571 354 575 372.333 575 385 c 0
 575 391.667 574.333 395.667 573 397 c 0
 569 408.333 564.333 414 559 414 c 1
 469 374 387.667 316 315 240 c 0
 243.667 163.333 197.333 92.3333 176 27 c 1
 168 0 l 1
 51 0 l 1
 193 436 l 1
 188.333 434.667 174 434 150 434 c 1
 114 438 90.6667 453.667 80 481 c 0
 73.3333 497.667 70 512.667 70 526 c 0
 70 543.333 72.6667 559 78 573 c 1
 88 609.667 109.667 642 143 670 c 0
 175.667 696 214 709 258 709 c 0
 305.333 709 336 696 350 670 c 0
 358 655.333 362 639 362 621 c 0
 362 601.667 359.333 583.667 354 567 c 2
 274 319 l 1
612 518 m 0
 629.333 518 644.333 523.667 657 535 c 0
 669.667 545 678 557.667 682 573 c 1
 686 594 l 1
 682 612 l 1
 676.667 622 665 627 647 627 c 0
 631 627 616.667 621.333 604 610 c 1
 590.667 600.667 582 588.333 578 573 c 1
 574.667 566.333 573 560.333 573 555 c 0
 573 547 575.333 540.333 580 535 c 1
 586 523.667 596.667 518 612 518 c 0
197 516 m 0
 211 516 226 521.333 242 532 c 1
 253.333 542.667 262 555.667 268 571 c 1
 270 590 l 1
 266 610 l 1
 260.667 620 249 625 231 625 c 0
 217 625 202.667 619.333 188 608 c 0
 174.667 598.667 166 586.333 162 571 c 1
 158 553 l 1
 158 545.667 160 538.667 164 532 c 0
 170.667 521.333 181.667 516 197 516 c 0
EndSplineSet
EndChar
StartChar: uni0E2C
Encoding: 174 3628
OldEncoding: 3628
Width: 874
Flags: W
Fore
834 582 m 1
 645 0 l 1
 526 0 l 1
 537 45 l 1
 541 80 l 1
 541 94 l 1
 475 406 l 1
 209 94 l 1
 199.667 84.6667 190 68.3333 180 45 c 2
 160 0 l 1
 45 0 l 1
 186 436 l 1
 180.667 434.667 165.667 434 141 434 c 1
 105.667 438 82.6667 453.667 72 481 c 0
 66 496.333 63 511.333 63 526 c 0
 63 541.333 66 557 72 573 c 0
 80 595.667 92.3333 618.333 109 641 c 0
 125 661.667 145.333 678 170 690 c 0
 196.667 702.667 224.667 709 254 709 c 0
 297.333 709 327.333 695.333 344 668 c 0
 352 653.333 356 636.667 356 618 c 0
 356 600.667 353.333 583.667 348 567 c 2
 262 303 l 1
 543 612 l 1
 625 303 l 1
 705 555 l 1
 667.667 555 641 567.333 625 592 c 1
 613.667 606.667 608 623.667 608 643 c 0
 608 655 610 668 614 682 c 0
 627.333 719.333 649.333 750 680 774 c 0
 710.667 798.667 745.333 811 784 811 c 0
 834.667 811 864 796.667 872 768 c 0
 876.667 753.333 879 738.333 879 723 c 0
 879 714.333 877.333 706 874 698 c 1
 900.667 714 924.667 742.667 946 784 c 1
 1022 743 l 1
 1006.67 711.667 987 686 963 666 c 1
 936.333 641.333 911.667 622 889 608 c 1
 857.667 592 839.333 583.333 834 582 c 1
729 637 m 0
 743.667 637 756.667 641.667 768 651 c 0
 778.667 659.667 786.333 670.667 791 684 c 1
 793 700 l 1
 791 717 l 1
 783.667 725 773.333 729 760 729 c 0
 745.333 729 733 725 723 717 c 0
 710.333 706.333 702 695.333 698 684 c 1
 696 670 l 1
 696 663.333 698 657 702 651 c 0
 708.667 641.667 717.667 637 729 637 c 0
190 516 m 0
 204.667 516 220 521.333 236 532 c 1
 247.333 542.667 256 555.667 262 571 c 1
 264 590 l 1
 260 610 l 1
 254.667 620 243 625 225 625 c 0
 211 625 196.667 619.333 182 608 c 0
 168.667 598.667 160 586.333 156 571 c 1
 152 553 l 1
 152 545.667 154 538.667 158 532 c 0
 164.667 521.333 175.333 516 190 516 c 0
EndSplineSet
EndChar
StartChar: uni0E2D
Encoding: 175 3629
OldEncoding: 3629
Width: 735
Flags: W
Fore
170 217 m 1
 154 166 l 1
 148 152 145 139.667 145 129 c 1
 147 119 l 1
 152.333 110.333 167.667 106 193 106 c 2
 371 106 l 2
 397 106 415.333 110.333 426 119 c 0
 434.667 124.333 443.667 140 453 166 c 1
 553 473 l 2
 558.333 489.667 561 506.667 561 524 c 0
 561 585.333 513.333 616 418 616 c 0
 378 616 338.333 608 299 592 c 1
 255 571.333 218 548 188 522 c 1
 131 584 l 1
 168.333 618 214.667 648.667 270 676 c 1
 327.333 700.667 388.333 713 453 713 c 0
 548.333 713 615.667 692.333 655 651 c 0
 677 628.333 688 597.667 688 559 c 0
 688 531.667 683.333 503.667 674 475 c 2
 565 137 l 1
 547 83 525.333 47 500 29 c 0
 472.667 9.66667 429.667 -8.67362e-19 371 0 c 2
 131 0 l 2
 91 0 61 3.33333 41 10 c 0
 21 16.6667 10 29 8 47 c 1
 8 57 l 2
 8 73.6667 13.6667 99 25 133 c 1
 92 342 l 1
 106 383.333 130.667 418 166 446 c 0
 200.667 474.667 240.333 489 285 489 c 0
 315.667 489 338.667 482.333 354 469 c 1
 372.667 457 383 440.667 385 420 c 1
 385 399 l 2
 385 386.333 383 371.333 379 354 c 1
 367 317.333 343.667 284.667 309 256 c 0
 275.667 228.667 237.667 215 195 215 c 0
 187.667 215 183.333 215.667 182 217 c 1
 170 217 l 1
223 299 m 0
 240.333 299 255.333 304.333 268 315 c 0
 279.333 325 288.333 337.333 295 352 c 1
 299 373 l 1
 295 391 l 1
 289 401 276.667 406 258 406 c 0
 242.667 406 228.333 400.333 215 389 c 0
 203 380.333 193.333 368 186 352 c 1
 184 338 l 1
 184 330 186 322.333 190 315 c 0
 197.333 304.333 208.333 299 223 299 c 0
EndSplineSet
EndChar
StartChar: uni0E2E
Encoding: 176 3630
OldEncoding: 3630
Width: 735
Flags: W
Fore
821 659 m 1
 783 622.333 742 589.667 698 561 c 1
 563 137 l 1
 545 83 523.333 47 498 29 c 0
 470.667 9.66667 427.667 -8.67362e-19 369 0 c 2
 129 0 l 2
 89 0 59 3.33333 39 10 c 0
 19 16.6667 8 28.3333 6 45 c 1
 6 57 l 2
 6 76.3333 10.6667 100.333 20 129 c 2
 72 287 l 1
 85.3333 329 109.667 364.333 145 393 c 0
 179.667 421.667 219.333 436 264 436 c 0
 302 436 328 423.667 342 399 c 1
 351.333 385.667 356 368.667 356 348 c 0
 356 336 354 322.333 350 307 c 0
 338 271 317 239.667 287 213 c 0
 258.333 187.667 222 174 178 172 c 1
 168 174 l 2
 161.333 174 157.333 174.667 156 176 c 1
 143 143 l 1
 139 121 l 1
 139 117 140.333 113.667 143 111 c 0
 149.667 107.667 165.333 106 190 106 c 2
 371 106 l 2
 397 106 415.333 110.333 426 119 c 0
 433.333 124.333 441.667 140 451 166 c 1
 559 502 l 1
 553 497.333 532.667 489.667 498 479 c 0
 465.333 469.667 414.667 465 346 465 c 0
 284.667 465 232 474.667 188 494 c 0
 156.667 508.667 141 529 141 555 c 1
 145 582 l 1
 156.333 611.333 177.667 636.333 209 657 c 1
 238.333 679 274.333 695.667 317 707 c 0
 358.333 717.667 396 723 430 723 c 0
 503.333 723 558.667 713.333 596 694 c 0
 624.667 679.333 646.667 663.667 662 647 c 1
 680 659.667 713.333 687.667 762 731 c 1
 821 659 l 1
203 258 m 0
 219 258 232 262.667 242 272 c 0
 253.333 284.667 260.667 295.667 264 305 c 1
 268 322 l 1
 264 338 l 1
 258.667 347.333 248.333 352 233 352 c 0
 217.667 352 205 348 195 340 c 0
 182.333 330 174 318.333 170 305 c 1
 168 293 l 1
 168 285.667 170 278.667 174 272 c 0
 179.333 262.667 189 258 203 258 c 0
375 541 m 0
 417.667 539 460.667 544.333 504 557 c 1
 536.667 568.333 554.333 576.667 557 582 c 1
 555.667 590 542.667 601.333 518 616 c 0
 495.333 631.333 458.667 639 408 639 c 0
 372.667 639 337.667 634.333 303 625 c 0
 267.667 613.667 247.333 600.667 242 586 c 2
 240 580 l 1
 240 556 285 543 375 541 c 0
EndSplineSet
EndChar
StartChar: uni0E2F
Encoding: 177 3631
OldEncoding: 3631
Width: 696
Flags: W
Fore
131 537 m 0
 175.667 651 248.667 709 350 711 c 0
 375.333 711 397.333 704.667 416 692 c 0
 431.333 680.667 442.333 663.667 449 641 c 1
 453 612 l 1
 453 598.667 450.667 585 446 571 c 0
 432 531.667 409 499 377 473 c 0
 343 447 304 434 260 434 c 1
 244 436 l 1
 231 436 l 1
 233 412.667 270 401 342 401 c 1
 388 407.667 435.667 439.333 485 496 c 0
 531.667 550.667 568.667 617.333 596 696 c 1
 713 696 l 1
 559 217 l 1
 538.333 149 504.333 95.6667 457 57 c 1
 411.667 22.3333 340 -6.33333 242 -29 c 1
 248 66 l 1
 299.333 82 336.667 95.3333 360 106 c 0
 380.667 116 397.333 129 410 145 c 1
 416 155 426 181.667 440 225 c 1
 496 391 l 1
 474.667 364.333 445.333 342.667 408 326 c 0
 366 305.333 324.333 295 283 295 c 1
 238 299 l 1
 186.667 311 151.667 338.333 133 381 c 0
 122.333 404.333 117 428.333 117 453 c 0
 117 485 121.667 513 131 537 c 0
291 516 m 0
 306.333 516 321.333 521.333 336 532 c 1
 347.333 542.667 356 555.667 362 571 c 0
 365.333 579 367 585.333 367 590 c 0
 367 598 364.667 604.667 360 610 c 1
 354.667 620 343.333 625 326 625 c 0
 310.667 625 296.333 619.333 283 608 c 1
 267 597.333 258 585 256 571 c 1
 252 553 l 1
 256 532 l 1
 262.667 521.333 274.333 516 291 516 c 0
EndSplineSet
EndChar
StartChar: uni0E30
Encoding: 178 3632
OldEncoding: 3632
Width: 550
Flags: W
Fore
152 285 m 0
 192 285 220.667 272.667 238 248 c 0
 247.333 234 252 217.667 252 199 c 0
 252 183 249.333 168 244 154 c 1
 242 144 237.667 134.333 231 125 c 1
 217 98 l 1
 233 100 258.333 112.333 293 135 c 1
 325 158.333 352.333 205.333 375 276 c 1
 489 276 l 1
 463.667 191.333 419.333 124 356 74 c 1
 296.667 24.6667 215 1.73472e-18 111 0 c 0
 61.6667 0 23.3333 13.6667 -4 41 c 1
 -23.3333 57 -33 78 -33 104 c 0
 -33 120.667 -30.3333 136.667 -25 152 c 0
 -11 192 11.6667 224 43 248 c 0
 75 272.667 111.333 285 152 285 c 0
285 696 m 0
 325.667 696 354.333 683.667 371 659 c 0
 380.333 645.667 385 628.667 385 608 c 0
 385 594.667 383 579.667 379 563 c 0
 377.667 557.667 373 548.333 365 535 c 1
 352 508 l 1
 352 508 l 1
 352 508 l 1
 383 518 l 1
 403.667 528.667 425.667 547 449 573 c 1
 473.667 603 493.333 640.667 508 686 c 1
 623 686 l 1
 603 626.667 578.333 578.333 549 541 c 0
 516.333 499.667 475.333 468 426 446 c 0
 373.333 423.333 312.667 412 244 412 c 0
 196.667 412 158.333 425.667 129 453 c 1
 108.333 469.667 98 491.333 98 518 c 0
 98 534 100.667 548.333 106 561 c 0
 121.333 601 144 633.667 174 659 c 0
 204.667 683.667 241.667 696 285 696 c 0
92 100 m 0
 108 100 122.333 105.667 135 117 c 0
 148.333 128.333 156.667 140 160 152 c 1
 162 170 l 1
 158 186 l 1
 152.667 196 142.333 201 127 201 c 0
 109 201 94.6667 196 84 186 c 0
 71.3333 175.333 63 164 59 152 c 1
 57 137 l 1
 61 117 l 1
 68.3333 105.667 78.6667 100 92 100 c 0
227 510 m 0
 241.667 510 255.333 515.333 268 526 c 0
 281.333 537.333 289.667 549 293 561 c 1
 297 580 l 1
 293 598 l 1
 287.667 607.333 276.667 612 260 612 c 0
 244.667 612 230.333 607.333 217 598 c 0
 205 588 197 575.667 193 561 c 1
 191 558.333 190 553.667 190 547 c 0
 190 539.667 192.333 532.667 197 526 c 0
 203.667 515.333 213.667 510 227 510 c 0
EndSplineSet
EndChar
StartChar: uni0E31
Encoding: 179 3633
OldEncoding: 3633
Width: 0
Flags: W
Fore
-272 1122 m 0
 -232.667 1122 -205.333 1109 -190 1083 c 0
 -182 1069 -178 1053.33 -178 1036 c 0
 -178 1024.67 -181.333 1008.33 -188 987 c 1
 -207 950 l 2
 -212.333 939.333 -218.333 930.667 -225 924 c 1
 -213 922 l 1
 -197 920 l 1
 -159.667 920 -118 932.667 -72 958 c 0
 -23.3333 984 28 1031.33 82 1100 c 1
 170 1065 l 1
 138 1014.33 101 972 59 938 c 0
 11.6667 901.333 -37.3333 873.333 -88 854 c 1
 -144.667 834.667 -198 825 -248 825 c 1
 -293 827 l 1
 -345 833.667 -388 851 -422 879 c 0
 -444 897 -455 919.333 -455 946 c 0
 -455 959.333 -453 973 -449 987 c 0
 -435.667 1027.67 -413.667 1059.67 -383 1083 c 1
 -351 1111 -314 1124 -272 1122 c 0
-330 940 m 0
 -312 940 -298.333 944.667 -289 954 c 0
 -276.333 964.667 -267.333 976.333 -262 989 c 1
 -260 1008 l 1
 -264 1024 l 1
 -269.333 1033.33 -280.333 1038 -297 1038 c 0
 -315 1038 -328.667 1033.33 -338 1024 c 0
 -350.667 1013.33 -358.667 1001.67 -362 989 c 0
 -364 985 -365 979.667 -365 973 c 1
 -360 954 l 1
 -354.667 944.667 -344.667 940 -330 940 c 0
EndSplineSet
EndChar
StartChar: uni0E32
Encoding: 180 3634
OldEncoding: 3634
Width: 606
Flags: W
Fore
68 528 m 1
 94.6667 574 134 617 186 657 c 0
 238.667 697 305 717 385 717 c 0
 468.333 715 523.667 696.667 551 662 c 0
 564.333 644 571 620.667 571 592 c 0
 571 570 565.667 541.333 555 506 c 1
 391 0 l 1
 272 0 l 1
 436 508 l 1
 441.333 522 444 537 444 553 c 0
 444 599.667 410 623 342 623 c 0
 270 623 209.333 582 160 500 c 1
 68 528 l 1
EndSplineSet
EndChar
StartChar: uni0E33
Encoding: 181 3635
OldEncoding: 3635
Width: 606
Flags: W
Fore
6 528 m 1
 33.3333 574 73 617 125 657 c 1
 179.667 697 246 717 324 717 c 0
 407.333 715 462.333 696.667 489 662 c 0
 503 644 510 620.667 510 592 c 0
 510 570 504.667 541.333 494 506 c 1
 330 0 l 1
 211 0 l 1
 377 508 l 1
 382.333 522 385 537 385 553 c 0
 385 599.667 350.333 623 281 623 c 0
 208.333 623 147.333 582 98 500 c 1
 6 528 l 1
-37 1100 m 0
 7.66667 1100 37 1087 51 1061 c 0
 61 1044.33 66 1027.33 66 1010 c 0
 66 994.667 63 979 57 963 c 0
 45 923.667 22.6667 890.667 -10 864 c 1
 -46.6667 836.667 -85.6667 823 -127 823 c 0
 -169.667 823 -198.333 836.667 -213 864 c 0
 -221 878.667 -225 895.667 -225 915 c 0
 -225 931.667 -222.333 947.667 -217 963 c 0
 -205 1001 -182.667 1033.67 -150 1061 c 0
 -116.667 1087 -79 1100 -37 1100 c 0
-96 907 m 0
 -81.3333 907 -66.3333 912.667 -51 924 c 0
 -40.3333 932.667 -31.6667 945.667 -25 963 c 1
 -23 981 l 1
 -27 1001 l 1
 -32.3333 1011 -43.6667 1016 -61 1016 c 0
 -79 1016 -93.3333 1011 -104 1001 c 1
 -117.333 992.333 -126.333 979.667 -131 963 c 1
 -135 942 l 1
 -135 936 -133 930 -129 924 c 1
 -125 912.667 -114 907 -96 907 c 0
EndSplineSet
EndChar
StartChar: uni0E34
Encoding: 182 3636
OldEncoding: 3636
Width: 0
Flags: W
Fore
-301 1112 m 0
 -253.667 1112 -215.333 1098.33 -186 1071 c 1
 -159.333 1048.33 -143 1021 -137 989 c 1
 -133 932 l 1
 -135 891 l 1
 -141 815 l 1
 -227 844 l 1
 -272.333 855.333 -319.667 864.667 -369 872 c 0
 -401 878 -444.667 881 -500 881 c 1
 -604 877 l 1
 -674 870 l 1
 -649.333 918.667 -619.333 959.667 -584 993 c 1
 -543.333 1029 -499.667 1057.67 -453 1079 c 0
 -404.333 1103 -353.667 1114 -301 1112 c 0
-328 1030 m 1
 -368 1030 -402.667 1023.33 -432 1010 c 0
 -466 995.333 -490 979.667 -504 963 c 1
 -469 967 l 1
 -420 967 l 1
 -348 963 l 1
 -311.333 958.333 -281.333 952.667 -258 946 c 1
 -234.667 937.333 -220.333 931.333 -215 928 c 1
 -225 988 -262.667 1022 -328 1030 c 1
EndSplineSet
EndChar
StartChar: uni0E35
Encoding: 183 3637
OldEncoding: 3637
Width: 81
Flags: W
Fore
-270 1116 m 0
 -239.333 1116 -210 1109.33 -182 1096 c 1
 -143 1067 l 1
 -102 1190 l 1
 4 1190 l 1
 -88 907 l 1
 -86.6667 907 -86 903.667 -86 897 c 0
 -86 879 -88.6667 851.667 -94 815 c 1
 -195 848 l 2
 -229.667 858 -276 867.667 -334 877 c 0
 -368.667 882.333 -413 885 -467 885 c 2
 -543 883 l 1
 -604 877 l 1
 -641 874 l 1
 -617 922.667 -587.667 963.667 -553 997 c 0
 -513.667 1034.33 -470.667 1063 -424 1083 c 0
 -370.667 1107 -319.333 1118 -270 1116 c 0
-297 1034 m 1
 -334.333 1034 -368.333 1027.33 -399 1014 c 0
 -431.667 999.333 -455 983 -469 965 c 1
 -436 969 l 1
 -379 971 l 1
 -317 967 l 1
 -244 954 l 1
 -197 938 l 1
 -180 932 l 1
 -180 932 l 1
 -192.667 990 -231.667 1024 -297 1034 c 1
EndSplineSet
EndChar
StartChar: uni0E36
Encoding: 184 3638
OldEncoding: 3638
Width: 0
Flags: W
Fore
-66 1100 m 0
 -86 1038.67 -116.667 999 -158 981 c 1
 -150 922 l 1
 -148 916 -147 907.667 -147 897 c 0
 -147 880.333 -150.667 853 -158 815 c 1
 -258 848 l 1
 -292.667 858 -339 867.667 -397 877 c 0
 -431.667 882.333 -475.333 885 -528 885 c 2
 -606 883 l 1
 -668 877 l 1
 -702 874 l 1
 -679.333 921.333 -649.333 962.333 -612 997 c 1
 -574.667 1034.33 -531.667 1063 -483 1083 c 1
 -436.333 1105 -386 1116 -332 1116 c 1
 -309 1114 l 2
 -299.667 1112 -295 1110.67 -295 1110 c 0
 -253.667 1171.33 -204.333 1202 -147 1202 c 0
 -114.333 1202 -91.3333 1193.33 -78 1176 c 0
 -68 1161.33 -63 1145.33 -63 1128 c 0
 -63 1116 -64 1106.67 -66 1100 c 0
-360 1034 m 1
 -396.667 1034 -431.667 1027.33 -465 1014 c 1
 -498.333 998 -520 982.333 -530 967 c 1
 -500 971 l 1
 -449 971 l 1
 -379 967 l 1
 -347 963.667 -316.333 958 -287 950 c 1
 -265 942 -250.667 936 -244 932 c 1
 -258 990 -296.667 1024 -360 1034 c 1
-201 1051 m 0
 -190.333 1051 -180 1055 -170 1063 c 0
 -162 1069 -156 1077 -152 1087 c 1
 -150 1098 l 1
 -150 1103.33 -151.333 1107.33 -154 1110 c 1
 -158 1118 -165.333 1122 -176 1122 c 0
 -200 1122 -215 1110.33 -221 1087 c 2
 -225 1071 l 1
 -225 1057.67 -217 1051 -201 1051 c 0
EndSplineSet
EndChar
StartChar: uni0E37
Encoding: 185 3639
OldEncoding: 3639
Width: 81
Flags: W
Fore
-141 1063 m 1
 -98 1190 l 1
 4 1190 l 1
 -88 907 l 1
 -86.6667 907 -86 903.667 -86 897 c 0
 -86 879 -88.6667 851.667 -94 815 c 1
 -195 848 l 2
 -229.667 858 -276 867.667 -334 877 c 0
 -368.667 882.333 -413 885 -467 885 c 2
 -543 883 l 1
 -604 877 l 1
 -641 874 l 1
 -586.333 972 -525.667 1037 -459 1069 c 0
 -390.333 1100.33 -326 1116 -266 1116 c 1
 -242 1190 l 1
 -145 1190 l 1
 -178 1092 l 1
 -171.333 1088.67 -166 1085 -162 1081 c 0
 -154 1075 -147 1069 -141 1063 c 1
-297 1034 m 1
 -334.333 1034 -368.333 1027.33 -399 1014 c 0
 -431.667 999.333 -455 983 -469 965 c 1
 -436 969 l 1
 -379 971 l 1
 -317 967 l 1
 -244 954 l 1
 -197 938 l 1
 -180 932 l 1
 -180 932 l 1
 -192.667 990 -231.667 1024 -297 1034 c 1
EndSplineSet
EndChar
StartChar: uni0E38
Encoding: 186 3640
OldEncoding: 3640
Width: 0
Flags: W
Fore
-168 -512 m 1
 -279 -512 l 1
 -227 -356 l 1
 -279 -358 l 1
 -300.333 -356 -318.667 -348 -334 -334 c 0
 -346.667 -320.667 -354 -303.667 -356 -283 c 1
 -358 -266 l 1
 -358 -251.333 -355.333 -236.333 -350 -221 c 0
 -340 -185 -317.667 -153 -283 -125 c 0
 -248.333 -96.3333 -208.667 -82 -164 -82 c 0
 -140 -82 -120 -86.6667 -104 -96 c 0
 -89.3333 -105.333 -77.3333 -120.333 -68 -141 c 1
 -63 -170 l 1
 -63 -179.333 -65.3333 -192.333 -70 -209 c 1
 -168 -512 l 1
-229 -274 m 0
 -213.667 -274 -198 -268.667 -182 -258 c 1
 -170.667 -248.667 -162 -236.333 -156 -221 c 1
 -152 -203 l 1
 -152 -195 -154 -188 -158 -182 c 0
 -164.667 -171.333 -177 -166 -195 -166 c 0
 -209 -166 -224 -171.333 -240 -182 c 0
 -252.667 -192 -261.333 -205 -266 -221 c 1
 -268 -238 l 1
 -264 -258 l 1
 -257.333 -268.667 -245.667 -274 -229 -274 c 0
EndSplineSet
EndChar
StartChar: uni0E39
Encoding: 187 3641
OldEncoding: 3641
Width: 0
Flags: W
Fore
-424 -408 m 1
 -406 -356 l 1
 -451 -358 l 1
 -473.667 -356 -492 -348 -506 -334 c 0
 -518.667 -320.667 -526 -303.667 -528 -283 c 1
 -530 -266 l 1
 -530 -251.333 -527.333 -236.333 -522 -221 c 0
 -512 -185 -489.667 -153 -455 -125 c 0
 -420.333 -96.3333 -381.333 -82 -338 -82 c 0
 -300 -82 -272 -93.6667 -254 -117 c 0
 -242 -131 -236 -148.667 -236 -170 c 0
 -236 -182 -238 -195 -242 -209 c 1
 -299 -389 l 1
 -303 -406 l 1
 -303 -418 -295.667 -424 -281 -424 c 0
 -259.667 -424 -245.333 -413 -238 -391 c 2
 -141 -92 l 1
 -31 -92 l 1
 -133 -408 l 1
 -142.333 -440.667 -167 -468.667 -207 -492 c 0
 -246.333 -513.333 -281.667 -524 -313 -524 c 0
 -349.667 -524 -379.667 -513.333 -403 -492 c 0
 -419.667 -477.333 -428 -459.333 -428 -438 c 1
 -424 -408 l 1
-401 -274 m 0
 -383 -274 -366.667 -268 -352 -256 c 0
 -340 -246 -332 -233.667 -328 -219 c 2
 -324 -203 l 1
 -324 -193.667 -326 -186 -330 -180 c 0
 -336.667 -169.333 -348.333 -164 -365 -164 c 0
 -380.333 -164 -396 -169.333 -412 -180 c 1
 -424.667 -193.333 -432.667 -206.333 -436 -219 c 2
 -440 -236 l 1
 -440 -243.333 -438 -250 -434 -256 c 0
 -428 -268 -417 -274 -401 -274 c 0
EndSplineSet
EndChar
StartChar: uni0E3A
Encoding: 188 3642
OldEncoding: 3642
Width: 0
Flags: W
Fore
-143 -115 m 0
 -130.333 -115 -119.667 -118.333 -111 -125 c 0
 -101.667 -131.667 -96 -140.667 -94 -152 c 1
 -94 -162 l 1
 -98 -186 l 1
 -104 -204 -115 -220.667 -131 -236 c 1
 -149 -249.333 -168.667 -256 -190 -256 c 0
 -210 -256 -225.333 -249.333 -236 -236 c 0
 -241.333 -228 -244 -219 -244 -209 c 1
 -240 -186 l 1
 -232 -166 -219.667 -149 -203 -135 c 0
 -185 -121.667 -165 -115 -143 -115 c 0
EndSplineSet
EndChar
StartChar: uni0E3F
Encoding: 192 3647
OldEncoding: 3647
Width: 839
Flags: W
Fore
-45 0 m 1
 231 850 l 1
 608 850 l 2
 636.667 850 671.667 844.667 713 834 c 1
 748.333 822.667 774.333 806 791 784 c 1
 805 768.667 815.667 749.667 823 727 c 1
 825 711 l 1
 823 680 l 1
 817 627 l 1
 807 597 790.667 567 768 537 c 0
 741.333 503.667 711.333 475.667 678 453 c 1
 698.667 433.667 713 408.333 721 377 c 0
 725 357.667 727 339.333 727 322 c 1
 723 274 l 1
 707.667 227.333 687.333 186 662 150 c 0
 636.667 115.333 603.667 84.3333 563 57 c 0
 505.667 19 430.667 0 338 0 c 2
 -45 0 l 1
541 932 m 1
 627 942 l 1
 297 -72 l 1
 215 -72 l 1
 541 932 l 1
248 365 m 1
 176 145 l 1
 381 145 l 2
 416.333 145 449 152 479 166 c 0
 511 180.667 535 213.333 551 264 c 0
 556.333 279.333 559 293.667 559 307 c 0
 559 325 553.667 337.333 543 344 c 0
 523.667 358 495 365 457 365 c 2
 248 365 l 1
358 705 m 1
 295 510 l 1
 494 510 l 2
 532.667 510 564.667 519 590 537 c 0
 616 555 633 578 641 606 c 0
 645 620.667 647 632.333 647 641 c 0
 647 683.667 619.667 705 565 705 c 2
 358 705 l 1
EndSplineSet
EndChar
StartChar: uni0E40
Encoding: 193 3648
OldEncoding: 3648
Width: 385
Flags: W
Fore
121 -8 m 0
 75 -8 45 5.66667 31 33 c 0
 22.3333 48.3333 18 64.6667 18 82 c 0
 18 100.667 21 117.667 27 133 c 1
 211 696 l 1
 330 696 l 1
 190 268 l 1
 211 268 l 2
 253.667 268 283 255 299 229 c 1
 305.667 213.667 309 197.333 309 180 c 0
 309 161.333 307 145.667 303 133 c 0
 293 94.3333 270.667 61 236 33 c 0
 200.667 5.66667 162.333 -8 121 -8 c 0
150 76 m 0
 166 76 181 80.6667 195 90 c 0
 206.333 99.3333 214.333 112.333 219 129 c 1
 223 150 l 1
 219 168 l 1
 213.667 177.333 202 182 184 182 c 0
 168.667 182 153 176.667 137 166 c 0
 126.333 157.333 117.667 145 111 129 c 1
 106 115 l 1
 106 105.667 109 98 115 92 c 0
 123.667 81.3333 135.333 76 150 76 c 0
EndSplineSet
EndChar
StartChar: uni0E41
Encoding: 194 3649
OldEncoding: 3649
Width: 712
Flags: W
Fore
121 -8 m 0
 75 -8 45 5.66667 31 33 c 0
 22.3333 48.3333 18 64.6667 18 82 c 0
 18 100.667 21 117.667 27 133 c 1
 211 696 l 1
 330 696 l 1
 190 268 l 1
 209 268 l 2
 251.667 268 281 255 297 229 c 0
 305 215 309 198.667 309 180 c 0
 309 165.333 306.333 149.667 301 133 c 0
 291 93 269.333 59.6667 236 33 c 0
 200.667 5.66667 162.333 -8 121 -8 c 0
449 -8 m 0
 405 -8 375.333 5.66667 360 33 c 0
 352 47 348 63.3333 348 82 c 0
 348 100 350.667 117 356 133 c 2
 541 696 l 1
 659 696 l 1
 520 268 l 1
 539 268 l 2
 577.667 268 606.333 254.333 625 227 c 0
 634.333 213.667 639 196.667 639 176 c 0
 639 162.667 636.333 148.333 631 133 c 0
 617 91 594.333 57.6667 563 33 c 0
 527.667 5.66667 489.667 -8 449 -8 c 0
150 76 m 0
 166 76 181 80.6667 195 90 c 0
 206.333 99.3333 214.333 112.333 219 129 c 1
 221 150 l 1
 219 168 l 1
 213.667 177.333 202 182 184 182 c 0
 168.667 182 153 176.667 137 166 c 0
 126.333 157.333 117.667 145 111 129 c 1
 106 115 l 1
 106 105.667 109 98 115 92 c 0
 123.667 81.3333 135.333 76 150 76 c 0
477 76 m 0
 495.667 76 510.667 80.6667 522 90 c 0
 531.333 99.3333 539.667 112.333 547 129 c 1
 549 150 l 1
 547 168 l 1
 541.667 177.333 530 182 512 182 c 0
 494.667 182 479.667 176.667 467 166 c 0
 455.667 156.667 446.667 144.333 440 129 c 1
 436 113 l 1
 436 104.333 438.667 97.3333 444 92 c 1
 451.333 81.3333 462.333 76 477 76 c 0
EndSplineSet
EndChar
StartChar: uni0E42
Encoding: 195 3650
OldEncoding: 3650
Width: 483
Flags: W
Fore
399 940 m 1
 182 268 l 1
 201 268 l 2
 243 268 272.333 254.333 289 227 c 0
 297 213 301 196.667 301 178 c 0
 301 164.667 299 149.667 295 133 c 1
 280.333 91 257 57.6667 225 33 c 0
 189.667 5.66667 151 -8 109 -8 c 0
 65 -8 35.3333 5.66667 20 33 c 1
 13.3333 48.3333 10 64.6667 10 82 c 0
 10 100 12.6667 117 18 133 c 2
 283 944 l 1
 291 966.667 296.333 987.333 299 1006 c 1
 299 1017.33 295 1028 287 1038 c 0
 281 1046 265.333 1057 240 1071 c 1
 117 1133 l 1
 124.333 1140.33 142 1154.67 170 1176 c 1
 203.333 1198.67 236.667 1218.33 270 1235 c 1
 314 1254.33 353 1264 387 1264 c 0
 413 1264 430.667 1261.67 440 1257 c 2
 496 1231 l 1
 522 1217 543 1210 559 1210 c 0
 578.333 1210 605.667 1219.67 641 1239 c 1
 651 1149 l 1
 605.667 1121.67 564.667 1108 528 1108 c 0
 500 1108 470.667 1116.33 440 1133 c 0
 411.333 1147 391 1155.67 379 1159 c 1
 350 1163 l 2
 342 1163 334 1161.67 326 1159 c 1
 313 1151 l 1
 354.333 1125.67 381.667 1107.33 395 1096 c 1
 409.667 1081.33 418 1063.33 420 1042 c 1
 420 1038 l 2
 420 1012.67 413 980 399 940 c 1
137 80 m 0
 154.333 80 168.667 84.6667 180 94 c 1
 192 106 200.333 117.667 205 129 c 1
 209 145 l 1
 209 151.667 207 158 203 164 c 0
 197.667 173.333 186.667 178 170 178 c 0
 154 178 140.333 173.333 129 164 c 0
 118.333 153.333 110.667 141.667 106 129 c 1
 102 115 l 1
 102 106.333 104.333 99.3333 109 94 c 1
 114.333 84.6667 123.667 80 137 80 c 0
EndSplineSet
EndChar
StartChar: uni0E43
Encoding: 196 3651
OldEncoding: 3651
Width: 483
Flags: W
Fore
449 1083 m 1
 182 266 l 1
 201 266 l 2
 240.333 266 269.667 253 289 227 c 1
 297 213 301 196 301 176 c 0
 301 161.333 299 147 295 133 c 0
 282.333 92.3333 259.667 59 227 33 c 0
 192.333 5.66667 153.667 -8 111 -8 c 0
 66.3333 -8 37 5.66667 23 33 c 1
 14.3333 46.3333 10 63.3333 10 84 c 0
 10 100.667 12.6667 117 18 133 c 2
 328 1085 l 1
 337.333 1112.33 342 1135 342 1153 c 2
 342 1155 l 1
 340 1170.33 327.667 1178 305 1178 c 0
 283.667 1178 268.667 1175 260 1169 c 0
 253.333 1165 246.667 1159.67 240 1153 c 1
 270 1153 289.667 1142 299 1120 c 1
 303 1090 l 1
 303 1070.67 300.333 1050.67 295 1030 c 1
 267.667 964.667 224 932 164 932 c 0
 138.667 932 116.667 938 98 950 c 1
 82 963.333 74 979.667 74 999 c 2
 74 1001 l 1
 76 1026.33 80 1049 86 1069 c 0
 104 1123.67 136.667 1170.67 184 1210 c 0
 232 1250 283.333 1270 338 1270 c 0
 392.667 1270 429.667 1253 449 1219 c 0
 457 1202.33 461 1182.33 461 1159 c 0
 462.333 1141 458.333 1115.67 449 1083 c 1
139 80 m 0
 156.333 80 170.667 84.6667 182 94 c 0
 192.667 104 201 115.667 207 129 c 1
 211 145 l 1
 211 151.667 209 158 205 164 c 0
 199.667 173.333 188.667 178 172 178 c 0
 156 178 142.333 173.333 131 164 c 0
 119.667 152.667 112.333 141 109 129 c 1
 104 115 l 1
 104 106.333 106.333 99.3333 111 94 c 1
 116.333 84.6667 125.667 80 139 80 c 0
199 1079 m 0
 191 1079 182.667 1075.67 174 1069 c 0
 168 1063 164 1055.67 162 1047 c 1
 160 1036 l 1
 162 1024 l 1
 164 1017.33 168.667 1014 176 1014 c 0
 198.667 1014 213 1025 219 1047 c 2
 223 1061 l 1
 223 1073 215 1079 199 1079 c 0
EndSplineSet
EndChar
StartChar: uni0E44
Encoding: 197 3652
OldEncoding: 3652
Width: 550
Flags: W
Fore
395 1081 m 1
 276 891 l 1
 256 855.667 229.667 838 197 838 c 0
 179 838 166.667 843.333 160 854 c 0
 150.667 872 147.333 890.333 150 909 c 1
 164 1151 l 1
 164 1157 l 2
 164 1177 155.667 1192 139 1202 c 1
 227 1270 l 1
 253 1260.67 266 1240.67 266 1210 c 1
 264 1200 l 1
 256 1014 l 1
 379 1212 l 1
 401 1249.33 435.667 1268 483 1268 c 0
 507.667 1268 527.667 1260.33 543 1245 c 1
 549.667 1236.33 553 1225.33 553 1212 c 0
 553 1202.67 551 1192 547 1180 c 2
 252 268 l 1
 266 268 l 2
 310 268 340 255 356 229 c 0
 364.667 215.667 369 198.667 369 178 c 0
 369 164 366.667 149 362 133 c 0
 346.667 90.3333 323.667 57 293 33 c 0
 257.667 5.66667 218.667 -8 176 -8 c 0
 132.667 -8 104 5.66667 90 33 c 0
 82 47 78 62.6667 78 80 c 0
 78 95.3333 81.3333 113 88 133 c 2
 395 1081 l 1
209 80 m 0
 225 80 238.667 84.6667 250 94 c 0
 261.333 105.333 268.667 117 272 129 c 2
 276 145 l 1
 272 164 l 1
 266.667 173.333 256 178 240 178 c 0
 222 178 208.333 173.333 199 164 c 0
 188.333 154 180 142.333 174 129 c 1
 172 113 l 1
 176 94 l 1
 181.333 84.6667 192.333 80 209 80 c 0
EndSplineSet
EndChar
StartChar: uni0E45
Encoding: 198 3653
OldEncoding: 3653
Width: 606
Flags: W
Fore
127 528 m 1
 155 574.667 194.667 617.667 246 657 c 0
 298 697 364 717 444 717 c 0
 528 715 583.333 696.667 610 662 c 0
 624 644 631 620.667 631 592 c 0
 631 568.667 625.333 540 614 506 c 1
 334 -362 l 1
 213 -362 l 1
 498 508 l 1
 503.333 522 506 537 506 553 c 0
 506 599.667 471 623 401 623 c 0
 328.333 623 267.667 582 219 500 c 1
 127 528 l 1
EndSplineSet
EndChar
StartChar: uni0E46
Encoding: 199 3654
OldEncoding: 3654
Width: 806
Flags: W
Fore
492 606 m 1
 464.667 596 444 580.333 430 559 c 2
 399 514 l 1
 428 526 l 2
 440 530 455.667 532 475 532 c 0
 515 532 541.667 521.333 555 500 c 0
 563 485.333 567 471 567 457 c 0
 567 441 564.333 426 559 412 c 0
 549 377.333 529.333 347.333 500 322 c 0
 469.333 297.333 434.333 285 395 285 c 0
 344.333 287 309 305.333 289 340 c 1
 276.333 357.333 270 380.667 270 410 c 0
 270 428.667 273.667 451.667 281 479 c 0
 299 535.667 332.333 586.333 381 631 c 0
 427 673 476.667 699.667 530 711 c 1
 580 682 l 2
 597.333 670.667 606 663 606 659 c 1
 606 659 l 1
 705 711 l 1
 759 699.667 793 676.333 807 641 c 0
 812.333 628.333 815 611.333 815 590 c 0
 815 561.333 810.333 532.667 801 504 c 2
 625 -39 l 2
 604.333 -103.667 564.667 -155 506 -193 c 1
 444 -230.333 378.333 -254.667 309 -266 c 1
 311 -162 l 1
 379 -141 l 1
 417 -131 445.667 -118 465 -102 c 0
 483 -88 497.333 -64.3333 508 -31 c 2
 678 492 l 1
 687.333 522 692 545.667 692 563 c 0
 692 579 684.667 593.333 670 606 c 1
 573 555 l 1
 573 555 l 1
 543 573 l 1
 492 606 l 1
424 371 m 0
 433.333 371 443.667 375 455 383 c 0
 463 389 469 397.333 473 408 c 1
 475 422 l 1
 471 434 l 1
 466.333 440.667 458 444 446 444 c 0
 434.667 444 424.667 440.667 416 434 c 0
 406.667 427.333 401 418.667 399 408 c 1
 397 395 l 1
 397 388.333 397.667 384.333 399 383 c 0
 406.333 375 414.667 371 424 371 c 0
EndSplineSet
EndChar
StartChar: uni0E47
Encoding: 200 3655
OldEncoding: 3655
Width: 0
Flags: W
Fore
-276 819 m 0
 -295.333 819 -312.667 824.667 -328 836 c 0
 -340.667 845.333 -355.667 858 -373 874 c 1
 -385.667 891.333 -398 904.333 -410 913 c 0
 -420.667 920.333 -434.333 924 -451 924 c 0
 -464.333 924 -480 912.333 -498 889 c 0
 -514.667 866.333 -527.667 841.667 -537 815 c 1
 -565 815 l 1
 -590.333 829 -608 855.667 -618 895 c 0
 -622.667 909.667 -625 926 -625 944 c 0
 -625 964 -621.333 984 -614 1004 c 1
 -608.667 1024 -599.333 1042.33 -586 1059 c 0
 -559.333 1093 -530 1117.67 -498 1133 c 0
 -466.667 1146.33 -425.667 1153 -375 1153 c 2
 -350 1153 l 1
 -334 1151 l 2
 -299.333 1147 -266.667 1145 -236 1145 c 0
 -201.333 1145 -174 1151 -154 1163 c 1
 -135.333 1177.67 -118.667 1203 -104 1239 c 1
 -6 1239 l 1
 -28 1171.67 -58.6667 1125.33 -98 1100 c 0
 -140.667 1071.33 -201 1057 -279 1057 c 0
 -308.333 1057 -337 1058.33 -365 1061 c 1
 -410.333 1061 -445 1055.33 -469 1044 c 1
 -489.667 1031.33 -506 1007.67 -518 973 c 1
 -514.667 980.333 -503 990.667 -483 1004 c 1
 -463.667 1014.67 -439.333 1020 -410 1020 c 0
 -382 1020 -361.333 1015.33 -348 1006 c 1
 -335.333 994.667 -328 985.667 -326 979 c 1
 -299.333 1019.67 -259 1040 -205 1040 c 0
 -169.667 1040 -145 1030 -131 1010 c 1
 -125.667 1000 -123 987.667 -123 973 c 0
 -123 959.667 -125 946 -129 932 c 0
 -139 901.333 -157.333 874.667 -184 852 c 0
 -212 830 -242.667 819 -276 819 c 0
-252 897 m 0
 -229.333 897 -215 908.667 -209 932 c 1
 -207 944 l 1
 -207 956 l 1
 -210.333 962 -217.667 965 -229 965 c 0
 -239.667 965 -249.333 961.333 -258 954 c 0
 -265.333 948.667 -271.333 941.333 -276 932 c 0
 -278 928 -279 922.333 -279 915 c 0
 -279 903 -270 897 -252 897 c 0
EndSplineSet
EndChar
StartChar: uni0E48
Encoding: 201 3656
OldEncoding: 3656
Width: 0
Flags: W
Fore
-244 1268 m 1
 -166 1507 l 1
 -59 1507 l 1
 -137 1268 l 1
 -244 1268 l 1
EndSplineSet
EndChar
StartChar: uni0E49
Encoding: 202 3657
OldEncoding: 3657
Width: 0
Flags: W
Fore
-150 1395 m 0
 -163.333 1362.33 -175.333 1338.33 -186 1323 c 0
 -198.667 1307 -207.667 1298 -213 1296 c 2
 -182 1303 l 2
 -163.333 1308.33 -145.667 1315 -129 1323 c 0
 -113.667 1331.67 -98 1344 -82 1360 c 0
 -61.3333 1382 -45.6667 1402.33 -35 1421 c 1
 -4 1501 l 1
 92 1501 l 1
 50 1371.67 -19 1287.67 -115 1249 c 0
 -172.333 1225.67 -230.333 1214 -289 1214 c 0
 -300.333 1214 -316 1215.67 -336 1219 c 2
 -365 1223 l 1
 -354 1257 l 1
 -328 1272 l 2
 -315.333 1278 -307 1286 -303 1296 c 1
 -332 1305 l 2
 -348.667 1311.67 -360.333 1323 -367 1339 c 1
 -371 1366 l 1
 -371 1378 -369 1391 -365 1405 c 0
 -354.333 1432.33 -335 1457 -307 1479 c 0
 -283 1499 -254.333 1509 -221 1509 c 0
 -187.667 1509 -164.667 1497.67 -152 1475 c 0
 -146 1462.33 -143 1448 -143 1432 c 0
 -143 1418.67 -145.333 1406.33 -150 1395 c 0
-270 1368 m 0
 -261.333 1368 -251.333 1371.33 -240 1378 c 1
 -232 1384.67 -227 1393 -225 1403 c 1
 -223 1415 l 1
 -225 1427 l 1
 -229 1434.33 -236.667 1438 -248 1438 c 0
 -270.667 1438 -286.333 1426.33 -295 1403 c 1
 -297 1393 l 1
 -297 1389 -295 1384 -291 1378 c 0
 -286.333 1371.33 -279.333 1368 -270 1368 c 0
EndSplineSet
EndChar
StartChar: uni0E4A
Encoding: 203 3658
OldEncoding: 3658
Width: 0
Flags: W
Fore
-455 1208 m 0
 -489.667 1208 -512 1223 -522 1253 c 0
 -527.333 1266.33 -530 1282 -530 1300 c 0
 -530 1321.33 -526.667 1340.67 -520 1358 c 0
 -509.333 1390 -489 1420.67 -459 1450 c 1
 -430.333 1474.67 -398 1487 -362 1487 c 0
 -340.667 1487 -324.333 1483 -313 1475 c 1
 -304.333 1465.67 -299 1458 -297 1452 c 1
 -294.333 1454.67 -282 1462.33 -260 1475 c 0
 -246 1483 -229 1487 -209 1487 c 0
 -174.333 1487 -151.667 1476.67 -141 1456 c 0
 -135.667 1447.33 -133 1435.67 -133 1421 c 0
 -133 1408.33 -136.333 1391.33 -143 1370 c 0
 -153.667 1342 -160.667 1325.67 -164 1321 c 0
 -170.667 1310.33 -181 1297.33 -195 1282 c 1
 -191.667 1283.33 -182.667 1288.67 -168 1298 c 0
 -154 1306 -141.667 1316.33 -131 1329 c 0
 -105.667 1358.33 -88.6667 1387 -80 1415 c 0
 -76 1425 -72.6667 1440.67 -70 1462 c 1
 16 1491 l 1
 16 1485 l 2
 16 1466.33 13.3333 1450 8 1436 c 0
 -9.33333 1382.67 -39.3333 1334.67 -82 1292 c 1
 -115.333 1262 -147.333 1243.67 -178 1237 c 0
 -219.333 1226.33 -262.333 1221 -307 1221 c 1
 -301 1237 l 1
 -299 1251 l 1
 -264 1282 l 1
 -250 1298 -238.333 1318.33 -229 1343 c 1
 -222.333 1366.33 -219 1383 -219 1393 c 0
 -221 1405 -231.333 1411 -250 1411 c 0
 -263.333 1411 -275 1408.33 -285 1403 c 1
 -307 1386 l 1
 -307 1386 l 1
 -307 1388.67 -312 1393.67 -322 1401 c 0
 -333.333 1410.33 -348.333 1415 -367 1415 c 0
 -397.667 1415 -418 1401.33 -428 1374 c 1
 -416 1378 l 1
 -387 1380 l 1
 -362.333 1378 -346 1369.33 -338 1354 c 0
 -334 1346 -332 1337 -332 1327 c 0
 -332 1314.33 -334.667 1301.33 -340 1288 c 0
 -346.667 1266.67 -361 1248.33 -383 1233 c 0
 -407 1216.33 -431 1208 -455 1208 c 0
-420 1321 m 0
 -437.333 1321 -449 1312 -455 1294 c 1
 -457 1284 l 1
 -457 1273.33 -450 1268 -436 1268 c 0
 -418 1268 -405.667 1276.67 -399 1294 c 1
 -397 1307 l 1
 -397 1316.33 -404.667 1321 -420 1321 c 0
EndSplineSet
EndChar
StartChar: uni0E4B
Encoding: 204 3659
OldEncoding: 3659
Width: 0
Flags: W
Fore
-215 1319 m 1
 -317 1319 l 1
 -289 1413 l 1
 -186 1413 l 1
 -158 1503 l 1
 -55 1503 l 1
 -84 1413 l 1
 18 1413 l 1
 -10 1319 l 1
 -113 1319 l 1
 -141 1231 l 1
 -244 1231 l 1
 -215 1319 l 1
EndSplineSet
EndChar
StartChar: uni0E4C
Encoding: 205 3660
OldEncoding: 3660
Width: 0
Flags: W
Fore
-139 1376 m 0
 -142.333 1375.33 -179.333 1372 -250 1366 c 1
 -293 1364 l 1
 -262.333 1364 -241 1355 -229 1337 c 0
 -222.333 1325.67 -219 1313.33 -219 1300 c 1
 -223 1270 l 1
 -232.333 1242 -249.333 1216.67 -274 1194 c 0
 -299.333 1170.67 -328 1159 -360 1159 c 0
 -400 1157 -428.667 1168.67 -446 1194 c 1
 -456 1204.67 -461 1219.67 -461 1239 c 0
 -461 1255 -458.333 1270 -453 1284 c 0
 -429.667 1353.33 -388 1399.67 -328 1423 c 0
 -296 1435 -260.333 1442 -221 1444 c 0
 -183.667 1446 -152.333 1450.67 -127 1458 c 0
 -107.667 1463.33 -92.6667 1481 -82 1511 c 1
 4 1511 l 1
 -6 1476.33 -23.6667 1447 -49 1423 c 0
 -77.6667 1395 -107.667 1379.33 -139 1376 c 0
-322 1296 m 0
 -345.333 1296 -360.333 1285.33 -367 1264 c 1
 -371 1247 l 1
 -371 1235 -362 1229 -344 1229 c 0
 -336.667 1229 -327 1232.33 -315 1239 c 1
 -306.333 1245.67 -301 1254 -299 1264 c 2
 -297 1274 l 1
 -301 1286 l 1
 -305.667 1292.67 -312.667 1296 -322 1296 c 0
EndSplineSet
EndChar
StartChar: uni0E4D
Encoding: 206 3661
OldEncoding: 3661
Width: 0
Flags: W
Fore
-195 1100 m 0
 -152.333 1100 -122 1086.33 -104 1059 c 1
 -97.3333 1040.33 -94 1023.33 -94 1008 c 0
 -94 994 -96 979 -100 963 c 1
 -113.333 924.333 -136.667 891.333 -170 864 c 0
 -204.667 836.667 -243 823 -285 823 c 0
 -325.667 823 -355 836.667 -373 864 c 1
 -381 881.333 -385 898.333 -385 915 c 0
 -385 931.667 -382.333 947.667 -377 963 c 0
 -367 999.667 -344.333 1031.67 -309 1059 c 0
 -274.333 1086.33 -236.333 1100 -195 1100 c 0
-256 907 m 0
 -240.667 907 -225.667 912.667 -211 924 c 0
 -197 934 -188 947 -184 963 c 1
 -182 981 l 1
 -186 999 l 1
 -193.333 1010.33 -205 1016 -221 1016 c 0
 -239 1016 -253.333 1011 -264 1001 c 1
 -277.333 992.333 -286.333 979.667 -291 963 c 1
 -295 942 l 1
 -291 924 l 1
 -285 912.667 -273.333 907 -256 907 c 0
EndSplineSet
EndChar
StartChar: uni0E4E
Encoding: 207 3662
OldEncoding: 3662
Width: 0
Flags: W
Fore
1 1182 m 1
 -10.3333 1193.33 -16 1207.67 -16 1225 c 1
 -15 1242 l 1
 -0.333333 1278.67 30.6667 1306 78 1324 c 0
 116.667 1338.67 157 1346 199 1346 c 0
 231.667 1346 265.333 1337.67 300 1321 c 1
 225 1272 l 1
 200 1275 l 1
 178 1280 l 1
 128.667 1280 100.667 1263.33 94 1230 c 0
 92.6667 1222 100 1214.33 116 1207 c 0
 129.333 1201 141 1198 151 1198 c 2
 173 1198 l 1
 128 1131 l 1
 119 1131 l 2
 38.3333 1131 -6.66667 1108.67 -16 1064 c 0
 -20.6667 1043.33 -10 1033 16 1033 c 0
 29.3333 1033 41.3333 1034.67 52 1038 c 1
 84 1060 l 1
 134 1011 l 1
 85.3333 975.667 30 958 -32 958 c 0
 -105.333 958 -142.333 982 -143 1030 c 1
 -140 1055 l 1
 -126 1119.67 -79 1162 1 1182 c 1
EndSplineSet
EndChar
StartChar: uni0E4F
Encoding: 208 3663
OldEncoding: 3663
Width: 696
Flags: W
Fore
236 0 m 0
 127.333 0 53.3333 34.6667 14 104 c 0
 -7.33333 142 -18 184.333 -18 231 c 0
 -18 269.667 -11.3333 308.667 2 348 c 0
 33.3333 444 90 526 172 594 c 0
 256 662 352.333 696 461 696 c 0
 534.333 696 592.333 679.667 635 647 c 0
 676.333 615 701.667 572 711 518 c 1
 715 467 l 1
 715 425.667 708 386 694 348 c 1
 675.333 287.333 644.667 230.667 602 178 c 0
 560 126 506 83 440 49 c 0
 377.333 16.3333 309.333 -1.73472e-18 236 0 c 0
436 618 m 0
 350 618 275.667 591.667 213 539 c 0
 145 483 100 419.333 78 348 c 0
 66.6667 312.667 61 282 61 256 c 0
 61 244 62.6667 230.333 66 215 c 0
 74 175.667 94.3333 143 127 117 c 0
 159 91 203.333 78 260 78 c 0
 320 78 374.667 91 424 117 c 0
 472 142.333 513.667 175.667 549 217 c 1
 582.333 258.333 606.333 302 621 348 c 0
 630.333 376.667 635 406.667 635 438 c 0
 635 474.667 626.667 508.333 610 539 c 0
 580 591.667 522 618 436 618 c 0
285 152 m 0
 243 152 210 161.333 186 180 c 0
 166 197.333 152.333 222 145 254 c 1
 141 283 l 1
 141 305 145.333 326.667 154 348 c 1
 163.333 380 181 411.333 207 442 c 1
 229 470.667 259 494.667 297 514 c 0
 334.333 533.333 372.667 543 412 543 c 0
 450.667 543 483.333 533.333 510 514 c 1
 533.333 494.667 547 470.667 551 442 c 1
 553 416 l 1
 553 390 549.667 367.333 543 348 c 0
 526.333 295.333 494 249.667 446 211 c 0
 398.667 171.667 345 152 285 152 c 0
EndSplineSet
EndChar
StartChar: uni0E50
Encoding: 209 3664
OldEncoding: 3664
Width: 716
Flags: W
Fore
276 -8 m 0
 184 -8 120.667 18 86 70 c 0
 65.3333 100.667 55 134.667 55 172 c 0
 55 196.667 59.3333 222 68 248 c 0
 82.6667 294 107 335.667 141 373 c 0
 176.333 412.333 220 444.333 272 469 c 1
 326.667 492.333 384 504 444 504 c 0
 504.667 504 554.667 492.333 594 469 c 1
 630 443.667 653.333 411.667 664 373 c 0
 668 356.333 670 340 670 324 c 0
 670 298.667 665.667 273.333 657 248 c 0
 643.667 206.667 618.667 165 582 123 c 0
 545.333 82.3333 501.667 51 451 29 c 0
 397.667 4.33333 339.333 -8 276 -8 c 0
410 397 m 0
 355.333 397 308 382 268 352 c 0
 229.333 322 203.333 287.333 190 248 c 0
 184.667 232.667 182 217.667 182 203 c 0
 182 180.333 188.333 159.667 201 141 c 0
 219 111 255.667 96 311 96 c 0
 365 96 412.333 111 453 141 c 1
 493 173 520.333 208 535 246 c 0
 540.333 260 543 275.667 543 293 c 0
 543 315.667 536 335.333 522 352 c 1
 500.667 382 463.333 397 410 397 c 0
EndSplineSet
EndChar
StartChar: uni0E51
Encoding: 210 3665
OldEncoding: 3665
Width: 735
Flags: W
Fore
197 252 m 0
 189.667 232 186 215.667 186 203 c 0
 186 187.667 189.667 174.667 197 164 c 1
 209 140.667 224 129 242 129 c 1
 233.333 131.667 226.333 140 221 154 c 1
 217 176 l 1
 217 192.667 219.667 209 225 225 c 0
 239.667 263.667 263 295 295 319 c 0
 330.333 346.333 366.333 360 403 360 c 0
 450.333 362 482 348.333 498 319 c 1
 504.667 303.667 508 288.667 508 274 c 0
 508 261.333 504.667 242.333 498 217 c 1
 479.333 162.333 445.667 116 397 78 c 1
 350.333 39.3333 293.667 20 227 20 c 1
 163 26.6667 117.333 50 90 90 c 1
 76.6667 112 70 138.667 70 170 c 0
 70 194 75.3333 222.667 86 256 c 0
 99.3333 302.667 126.667 347.667 168 391 c 0
 208.667 433.667 253.667 465.667 303 487 c 0
 355 510.333 406.333 522 457 522 c 0
 557 520 625.333 493.333 662 442 c 0
 682 412 692 376.667 692 336 c 0
 692 302.667 686 265.667 674 225 c 1
 634.667 107 549.333 8.66667 418 -70 c 1
 369 4 l 1
 414.333 32 453 64.6667 485 102 c 0
 517.667 140.667 541 181.667 555 225 c 0
 563 249.667 567 272.333 567 293 c 1
 565 322 l 1
 559 351.333 543.333 373 518 387 c 1
 495.333 403.667 462.667 412 420 412 c 0
 369.333 412 323.667 397 283 367 c 0
 241 335 212.333 296.667 197 252 c 0
373 266 m 0
 362.333 266 352 262 342 254 c 0
 332 246 326 237 324 227 c 1
 322 215 l 1
 324 199 l 1
 328 190.333 335.333 186 346 186 c 0
 360 186 371.667 190.333 381 199 c 0
 389.667 205.667 396.333 215 401 227 c 1
 403 240 l 1
 399 256 l 1
 392.333 262.667 383.667 266 373 266 c 0
EndSplineSet
EndChar
StartChar: uni0E52
Encoding: 211 3666
OldEncoding: 3666
Width: 874
Flags: W
Fore
510 342 m 1
 496 392.667 471.333 418 436 418 c 0
 426 418 416 416 406 412 c 1
 385 399 l 1
 411 399 433.667 393 453 381 c 0
 470.333 369.667 481 352.667 485 330 c 1
 487 307 l 1
 487 289.667 484.333 274 479 260 c 0
 465 221.333 442.667 190.667 412 168 c 0
 380.667 144.667 343 133 299 133 c 0
 257.667 133 228.333 148 211 178 c 0
 200.333 198 195 217.333 195 236 c 0
 195 251.333 198.333 269.667 205 291 c 0
 227.667 358.333 263 413 311 455 c 0
 360.333 498.333 411.667 520 465 520 c 0
 498.333 520 523 512.667 539 498 c 0
 551.667 484.667 559 472.333 561 461 c 1
 567.667 469.667 584 482 610 498 c 0
 634 512.667 664.667 520 702 520 c 0
 756 520 788.333 503.667 799 471 c 0
 803 457 805 442 805 426 c 0
 805 408.667 801.667 389 795 367 c 1
 729 162 l 2
 711.667 108.667 684.333 68.3333 647 41 c 0
 611.667 13.6667 560 -8.67362e-19 492 0 c 2
 207 0 l 2
 120.333 0 65.6667 17 43 51 c 1
 32.3333 71 27 93 27 117 c 0
 27 144.333 33 177.667 45 217 c 1
 158 563 l 2
 166 587.667 170 608.333 170 625 c 2
 170 629 l 1
 168 647.667 159 663.333 143 676 c 1
 258 750 l 1
 278.667 735.333 291.667 716.667 297 694 c 1
 301 664 l 1
 301 648.667 297.667 629.333 291 606 c 1
 172 244 l 2
 161.333 211.333 156 182.667 156 158 c 1
 158 137 l 1
 164 116.333 191.333 106 240 106 c 2
 506 106 l 2
 540.667 106 566 112.333 582 125 c 0
 596 137 608 159.667 618 193 c 1
 666 342 l 1
 672.667 364 676 379.667 676 389 c 2
 676 397 l 1
 674 408.333 663 414 643 414 c 0
 624.333 414 609.333 409.667 598 401 c 0
 583.333 389 572.333 377.667 565 367 c 2
 551 344 l 1
 510 342 l 1
365 313 m 0
 348.333 313 335.333 308.333 326 299 c 1
 314.667 290.333 307 280 303 268 c 1
 301 252 l 1
 305 236 l 1
 308.333 226 318 221 334 221 c 0
 366.667 223 387 238 395 266 c 1
 397 283 l 1
 393 299 l 1
 389 308.333 379.667 313 365 313 c 0
EndSplineSet
EndChar
StartChar: uni0E53
Encoding: 212 3667
OldEncoding: 3667
Width: 849
Flags: W
Fore
348 418 m 0
 284 418 235.667 366.667 203 264 c 0
 203 264.667 205.667 266 211 268 c 0
 219 270.667 230.667 272 246 272 c 0
 290 272 319.333 257.667 334 229 c 0
 342 215 346 198.667 346 180 c 0
 346 161.333 343.333 143 338 125 c 1
 322 85.6667 297.333 55 264 33 c 1
 231.333 8.33333 192.333 -4 147 -4 c 0
 81.6667 -4 49 33.6667 49 109 c 0
 49 155 60 210 82 274 c 0
 96 315.333 117.667 355 147 393 c 0
 179.667 433.667 214 464.333 250 485 c 0
 289.333 508.333 329.667 520 371 520 c 0
 422.333 520 457 509.667 475 489 c 1
 496.333 470.333 508 454 510 440 c 1
 513.333 446.667 520.667 455.667 532 467 c 0
 546.667 480.333 564.667 492.667 586 504 c 1
 611.333 514.667 640 520 672 520 c 0
 741.333 520 782.333 492.667 795 438 c 1
 799 385 l 1
 799 333 790 283.333 772 236 c 0
 735.333 132.667 692.333 54 643 0 c 1
 520 0 l 1
 540 16 565.333 50.6667 596 104 c 0
 621.333 149.333 643.333 200 662 256 c 0
 675.333 299.333 682 332 682 354 c 2
 682 369 l 1
 678 397.667 663 412 637 412 c 0
 608.333 412 585 402.333 567 383 c 1
 553.667 365.667 540 336.333 526 295 c 1
 430 0 l 1
 311 0 l 1
 410 299 l 2
 415.333 315 418 331.333 418 348 c 0
 418 364 415.333 376.333 410 385 c 0
 399.333 407 378.667 418 348 418 c 0
215 178 m 0
 200.333 178 188 174 178 166 c 1
 166.667 154.667 160 143.667 158 133 c 1
 156 119 l 1
 158 102 l 1
 163.333 92.6667 172.667 88 186 88 c 0
 201.333 88 213.667 92.6667 223 102 c 0
 235.667 112.667 244 123 248 133 c 1
 250 150 l 1
 246 166 l 1
 240 174 229.667 178 215 178 c 0
EndSplineSet
EndChar
StartChar: uni0E54
Encoding: 213 3668
OldEncoding: 3668
Width: 866
Flags: W
Fore
143 250 m 1
 139 232.667 137 218.333 137 207 c 0
 137 177.667 148 155.667 170 141 c 1
 200 123.667 243 115 299 115 c 1
 267 125 247.333 142 240 166 c 0
 237.333 176.667 236 187 236 197 c 0
 236 210.333 239.333 228.667 246 252 c 0
 254.667 282.667 276.333 314.667 311 348 c 0
 341.667 376.667 380 391 426 391 c 0
 470.667 391 500 376.667 514 348 c 0
 522 332 526 315 526 297 c 0
 526 283.667 524 270 520 256 c 0
 510.667 227.333 498.333 205.333 483 190 c 0
 469.667 176.667 457.333 168 446 164 c 1
 463.333 148 484.667 139 510 137 c 2
 598 127 l 1
 628 121 658 108 688 88 c 1
 610 -16 l 1
 599.333 -3.33333 581.667 6.66667 557 14 c 1
 524.333 21.3333 495 25 469 25 c 0
 442.333 25 401.333 20.6667 346 12 c 0
 295.333 4 249 0 207 0 c 0
 173.667 0 143 5.33333 115 16 c 0
 83.6667 28 59.6667 44.6667 43 66 c 0
 23 90.6667 12 117.667 10 147 c 1
 8 172 l 1
 8 196.667 13.6667 226 25 260 c 0
 38.3333 304.667 65.3333 349 106 393 c 0
 144.667 433.667 191.333 465.667 246 489 c 0
 302 512.333 361.333 524 424 524 c 1
 485 520 l 1
 535 514.667 571.333 512 594 512 c 0
 646 514 686.333 523 715 539 c 1
 744.333 553 773 581 801 623 c 0
 830.333 669.667 858.333 727.667 885 797 c 1
 993 784 l 1
 985.667 759.333 974 728.667 958 692 c 0
 936.667 646 915 605.667 893 571 c 0
 867 530.333 834.333 495.667 795 467 c 0
 730.333 421.667 664.667 399 598 399 c 0
 574.667 399 548.667 401.333 520 406 c 1
 489.333 408 463.333 410 442 412 c 2
 403 414 l 1
 345 414 292 401.667 244 377 c 1
 194.667 349 161 306.667 143 250 c 1
369 209 m 0
 395.667 209 414 223.333 424 252 c 1
 426 266 l 1
 424 281 l 1
 420 289 410.333 293 395 293 c 0
 383.667 293 372.667 289 362 281 c 1
 350 267.667 343.333 258 342 252 c 2
 338 238 l 1
 342 221 l 1
 346 213 355 209 369 209 c 0
EndSplineSet
EndChar
